<svg width="20" height="17" viewBox="0 0 20 17" fill="none" xmlns="http://www.w3.org/2000/svg">
<path d="M6.87847 2.48076V3.29H13.501V2.48076C13.501 2.10917 13.245 1.86971 12.8321 1.86971H7.53907C7.13446 1.86971 6.87847 2.10917 6.87847 2.48076ZM10.1815 8.28578C6.93628 8.28578 3.83971 7.79033 0.833984 6.53519V5.9324C0.833984 4.19006 1.74231 3.29 3.50116 3.29H5.16091V2.40644C5.16091 1.08524 6.01144 0.300781 7.43173 0.300781H12.9395C14.3598 0.300781 15.2103 1.08524 15.2103 2.40644V3.29H16.87C18.6372 3.29 19.5372 4.19006 19.5372 5.9324V6.53519C16.5315 7.79033 13.4349 8.28578 10.1815 8.28578ZM3.50116 16.6341C1.74231 16.6341 0.833984 15.7423 0.833984 13.9917V8.10412C3.34426 9.0207 5.60682 9.45009 7.89415 9.6235V10.2758C7.89415 10.9034 8.25748 11.2502 8.8933 11.2502H11.4696C12.1137 11.2502 12.4771 10.9034 12.4771 10.2758V9.6235C14.7644 9.45009 17.0269 9.0207 19.5372 8.10412V13.9917C19.5372 15.7423 18.6372 16.6341 16.87 16.6341H3.50116Z" fill="white"/>
</svg>
