<svg width="31" height="30" viewBox="0 0 31 30" fill="none" xmlns="http://www.w3.org/2000/svg">
<rect x="0.333984" width="30" height="30" rx="7" fill="#915CE6"/>
<path d="M10.894 24.4556C11.2606 24.4556 11.5312 24.281 11.9676 23.8883L15.1882 20.9819L20.8962 20.9906C23.5233 20.9906 24.9984 19.4719 24.9984 16.8797V10.0982C24.9984 7.50596 23.5233 5.9873 20.8962 5.9873H9.76814C7.14976 5.9873 5.66602 7.50596 5.66602 10.0982V16.8797C5.66602 19.4807 7.1934 20.9819 9.70704 20.9819H10.0562V23.513C10.0562 24.089 10.3616 24.4556 10.894 24.4556ZM10.9551 14.8374C10.2045 14.8374 9.59358 14.2352 9.59358 13.4846C9.59358 12.734 10.2045 12.123 10.9551 12.123C11.7057 12.123 12.3167 12.734 12.3167 13.4846C12.3167 14.2352 11.7057 14.8374 10.9551 14.8374ZM15.3453 14.8374C14.5859 14.8374 13.9837 14.2352 13.9837 13.4846C13.9837 12.734 14.5859 12.123 15.3453 12.123C16.0959 12.123 16.6981 12.734 16.6981 13.4846C16.6981 14.2352 16.0959 14.8374 15.3453 14.8374ZM19.7267 14.8374C18.9761 14.8374 18.3651 14.2352 18.3651 13.4846C18.3651 12.734 18.9761 12.123 19.7267 12.123C20.4773 12.123 21.0882 12.734 21.0882 13.4846C21.0882 14.2352 20.4773 14.8374 19.7267 14.8374Z" fill="white"/>
</svg>
