<svg width="31" height="30" viewBox="0 0 31 30" fill="none" xmlns="http://www.w3.org/2000/svg">
<rect x="0.333984" width="30" height="30" rx="7" fill="#5E5CE6"/>
<path d="M11.7867 7.76545V8.63143H18.8735V7.76545C18.8735 7.36781 18.5996 7.11155 18.1578 7.11155H12.4936C12.0606 7.11155 11.7867 7.36781 11.7867 7.76545ZM15.3213 13.9775C11.8485 13.9775 8.53484 13.4473 5.31836 12.1042V11.4591C5.31836 9.5946 6.29037 8.63143 8.17255 8.63143H9.94868V7.68592C9.94868 6.27208 10.8588 5.43262 12.3787 5.43262H18.2727C19.7925 5.43262 20.7027 6.27208 20.7027 7.68592V8.63143H22.4788C24.3698 8.63143 25.333 9.5946 25.333 11.4591V12.1042C22.1165 13.4473 18.8028 13.9775 15.3213 13.9775ZM8.17255 22.9112C6.29037 22.9112 5.31836 21.9569 5.31836 20.0835V13.7831C8.00465 14.7639 10.4259 15.2234 12.8736 15.409V16.1071C12.8736 16.7787 13.2624 17.1498 13.9428 17.1498H16.6998C17.389 17.1498 17.7778 16.7787 17.7778 16.1071V15.409C20.2255 15.2234 22.6467 14.7639 25.333 13.7831V20.0835C25.333 21.9569 24.3698 22.9112 22.4788 22.9112H8.17255Z" fill="white"/>
</svg>
