<svg width="31" height="31" viewBox="0 0 31 31" fill="none" xmlns="http://www.w3.org/2000/svg">
<g clip-path="url(#clip0_3679_55721)">
<path d="M0.333984 11.868C0.333984 7.94758 0.333984 5.98742 1.09694 4.49003C1.76805 3.1729 2.83891 2.10204 4.15605 1.43092C5.65343 0.667969 7.61359 0.667969 11.534 0.667969H19.134C23.0544 0.667969 25.0146 0.667969 26.5119 1.43092C27.829 2.10204 28.8999 3.1729 29.571 4.49003C30.334 5.98742 30.334 7.94758 30.334 11.868V19.468C30.334 23.3884 30.334 25.3485 29.571 26.8459C28.8999 28.163 27.829 29.2339 26.5119 29.905C25.0146 30.668 23.0544 30.668 19.134 30.668H11.534C7.61359 30.668 5.65343 30.668 4.15605 29.905C2.83891 29.2339 1.76805 28.163 1.09694 26.8459C0.333984 25.3485 0.333984 23.3884 0.333984 19.468V11.868Z" fill="#0A84FF"/>
<path d="M12.6348 8.10699C12.6348 7.31167 13.2794 6.66699 14.0748 6.66699H16.5947C17.39 6.66699 18.0348 7.31167 18.0348 8.10699V23.2269C18.0348 24.0223 17.39 24.6669 16.5947 24.6669H14.0748C13.2794 24.6669 12.6348 24.0223 12.6348 23.2269V8.10699Z" fill="white"/>
<path d="M6.33594 12.6089C6.33594 11.8136 6.98062 11.1689 7.77594 11.1689H10.2959C11.0912 11.1689 11.7359 11.8136 11.7359 12.6089V23.2289C11.7359 24.0242 11.0912 24.6689 10.2959 24.6689H7.77594C6.98062 24.6689 6.33594 24.0242 6.33594 23.2289V12.6089Z" fill="white"/>
<path d="M20.3736 16.5674C19.5783 16.5674 18.9336 17.2121 18.9336 18.0074V23.2273C18.9336 24.0227 19.5783 24.6673 20.3736 24.6673H22.8936C23.6889 24.6673 24.3336 24.0227 24.3336 23.2273V18.0074C24.3336 17.2121 23.6889 16.5674 22.8936 16.5674H20.3736Z" fill="white"/>
</g>
<defs>
<clipPath id="clip0_3679_55721">
<rect width="30" height="30" fill="white" transform="translate(0.333984 0.667969)"/>
</clipPath>
</defs>
</svg>
