<svg width="345" height="153" viewBox="0 0 345 153" fill="none" xmlns="http://www.w3.org/2000/svg">
<path d="M81.0705 117.696C78.8503 115.953 78.851 115.952 78.8518 115.951L78.8533 115.949C78.8544 115.948 78.8552 115.945 78.8565 115.944C78.859 115.941 78.862 115.937 78.8651 115.933L78.9626 115.814C79.0224 115.742 79.1046 115.645 79.209 115.526C79.4181 115.288 79.717 114.963 80.1041 114.576C80.8772 113.805 82.0104 112.781 83.4932 111.725C86.364 109.68 90.5925 107.479 96.0667 106.795L96.6002 106.734L96.6042 106.733C97.7549 106.614 98.8549 106.583 99.903 106.624C99.0402 106.024 98.5562 105.633 98.4652 105.558L96.2717 103.743L97.6404 102.117C97.3944 102.208 97.1048 102.312 96.7739 102.418C95.6956 102.764 94.1697 103.165 92.3344 103.401C88.6676 103.873 83.6631 103.697 78.5565 101.013L78.5552 101.013C73.3544 98.2758 70.4895 93.9278 68.9415 90.3975C68.1648 88.6261 67.7008 87.0207 67.4294 85.8507C67.2932 85.2638 67.204 84.7804 67.1478 84.4336C67.1198 84.2602 67.1002 84.1201 67.0867 84.0179C67.0799 83.9667 67.0744 83.9246 67.0706 83.8926C67.0687 83.8769 67.0674 83.8635 67.0662 83.8526C67.0656 83.8471 67.0652 83.8418 67.0648 83.8375C67.0645 83.8355 67.0638 83.8334 67.0636 83.8317L67.0639 83.8295C67.0638 83.8283 67.0634 83.8271 69.8702 83.5318L67.0629 83.8268L66.8247 81.5586L68.9925 80.8493L69.6736 82.9298C69.0294 80.9613 68.9953 80.8547 68.9944 80.8487L69.0026 80.8456C69.0066 80.8443 69.0117 80.8431 69.0167 80.8414L69.1623 80.7959C69.2521 80.7691 69.3755 80.7346 69.5285 80.6938C69.8343 80.6122 70.2633 80.5069 70.7997 80.4006C71.871 80.1882 73.3816 79.9673 75.2007 79.9128C78.8363 79.8041 83.7668 80.3612 88.8678 83.0456C94.0853 85.7879 96.9333 89.7136 98.4584 92.9622C99.2165 94.5771 99.649 96.0249 99.8941 97.0854C100.017 97.6168 100.093 98.0552 100.141 98.3739C100.164 98.5334 100.18 98.6641 100.191 98.7613C100.197 98.8098 100.201 98.8507 100.204 98.8826C100.205 98.8983 100.207 98.9124 100.208 98.9239C100.208 98.9294 100.209 98.9344 100.209 98.939C100.209 98.9413 100.209 98.944 100.21 98.9461C100.21 98.9471 100.21 98.9486 100.21 98.9491L97.3966 99.1754M81.0705 117.696L78.9 119.501L78.9016 119.503C78.9027 119.504 78.9041 119.506 78.9054 119.508C78.9081 119.511 78.9113 119.515 78.9148 119.519C78.9219 119.527 78.9307 119.538 78.9411 119.551C78.962 119.575 78.9901 119.606 79.0239 119.645C79.092 119.723 79.1863 119.828 79.306 119.957C79.5452 120.214 79.8869 120.567 80.3259 120.98C81.201 121.803 82.4782 122.881 84.1072 123.923C87.3534 126.002 92.1484 128.03 97.9909 127.417L97.9915 127.415C100.316 127.173 102.397 126.597 104.238 125.836C103.214 127.199 102.481 128.431 101.994 129.349C101.738 129.832 101.549 130.231 101.419 130.52C101.354 130.664 101.304 130.782 101.268 130.868C101.25 130.911 101.235 130.947 101.224 130.975C101.219 130.989 101.214 131.001 101.21 131.01C101.208 131.015 101.207 131.02 101.206 131.023L101.202 131.031C101.202 131.032 101.201 131.033 103.836 132.046M81.0705 117.696L78.8984 119.5L77.4425 117.745L78.8503 115.952L81.0705 117.696ZM103.836 132.046L102.295 134.411L102.297 134.412C102.299 134.413 102.3 134.414 102.302 134.415C102.305 134.418 102.31 134.42 102.314 134.423C102.323 134.429 102.336 134.436 102.349 134.445C102.376 134.462 102.412 134.484 102.456 134.511C102.544 134.565 102.665 134.639 102.817 134.727C103.121 134.902 103.553 135.138 104.094 135.403C105.173 135.931 106.71 136.585 108.574 137.101C112.289 138.13 117.47 138.655 122.874 136.35L122.873 136.349C128.184 134.085 131.482 130.31 133.432 127.164C134.407 125.59 135.061 124.151 135.473 123.095C135.679 122.565 135.827 122.128 135.926 121.811C135.975 121.653 136.012 121.525 136.039 121.43C136.052 121.383 136.063 121.344 136.071 121.314C136.075 121.299 136.079 121.285 136.081 121.275C136.083 121.27 136.084 121.265 136.085 121.261C136.085 121.259 136.086 121.257 136.087 121.255L136.087 121.253L133.349 120.563M103.836 132.046L102.293 134.409L100.383 133.162L101.201 131.033L103.836 132.046ZM133.349 120.563C134.913 118.292 134.949 118.239 134.948 118.237C134.948 118.237 134.946 118.235 134.945 118.235C134.944 118.234 134.942 118.233 134.94 118.232C134.936 118.229 134.931 118.226 134.926 118.222C134.917 118.216 134.905 118.208 134.892 118.2C134.865 118.182 134.831 118.159 134.79 118.133C134.708 118.08 134.597 118.011 134.458 117.929C134.324 117.849 134.163 117.756 133.977 117.655C153.084 118.968 179.081 114.027 210.557 91.9918L212.179 90.844L214.477 89.2026L212.835 86.9051L209.971 82.9009L208.33 80.6057L206.034 82.2455C173.928 105.182 148.938 109.022 132.007 107.218C127.664 106.756 123.826 105.916 120.511 104.92C120.728 104.9 120.918 104.88 121.076 104.859C121.236 104.839 121.366 104.819 121.463 104.803C121.511 104.795 121.55 104.787 121.582 104.782C121.598 104.779 121.612 104.777 121.623 104.775C121.629 104.774 121.634 104.772 121.638 104.771C121.641 104.771 121.643 104.77 121.645 104.77L121.648 104.77L121.102 102M133.349 120.563L136.088 121.25L136.564 119.35L134.95 118.238L133.349 120.563ZM121.102 102L123.887 102.457L123.888 102.453C123.888 102.451 123.889 102.449 123.889 102.448C123.89 102.443 123.89 102.439 123.891 102.433C123.893 102.423 123.895 102.41 123.898 102.394C123.902 102.364 123.908 102.323 123.915 102.275C123.928 102.177 123.945 102.045 123.962 101.88C123.997 101.551 124.035 101.09 124.056 100.522C124.098 99.3894 124.072 97.8112 123.803 95.9791C123.265 92.3184 121.742 87.5437 117.773 83.3511L117.392 82.9591C113.425 78.9849 108.654 77.4856 104.955 76.969C103.039 76.7013 101.369 76.6906 100.169 76.7466C99.5665 76.7746 99.0769 76.8199 98.7277 76.8599C98.5533 76.8799 98.4132 76.8983 98.3111 76.913C98.26 76.9204 98.2178 76.9272 98.186 76.9322C98.1702 76.9347 98.1566 76.937 98.1457 76.9388C98.1406 76.9396 98.1359 76.9401 98.1319 76.9408C98.1299 76.9411 98.1277 76.9416 98.126 76.9419L98.123 76.942C98.1219 76.9424 98.1253 76.9664 98.5327 79.3446L98.1211 76.9427L95.875 77.3279L95.778 79.6045L98.5973 79.7247C95.9179 79.61 95.7844 79.6058 95.7777 79.6067L95.7768 79.6154C95.7766 79.6194 95.7768 79.6239 95.7766 79.629C95.7762 79.6394 95.7755 79.6522 95.775 79.667C95.7742 79.6968 95.7737 79.7355 95.7729 79.7823C95.7714 79.876 95.7706 80.0033 95.7726 80.1615C95.7767 80.4779 95.7916 80.9199 95.8342 81.4652C95.9193 82.5542 96.1147 84.0687 96.5542 85.8355C97.3409 88.9978 98.9248 93.0148 102.095 96.8306L101.282 97.7954L100.219 99.057L100.211 98.9519L97.3966 99.1754M121.102 102L123.887 102.459L123.569 104.388L121.651 104.769L121.102 102ZM97.3966 99.1754L98.3678 101.255L98.3663 101.256L97.3966 99.1754ZM112.654 115.425L114.661 113.841L114.659 113.84C114.409 114.038 113.86 114.473 112.654 115.425ZM112.654 115.425L115.067 116.889L116.083 115.214L115.126 113.999C116.758 114.541 118.506 115.055 120.365 115.52C118.801 115.799 117.156 116.271 115.454 116.997L115.452 116.998L114.96 117.214C114.91 117.237 114.86 117.26 114.81 117.283C114.874 117.189 114.928 117.11 114.968 117.047C114.995 117.006 115.016 116.971 115.033 116.945C115.041 116.932 115.048 116.92 115.053 116.911C115.056 116.907 115.059 116.902 115.061 116.899C115.062 116.897 115.064 116.895 115.065 116.893L115.066 116.891L112.654 115.425Z" fill="white"/>
<path d="M81.0705 117.696C78.8503 115.953 78.851 115.952 78.8518 115.951L78.8533 115.949C78.8544 115.948 78.8552 115.945 78.8565 115.944C78.859 115.941 78.862 115.937 78.8651 115.933L78.9626 115.814C79.0224 115.742 79.1046 115.645 79.209 115.526C79.4181 115.288 79.717 114.963 80.1041 114.576C80.8772 113.805 82.0104 112.781 83.4932 111.725C86.364 109.68 90.5925 107.479 96.0667 106.795L96.6002 106.734L96.6042 106.733C97.7549 106.614 98.8549 106.583 99.903 106.624C99.0402 106.024 98.5562 105.633 98.4652 105.558L96.2717 103.743L97.6404 102.117C97.3944 102.208 97.1048 102.312 96.7739 102.418C95.6956 102.764 94.1697 103.165 92.3344 103.401C88.6676 103.873 83.6631 103.697 78.5565 101.013L78.5552 101.013C73.3544 98.2758 70.4895 93.9278 68.9415 90.3975C68.1648 88.6261 67.7008 87.0207 67.4294 85.8507C67.2932 85.2638 67.204 84.7804 67.1478 84.4336C67.1198 84.2602 67.1002 84.1201 67.0867 84.0179C67.0799 83.9667 67.0744 83.9246 67.0706 83.8926C67.0687 83.8769 67.0674 83.8635 67.0662 83.8526C67.0656 83.8471 67.0652 83.8418 67.0648 83.8375C67.0645 83.8355 67.0638 83.8334 67.0636 83.8317L67.0639 83.8295C67.0638 83.8283 67.0634 83.8271 69.8702 83.5318L67.0629 83.8268L66.8247 81.5586L68.9925 80.8493L69.6736 82.9298C69.0294 80.9613 68.9953 80.8547 68.9944 80.8487L69.0026 80.8456C69.0066 80.8443 69.0117 80.8431 69.0167 80.8414L69.1623 80.7959C69.2521 80.7691 69.3755 80.7346 69.5285 80.6938C69.8343 80.6122 70.2633 80.5069 70.7997 80.4006C71.871 80.1882 73.3816 79.9673 75.2007 79.9128C78.8363 79.8041 83.7668 80.3612 88.8678 83.0456C94.0853 85.7879 96.9333 89.7136 98.4584 92.9622C99.2165 94.5771 99.649 96.0249 99.8941 97.0854C100.017 97.6168 100.093 98.0552 100.141 98.3739C100.164 98.5334 100.18 98.6641 100.191 98.7613C100.197 98.8098 100.201 98.8507 100.204 98.8826C100.205 98.8983 100.207 98.9124 100.208 98.9239C100.208 98.9294 100.209 98.9344 100.209 98.939C100.209 98.9413 100.209 98.944 100.21 98.9461C100.21 98.9471 100.21 98.9486 100.21 98.9491L97.3966 99.1754M81.0705 117.696L78.9 119.501L78.9016 119.503C78.9027 119.504 78.9041 119.506 78.9054 119.508C78.9081 119.511 78.9113 119.515 78.9148 119.519C78.9219 119.527 78.9307 119.538 78.9411 119.551C78.962 119.575 78.9901 119.606 79.0239 119.645C79.092 119.723 79.1863 119.828 79.306 119.957C79.5452 120.214 79.8869 120.567 80.3259 120.98C81.201 121.803 82.4782 122.881 84.1072 123.923C87.3534 126.002 92.1484 128.03 97.9909 127.417L97.9915 127.415C100.316 127.173 102.397 126.597 104.238 125.836C103.214 127.199 102.481 128.431 101.994 129.349C101.738 129.832 101.549 130.231 101.419 130.52C101.354 130.664 101.304 130.782 101.268 130.868C101.25 130.911 101.235 130.947 101.224 130.975C101.219 130.989 101.214 131.001 101.21 131.01C101.208 131.015 101.207 131.02 101.206 131.023L101.202 131.031C101.202 131.032 101.201 131.033 103.836 132.046M81.0705 117.696L78.8984 119.5L77.4425 117.745L78.8503 115.952L81.0705 117.696ZM103.836 132.046L102.295 134.411L102.297 134.412C102.299 134.413 102.3 134.414 102.302 134.415C102.305 134.418 102.31 134.42 102.314 134.423C102.323 134.429 102.336 134.436 102.349 134.445C102.376 134.462 102.412 134.484 102.456 134.511C102.544 134.565 102.665 134.639 102.817 134.727C103.121 134.902 103.553 135.138 104.094 135.403C105.173 135.931 106.71 136.585 108.574 137.101C112.289 138.13 117.47 138.655 122.874 136.35L122.873 136.349C128.184 134.085 131.482 130.31 133.432 127.164C134.407 125.59 135.061 124.151 135.473 123.095C135.679 122.565 135.827 122.128 135.926 121.811C135.975 121.653 136.012 121.525 136.039 121.43C136.052 121.383 136.063 121.344 136.071 121.314C136.075 121.299 136.079 121.285 136.081 121.275C136.083 121.27 136.084 121.265 136.085 121.261C136.085 121.259 136.086 121.257 136.087 121.255L136.087 121.253L133.349 120.563M103.836 132.046L102.293 134.409L100.383 133.162L101.201 131.033L103.836 132.046ZM133.349 120.563C134.913 118.292 134.949 118.239 134.948 118.237C134.948 118.237 134.946 118.235 134.945 118.235C134.944 118.234 134.942 118.233 134.94 118.232C134.936 118.229 134.931 118.226 134.926 118.222C134.917 118.216 134.905 118.208 134.892 118.2C134.865 118.182 134.831 118.159 134.79 118.133C134.708 118.08 134.597 118.011 134.458 117.929C134.324 117.849 134.163 117.756 133.977 117.655C153.084 118.968 179.081 114.027 210.557 91.9918L212.179 90.844L214.477 89.2026L212.835 86.9051L209.971 82.9009L208.33 80.6057L206.034 82.2455C173.928 105.182 148.938 109.022 132.007 107.218C127.664 106.756 123.826 105.916 120.511 104.92C120.728 104.9 120.918 104.88 121.076 104.859C121.236 104.839 121.366 104.819 121.463 104.803C121.511 104.795 121.55 104.787 121.582 104.782C121.598 104.779 121.612 104.777 121.623 104.775C121.629 104.774 121.634 104.772 121.638 104.771C121.641 104.771 121.643 104.77 121.645 104.77L121.648 104.77L121.102 102M133.349 120.563L136.088 121.25L136.564 119.35L134.95 118.238L133.349 120.563ZM121.102 102L123.887 102.457L123.888 102.453C123.888 102.451 123.889 102.449 123.889 102.448C123.89 102.443 123.89 102.439 123.891 102.433C123.893 102.423 123.895 102.41 123.898 102.394C123.902 102.364 123.908 102.323 123.915 102.275C123.928 102.177 123.945 102.045 123.962 101.88C123.997 101.551 124.035 101.09 124.056 100.522C124.098 99.3894 124.072 97.8112 123.803 95.9791C123.265 92.3184 121.742 87.5437 117.773 83.3511L117.392 82.9591C113.425 78.9849 108.654 77.4856 104.955 76.969C103.039 76.7013 101.369 76.6906 100.169 76.7466C99.5665 76.7746 99.0769 76.8199 98.7277 76.8599C98.5533 76.8799 98.4132 76.8983 98.3111 76.913C98.26 76.9204 98.2178 76.9272 98.186 76.9322C98.1702 76.9347 98.1566 76.937 98.1457 76.9388C98.1406 76.9396 98.1359 76.9401 98.1319 76.9408C98.1299 76.9411 98.1277 76.9416 98.126 76.9419L98.123 76.942C98.1219 76.9424 98.1253 76.9664 98.5327 79.3446L98.1211 76.9427L95.875 77.3279L95.778 79.6045L98.5973 79.7247C95.9179 79.61 95.7844 79.6058 95.7777 79.6067L95.7768 79.6154C95.7766 79.6194 95.7768 79.6239 95.7766 79.629C95.7762 79.6394 95.7755 79.6522 95.775 79.667C95.7742 79.6968 95.7737 79.7355 95.7729 79.7823C95.7714 79.876 95.7706 80.0033 95.7726 80.1615C95.7767 80.4779 95.7916 80.9199 95.8342 81.4652C95.9193 82.5542 96.1147 84.0687 96.5542 85.8355C97.3409 88.9978 98.9248 93.0148 102.095 96.8306L101.282 97.7954L100.219 99.057L100.211 98.9519L97.3966 99.1754M121.102 102L123.887 102.459L123.569 104.388L121.651 104.769L121.102 102ZM97.3966 99.1754L98.3678 101.255L98.3663 101.256L97.3966 99.1754ZM112.654 115.425L114.661 113.841L114.659 113.84C114.409 114.038 113.86 114.473 112.654 115.425ZM112.654 115.425L115.067 116.889L116.083 115.214L115.126 113.999C116.758 114.541 118.506 115.055 120.365 115.52C118.801 115.799 117.156 116.271 115.454 116.997L115.452 116.998L114.96 117.214C114.91 117.237 114.86 117.26 114.81 117.283C114.874 117.189 114.928 117.11 114.968 117.047C114.995 117.006 115.016 116.971 115.033 116.945C115.041 116.932 115.048 116.92 115.053 116.911C115.056 116.907 115.059 116.902 115.061 116.899C115.062 116.897 115.064 116.895 115.065 116.893L115.066 116.891L112.654 115.425Z" fill="#CCCCCC"/>
<path d="M81.0705 117.696C78.8503 115.953 78.851 115.952 78.8518 115.951L78.8533 115.949C78.8544 115.948 78.8552 115.945 78.8565 115.944C78.859 115.941 78.862 115.937 78.8651 115.933L78.9626 115.814C79.0224 115.742 79.1046 115.645 79.209 115.526C79.4181 115.288 79.717 114.963 80.1041 114.576C80.8772 113.805 82.0104 112.781 83.4932 111.725C86.364 109.68 90.5925 107.479 96.0667 106.795L96.6002 106.734L96.6042 106.733C97.7549 106.614 98.8549 106.583 99.903 106.624C99.0402 106.024 98.5562 105.633 98.4652 105.558L96.2717 103.743L97.6404 102.117C97.3944 102.208 97.1048 102.312 96.7739 102.418C95.6956 102.764 94.1697 103.165 92.3344 103.401C88.6676 103.873 83.6631 103.697 78.5565 101.013L78.5552 101.013C73.3544 98.2758 70.4895 93.9278 68.9415 90.3975C68.1648 88.6261 67.7008 87.0207 67.4294 85.8507C67.2932 85.2638 67.204 84.7804 67.1478 84.4336C67.1198 84.2602 67.1002 84.1201 67.0867 84.0179C67.0799 83.9667 67.0744 83.9246 67.0706 83.8926C67.0687 83.8769 67.0674 83.8635 67.0662 83.8526C67.0656 83.8471 67.0652 83.8418 67.0648 83.8375C67.0645 83.8355 67.0638 83.8334 67.0636 83.8317L67.0639 83.8295C67.0638 83.8283 67.0634 83.8271 69.8702 83.5318L67.0629 83.8268L66.8247 81.5586L68.9925 80.8493L69.6736 82.9298C69.0294 80.9613 68.9953 80.8547 68.9944 80.8487L69.0026 80.8456C69.0066 80.8443 69.0117 80.8431 69.0167 80.8414L69.1623 80.7959C69.2521 80.7691 69.3755 80.7346 69.5285 80.6938C69.8343 80.6122 70.2633 80.5069 70.7997 80.4006C71.871 80.1882 73.3816 79.9673 75.2007 79.9128C78.8363 79.8041 83.7668 80.3612 88.8678 83.0456C94.0853 85.7879 96.9333 89.7136 98.4584 92.9622C99.2165 94.5771 99.649 96.0249 99.8941 97.0854C100.017 97.6168 100.093 98.0552 100.141 98.3739C100.164 98.5334 100.18 98.6641 100.191 98.7613C100.197 98.8098 100.201 98.8507 100.204 98.8826C100.205 98.8983 100.207 98.9124 100.208 98.9239C100.208 98.9294 100.209 98.9344 100.209 98.939C100.209 98.9413 100.209 98.944 100.21 98.9461C100.21 98.9471 100.21 98.9486 100.21 98.9491L97.3966 99.1754M81.0705 117.696L78.9 119.501L78.9016 119.503C78.9027 119.504 78.9041 119.506 78.9054 119.508C78.9081 119.511 78.9113 119.515 78.9148 119.519C78.9219 119.527 78.9307 119.538 78.9411 119.551C78.962 119.575 78.9901 119.606 79.0239 119.645C79.092 119.723 79.1863 119.828 79.306 119.957C79.5452 120.214 79.8869 120.567 80.3259 120.98C81.201 121.803 82.4782 122.881 84.1072 123.923C87.3534 126.002 92.1484 128.03 97.9909 127.417L97.9915 127.415C100.316 127.173 102.397 126.597 104.238 125.836C103.214 127.199 102.481 128.431 101.994 129.349C101.738 129.832 101.549 130.231 101.419 130.52C101.354 130.664 101.304 130.782 101.268 130.868C101.25 130.911 101.235 130.947 101.224 130.975C101.219 130.989 101.214 131.001 101.21 131.01C101.208 131.015 101.207 131.02 101.206 131.023L101.202 131.031C101.202 131.032 101.201 131.033 103.836 132.046M81.0705 117.696L78.8984 119.5L77.4425 117.745L78.8503 115.952L81.0705 117.696ZM103.836 132.046L102.295 134.411L102.297 134.412C102.299 134.413 102.3 134.414 102.302 134.415C102.305 134.418 102.31 134.42 102.314 134.423C102.323 134.429 102.336 134.436 102.349 134.445C102.376 134.462 102.412 134.484 102.456 134.511C102.544 134.565 102.665 134.639 102.817 134.727C103.121 134.902 103.553 135.138 104.094 135.403C105.173 135.931 106.71 136.585 108.574 137.101C112.289 138.13 117.47 138.655 122.874 136.35L122.873 136.349C128.184 134.085 131.482 130.31 133.432 127.164C134.407 125.59 135.061 124.151 135.473 123.095C135.679 122.565 135.827 122.128 135.926 121.811C135.975 121.653 136.012 121.525 136.039 121.43C136.052 121.383 136.063 121.344 136.071 121.314C136.075 121.299 136.079 121.285 136.081 121.275C136.083 121.27 136.084 121.265 136.085 121.261C136.085 121.259 136.086 121.257 136.087 121.255L136.087 121.253L133.349 120.563M103.836 132.046L102.293 134.409L100.383 133.162L101.201 131.033L103.836 132.046ZM133.349 120.563C134.913 118.292 134.949 118.239 134.948 118.237C134.948 118.237 134.946 118.235 134.945 118.235C134.944 118.234 134.942 118.233 134.94 118.232C134.936 118.229 134.931 118.226 134.926 118.222C134.917 118.216 134.905 118.208 134.892 118.2C134.865 118.182 134.831 118.159 134.79 118.133C134.708 118.08 134.597 118.011 134.458 117.929C134.324 117.849 134.163 117.756 133.977 117.655C153.084 118.968 179.081 114.027 210.557 91.9918L212.179 90.844L214.477 89.2026L212.835 86.9051L209.971 82.9009L208.33 80.6057L206.034 82.2455C173.928 105.182 148.938 109.022 132.007 107.218C127.664 106.756 123.826 105.916 120.511 104.92C120.728 104.9 120.918 104.88 121.076 104.859C121.236 104.839 121.366 104.819 121.463 104.803C121.511 104.795 121.55 104.787 121.582 104.782C121.598 104.779 121.612 104.777 121.623 104.775C121.629 104.774 121.634 104.772 121.638 104.771C121.641 104.771 121.643 104.77 121.645 104.77L121.648 104.77L121.102 102M133.349 120.563L136.088 121.25L136.564 119.35L134.95 118.238L133.349 120.563ZM121.102 102L123.887 102.457L123.888 102.453C123.888 102.451 123.889 102.449 123.889 102.448C123.89 102.443 123.89 102.439 123.891 102.433C123.893 102.423 123.895 102.41 123.898 102.394C123.902 102.364 123.908 102.323 123.915 102.275C123.928 102.177 123.945 102.045 123.962 101.88C123.997 101.551 124.035 101.09 124.056 100.522C124.098 99.3894 124.072 97.8112 123.803 95.9791C123.265 92.3184 121.742 87.5437 117.773 83.3511L117.392 82.9591C113.425 78.9849 108.654 77.4856 104.955 76.969C103.039 76.7013 101.369 76.6906 100.169 76.7466C99.5665 76.7746 99.0769 76.8199 98.7277 76.8599C98.5533 76.8799 98.4132 76.8983 98.3111 76.913C98.26 76.9204 98.2178 76.9272 98.186 76.9322C98.1702 76.9347 98.1566 76.937 98.1457 76.9388C98.1406 76.9396 98.1359 76.9401 98.1319 76.9408C98.1299 76.9411 98.1277 76.9416 98.126 76.9419L98.123 76.942C98.1219 76.9424 98.1253 76.9664 98.5327 79.3446L98.1211 76.9427L95.875 77.3279L95.778 79.6045L98.5973 79.7247C95.9179 79.61 95.7844 79.6058 95.7777 79.6067L95.7768 79.6154C95.7766 79.6194 95.7768 79.6239 95.7766 79.629C95.7762 79.6394 95.7755 79.6522 95.775 79.667C95.7742 79.6968 95.7737 79.7355 95.7729 79.7823C95.7714 79.876 95.7706 80.0033 95.7726 80.1615C95.7767 80.4779 95.7916 80.9199 95.8342 81.4652C95.9193 82.5542 96.1147 84.0687 96.5542 85.8355C97.3409 88.9978 98.9248 93.0148 102.095 96.8306L101.282 97.7954L100.219 99.057L100.211 98.9519L97.3966 99.1754M121.102 102L123.887 102.459L123.569 104.388L121.651 104.769L121.102 102ZM97.3966 99.1754L98.3678 101.255L98.3663 101.256L97.3966 99.1754ZM112.654 115.425L114.661 113.841L114.659 113.84C114.409 114.038 113.86 114.473 112.654 115.425ZM112.654 115.425L115.067 116.889L116.083 115.214L115.126 113.999C116.758 114.541 118.506 115.055 120.365 115.52C118.801 115.799 117.156 116.271 115.454 116.997L115.452 116.998L114.96 117.214C114.91 117.237 114.86 117.26 114.81 117.283C114.874 117.189 114.928 117.11 114.968 117.047C114.995 117.006 115.016 116.971 115.033 116.945C115.041 116.932 115.048 116.92 115.053 116.911C115.056 116.907 115.059 116.902 115.061 116.899C115.062 116.897 115.064 116.895 115.065 116.893L115.066 116.891L112.654 115.425Z" fill="url(#paint0_linear_4576_4068)"/>
<path d="M81.0705 117.696C78.8503 115.953 78.851 115.952 78.8518 115.951L78.8533 115.949C78.8544 115.948 78.8552 115.945 78.8565 115.944C78.859 115.941 78.862 115.937 78.8651 115.933L78.9626 115.814C79.0224 115.742 79.1046 115.645 79.209 115.526C79.4181 115.288 79.717 114.963 80.1041 114.576C80.8772 113.805 82.0104 112.781 83.4932 111.725C86.364 109.68 90.5925 107.479 96.0667 106.795L96.6002 106.734L96.6042 106.733C97.7549 106.614 98.8549 106.583 99.903 106.624C99.0402 106.024 98.5562 105.633 98.4652 105.558L96.2717 103.743L97.6404 102.117C97.3944 102.208 97.1048 102.312 96.7739 102.418C95.6956 102.764 94.1697 103.165 92.3344 103.401C88.6676 103.873 83.6631 103.697 78.5565 101.013L78.5552 101.013C73.3544 98.2758 70.4895 93.9278 68.9415 90.3975C68.1648 88.6261 67.7008 87.0207 67.4294 85.8507C67.2932 85.2638 67.204 84.7804 67.1478 84.4336C67.1198 84.2602 67.1002 84.1201 67.0867 84.0179C67.0799 83.9667 67.0744 83.9246 67.0706 83.8926C67.0687 83.8769 67.0674 83.8635 67.0662 83.8526C67.0656 83.8471 67.0652 83.8418 67.0648 83.8375C67.0645 83.8355 67.0638 83.8334 67.0636 83.8317L67.0639 83.8295C67.0638 83.8283 67.0634 83.8271 69.8702 83.5318L67.0629 83.8268L66.8247 81.5586L68.9925 80.8493L69.6736 82.9298C69.0294 80.9613 68.9953 80.8547 68.9944 80.8487L69.0026 80.8456C69.0066 80.8443 69.0117 80.8431 69.0167 80.8414L69.1623 80.7959C69.2521 80.7691 69.3755 80.7346 69.5285 80.6938C69.8343 80.6122 70.2633 80.5069 70.7997 80.4006C71.871 80.1882 73.3816 79.9673 75.2007 79.9128C78.8363 79.8041 83.7668 80.3612 88.8678 83.0456C94.0853 85.7879 96.9333 89.7136 98.4584 92.9622C99.2165 94.5771 99.649 96.0249 99.8941 97.0854C100.017 97.6168 100.093 98.0552 100.141 98.3739C100.164 98.5334 100.18 98.6641 100.191 98.7613C100.197 98.8098 100.201 98.8507 100.204 98.8826C100.205 98.8983 100.207 98.9124 100.208 98.9239C100.208 98.9294 100.209 98.9344 100.209 98.939C100.209 98.9413 100.209 98.944 100.21 98.9461C100.21 98.9471 100.21 98.9486 100.21 98.9491L97.3966 99.1754M81.0705 117.696L78.9 119.501L78.9016 119.503C78.9027 119.504 78.9041 119.506 78.9054 119.508C78.9081 119.511 78.9113 119.515 78.9148 119.519C78.9219 119.527 78.9307 119.538 78.9411 119.551C78.962 119.575 78.9901 119.606 79.0239 119.645C79.092 119.723 79.1863 119.828 79.306 119.957C79.5452 120.214 79.8869 120.567 80.3259 120.98C81.201 121.803 82.4782 122.881 84.1072 123.923C87.3534 126.002 92.1484 128.03 97.9909 127.417L97.9915 127.415C100.316 127.173 102.397 126.597 104.238 125.836C103.214 127.199 102.481 128.431 101.994 129.349C101.738 129.832 101.549 130.231 101.419 130.52C101.354 130.664 101.304 130.782 101.268 130.868C101.25 130.911 101.235 130.947 101.224 130.975C101.219 130.989 101.214 131.001 101.21 131.01C101.208 131.015 101.207 131.02 101.206 131.023L101.202 131.031C101.202 131.032 101.201 131.033 103.836 132.046M81.0705 117.696L78.8984 119.5L77.4425 117.745L78.8503 115.952L81.0705 117.696ZM103.836 132.046L102.295 134.411L102.297 134.412C102.299 134.413 102.3 134.414 102.302 134.415C102.305 134.418 102.31 134.42 102.314 134.423C102.323 134.429 102.336 134.436 102.349 134.445C102.376 134.462 102.412 134.484 102.456 134.511C102.544 134.565 102.665 134.639 102.817 134.727C103.121 134.902 103.553 135.138 104.094 135.403C105.173 135.931 106.71 136.585 108.574 137.101C112.289 138.13 117.47 138.655 122.874 136.35L122.873 136.349C128.184 134.085 131.482 130.31 133.432 127.164C134.407 125.59 135.061 124.151 135.473 123.095C135.679 122.565 135.827 122.128 135.926 121.811C135.975 121.653 136.012 121.525 136.039 121.43C136.052 121.383 136.063 121.344 136.071 121.314C136.075 121.299 136.079 121.285 136.081 121.275C136.083 121.27 136.084 121.265 136.085 121.261C136.085 121.259 136.086 121.257 136.087 121.255L136.087 121.253L133.349 120.563M103.836 132.046L102.293 134.409L100.383 133.162L101.201 131.033L103.836 132.046ZM133.349 120.563C134.913 118.292 134.949 118.239 134.948 118.237C134.948 118.237 134.946 118.235 134.945 118.235C134.944 118.234 134.942 118.233 134.94 118.232C134.936 118.229 134.931 118.226 134.926 118.222C134.917 118.216 134.905 118.208 134.892 118.2C134.865 118.182 134.831 118.159 134.79 118.133C134.708 118.08 134.597 118.011 134.458 117.929C134.324 117.849 134.163 117.756 133.977 117.655C153.084 118.968 179.081 114.027 210.557 91.9918L212.179 90.844L214.477 89.2026L212.835 86.9051L209.971 82.9009L208.33 80.6057L206.034 82.2455C173.928 105.182 148.938 109.022 132.007 107.218C127.664 106.756 123.826 105.916 120.511 104.92C120.728 104.9 120.918 104.88 121.076 104.859C121.236 104.839 121.366 104.819 121.463 104.803C121.511 104.795 121.55 104.787 121.582 104.782C121.598 104.779 121.612 104.777 121.623 104.775C121.629 104.774 121.634 104.772 121.638 104.771C121.641 104.771 121.643 104.77 121.645 104.77L121.648 104.77L121.102 102M133.349 120.563L136.088 121.25L136.564 119.35L134.95 118.238L133.349 120.563ZM121.102 102L123.887 102.457L123.888 102.453C123.888 102.451 123.889 102.449 123.889 102.448C123.89 102.443 123.89 102.439 123.891 102.433C123.893 102.423 123.895 102.41 123.898 102.394C123.902 102.364 123.908 102.323 123.915 102.275C123.928 102.177 123.945 102.045 123.962 101.88C123.997 101.551 124.035 101.09 124.056 100.522C124.098 99.3894 124.072 97.8112 123.803 95.9791C123.265 92.3184 121.742 87.5437 117.773 83.3511L117.392 82.9591C113.425 78.9849 108.654 77.4856 104.955 76.969C103.039 76.7013 101.369 76.6906 100.169 76.7466C99.5665 76.7746 99.0769 76.8199 98.7277 76.8599C98.5533 76.8799 98.4132 76.8983 98.3111 76.913C98.26 76.9204 98.2178 76.9272 98.186 76.9322C98.1702 76.9347 98.1566 76.937 98.1457 76.9388C98.1406 76.9396 98.1359 76.9401 98.1319 76.9408C98.1299 76.9411 98.1277 76.9416 98.126 76.9419L98.123 76.942C98.1219 76.9424 98.1253 76.9664 98.5327 79.3446L98.1211 76.9427L95.875 77.3279L95.778 79.6045L98.5973 79.7247C95.9179 79.61 95.7844 79.6058 95.7777 79.6067L95.7768 79.6154C95.7766 79.6194 95.7768 79.6239 95.7766 79.629C95.7762 79.6394 95.7755 79.6522 95.775 79.667C95.7742 79.6968 95.7737 79.7355 95.7729 79.7823C95.7714 79.876 95.7706 80.0033 95.7726 80.1615C95.7767 80.4779 95.7916 80.9199 95.8342 81.4652C95.9193 82.5542 96.1147 84.0687 96.5542 85.8355C97.3409 88.9978 98.9248 93.0148 102.095 96.8306L101.282 97.7954L100.219 99.057L100.211 98.9519L97.3966 99.1754M121.102 102L123.887 102.459L123.569 104.388L121.651 104.769L121.102 102ZM97.3966 99.1754L98.3678 101.255L98.3663 101.256L97.3966 99.1754ZM112.654 115.425L114.661 113.841L114.659 113.84C114.409 114.038 113.86 114.473 112.654 115.425ZM112.654 115.425L115.067 116.889L116.083 115.214L115.126 113.999C116.758 114.541 118.506 115.055 120.365 115.52C118.801 115.799 117.156 116.271 115.454 116.997L115.452 116.998L114.96 117.214C114.91 117.237 114.86 117.26 114.81 117.283C114.874 117.189 114.928 117.11 114.968 117.047C114.995 117.006 115.016 116.971 115.033 116.945C115.041 116.932 115.048 116.92 115.053 116.911C115.056 116.907 115.059 116.902 115.061 116.899C115.062 116.897 115.064 116.895 115.065 116.893L115.066 116.891L112.654 115.425Z" fill="url(#paint1_linear_4576_4068)"/>
<path d="M81.0705 117.696C78.8503 115.953 78.851 115.952 78.8518 115.951L78.8533 115.949C78.8544 115.948 78.8552 115.945 78.8565 115.944C78.859 115.941 78.862 115.937 78.8651 115.933L78.9626 115.814C79.0224 115.742 79.1046 115.645 79.209 115.526C79.4181 115.288 79.717 114.963 80.1041 114.576C80.8772 113.805 82.0104 112.781 83.4932 111.725C86.364 109.68 90.5925 107.479 96.0667 106.795L96.6002 106.734L96.6042 106.733C97.7549 106.614 98.8549 106.583 99.903 106.624C99.0402 106.024 98.5562 105.633 98.4652 105.558L96.2717 103.743L97.6404 102.117C97.3944 102.208 97.1048 102.312 96.7739 102.418C95.6956 102.764 94.1697 103.165 92.3344 103.401C88.6676 103.873 83.6631 103.697 78.5565 101.013L78.5552 101.013C73.3544 98.2758 70.4895 93.9278 68.9415 90.3975C68.1648 88.6261 67.7008 87.0207 67.4294 85.8507C67.2932 85.2638 67.204 84.7804 67.1478 84.4336C67.1198 84.2602 67.1002 84.1201 67.0867 84.0179C67.0799 83.9667 67.0744 83.9246 67.0706 83.8926C67.0687 83.8769 67.0674 83.8635 67.0662 83.8526C67.0656 83.8471 67.0652 83.8418 67.0648 83.8375C67.0645 83.8355 67.0638 83.8334 67.0636 83.8317L67.0639 83.8295C67.0638 83.8283 67.0634 83.8271 69.8702 83.5318L67.0629 83.8268L66.8247 81.5586L68.9925 80.8493L69.6736 82.9298C69.0294 80.9613 68.9953 80.8547 68.9944 80.8487L69.0026 80.8456C69.0066 80.8443 69.0117 80.8431 69.0167 80.8414L69.1623 80.7959C69.2521 80.7691 69.3755 80.7346 69.5285 80.6938C69.8343 80.6122 70.2633 80.5069 70.7997 80.4006C71.871 80.1882 73.3816 79.9673 75.2007 79.9128C78.8363 79.8041 83.7668 80.3612 88.8678 83.0456C94.0853 85.7879 96.9333 89.7136 98.4584 92.9622C99.2165 94.5771 99.649 96.0249 99.8941 97.0854C100.017 97.6168 100.093 98.0552 100.141 98.3739C100.164 98.5334 100.18 98.6641 100.191 98.7613C100.197 98.8098 100.201 98.8507 100.204 98.8826C100.205 98.8983 100.207 98.9124 100.208 98.9239C100.208 98.9294 100.209 98.9344 100.209 98.939C100.209 98.9413 100.209 98.944 100.21 98.9461C100.21 98.9471 100.21 98.9486 100.21 98.9491L97.3966 99.1754M81.0705 117.696L78.9 119.501L78.9016 119.503C78.9027 119.504 78.9041 119.506 78.9054 119.508C78.9081 119.511 78.9113 119.515 78.9148 119.519C78.9219 119.527 78.9307 119.538 78.9411 119.551C78.962 119.575 78.9901 119.606 79.0239 119.645C79.092 119.723 79.1863 119.828 79.306 119.957C79.5452 120.214 79.8869 120.567 80.3259 120.98C81.201 121.803 82.4782 122.881 84.1072 123.923C87.3534 126.002 92.1484 128.03 97.9909 127.417L97.9915 127.415C100.316 127.173 102.397 126.597 104.238 125.836C103.214 127.199 102.481 128.431 101.994 129.349C101.738 129.832 101.549 130.231 101.419 130.52C101.354 130.664 101.304 130.782 101.268 130.868C101.25 130.911 101.235 130.947 101.224 130.975C101.219 130.989 101.214 131.001 101.21 131.01C101.208 131.015 101.207 131.02 101.206 131.023L101.202 131.031C101.202 131.032 101.201 131.033 103.836 132.046M81.0705 117.696L78.8984 119.5L77.4425 117.745L78.8503 115.952L81.0705 117.696ZM103.836 132.046L102.295 134.411L102.297 134.412C102.299 134.413 102.3 134.414 102.302 134.415C102.305 134.418 102.31 134.42 102.314 134.423C102.323 134.429 102.336 134.436 102.349 134.445C102.376 134.462 102.412 134.484 102.456 134.511C102.544 134.565 102.665 134.639 102.817 134.727C103.121 134.902 103.553 135.138 104.094 135.403C105.173 135.931 106.71 136.585 108.574 137.101C112.289 138.13 117.47 138.655 122.874 136.35L122.873 136.349C128.184 134.085 131.482 130.31 133.432 127.164C134.407 125.59 135.061 124.151 135.473 123.095C135.679 122.565 135.827 122.128 135.926 121.811C135.975 121.653 136.012 121.525 136.039 121.43C136.052 121.383 136.063 121.344 136.071 121.314C136.075 121.299 136.079 121.285 136.081 121.275C136.083 121.27 136.084 121.265 136.085 121.261C136.085 121.259 136.086 121.257 136.087 121.255L136.087 121.253L133.349 120.563M103.836 132.046L102.293 134.409L100.383 133.162L101.201 131.033L103.836 132.046ZM133.349 120.563C134.913 118.292 134.949 118.239 134.948 118.237C134.948 118.237 134.946 118.235 134.945 118.235C134.944 118.234 134.942 118.233 134.94 118.232C134.936 118.229 134.931 118.226 134.926 118.222C134.917 118.216 134.905 118.208 134.892 118.2C134.865 118.182 134.831 118.159 134.79 118.133C134.708 118.08 134.597 118.011 134.458 117.929C134.324 117.849 134.163 117.756 133.977 117.655C153.084 118.968 179.081 114.027 210.557 91.9918L212.179 90.844L214.477 89.2026L212.835 86.9051L209.971 82.9009L208.33 80.6057L206.034 82.2455C173.928 105.182 148.938 109.022 132.007 107.218C127.664 106.756 123.826 105.916 120.511 104.92C120.728 104.9 120.918 104.88 121.076 104.859C121.236 104.839 121.366 104.819 121.463 104.803C121.511 104.795 121.55 104.787 121.582 104.782C121.598 104.779 121.612 104.777 121.623 104.775C121.629 104.774 121.634 104.772 121.638 104.771C121.641 104.771 121.643 104.77 121.645 104.77L121.648 104.77L121.102 102M133.349 120.563L136.088 121.25L136.564 119.35L134.95 118.238L133.349 120.563ZM121.102 102L123.887 102.457L123.888 102.453C123.888 102.451 123.889 102.449 123.889 102.448C123.89 102.443 123.89 102.439 123.891 102.433C123.893 102.423 123.895 102.41 123.898 102.394C123.902 102.364 123.908 102.323 123.915 102.275C123.928 102.177 123.945 102.045 123.962 101.88C123.997 101.551 124.035 101.09 124.056 100.522C124.098 99.3894 124.072 97.8112 123.803 95.9791C123.265 92.3184 121.742 87.5437 117.773 83.3511L117.392 82.9591C113.425 78.9849 108.654 77.4856 104.955 76.969C103.039 76.7013 101.369 76.6906 100.169 76.7466C99.5665 76.7746 99.0769 76.8199 98.7277 76.8599C98.5533 76.8799 98.4132 76.8983 98.3111 76.913C98.26 76.9204 98.2178 76.9272 98.186 76.9322C98.1702 76.9347 98.1566 76.937 98.1457 76.9388C98.1406 76.9396 98.1359 76.9401 98.1319 76.9408C98.1299 76.9411 98.1277 76.9416 98.126 76.9419L98.123 76.942C98.1219 76.9424 98.1253 76.9664 98.5327 79.3446L98.1211 76.9427L95.875 77.3279L95.778 79.6045L98.5973 79.7247C95.9179 79.61 95.7844 79.6058 95.7777 79.6067L95.7768 79.6154C95.7766 79.6194 95.7768 79.6239 95.7766 79.629C95.7762 79.6394 95.7755 79.6522 95.775 79.667C95.7742 79.6968 95.7737 79.7355 95.7729 79.7823C95.7714 79.876 95.7706 80.0033 95.7726 80.1615C95.7767 80.4779 95.7916 80.9199 95.8342 81.4652C95.9193 82.5542 96.1147 84.0687 96.5542 85.8355C97.3409 88.9978 98.9248 93.0148 102.095 96.8306L101.282 97.7954L100.219 99.057L100.211 98.9519L97.3966 99.1754M121.102 102L123.887 102.459L123.569 104.388L121.651 104.769L121.102 102ZM97.3966 99.1754L98.3678 101.255L98.3663 101.256L97.3966 99.1754ZM112.654 115.425L114.661 113.841L114.659 113.84C114.409 114.038 113.86 114.473 112.654 115.425ZM112.654 115.425L115.067 116.889L116.083 115.214L115.126 113.999C116.758 114.541 118.506 115.055 120.365 115.52C118.801 115.799 117.156 116.271 115.454 116.997L115.452 116.998L114.96 117.214C114.91 117.237 114.86 117.26 114.81 117.283C114.874 117.189 114.928 117.11 114.968 117.047C114.995 117.006 115.016 116.971 115.033 116.945C115.041 116.932 115.048 116.92 115.053 116.911C115.056 116.907 115.059 116.902 115.061 116.899C115.062 116.897 115.064 116.895 115.065 116.893L115.066 116.891L112.654 115.425Z" stroke="#20303F" stroke-width="5.64542"/>
<path d="M263.105 117.696C265.325 115.953 265.324 115.953 265.324 115.952L265.322 115.95C265.321 115.949 265.32 115.946 265.319 115.945C265.317 115.941 265.314 115.938 265.31 115.934L265.213 115.815C265.153 115.743 265.071 115.646 264.966 115.527C264.757 115.289 264.459 114.964 264.071 114.577C263.298 113.805 262.165 112.782 260.682 111.725C257.812 109.68 253.583 107.48 248.109 106.795L247.575 106.734L247.571 106.734C246.421 106.614 245.321 106.583 244.273 106.625C245.135 106.024 245.619 105.633 245.71 105.558L247.904 103.744L246.535 102.118C246.781 102.209 247.071 102.312 247.402 102.419C248.48 102.765 250.006 103.166 251.841 103.402C255.508 103.873 260.513 103.698 265.619 101.014L265.62 101.013C270.821 98.2767 273.686 93.9287 275.234 90.3985C276.011 88.627 276.475 87.0217 276.746 85.8516C276.883 85.2648 276.972 84.7814 277.028 84.4345C277.056 84.2611 277.076 84.1211 277.089 84.0188C277.096 83.9677 277.102 83.9255 277.105 83.8936C277.107 83.8778 277.108 83.8644 277.11 83.8535C277.11 83.848 277.111 83.8427 277.111 83.8384C277.111 83.8364 277.112 83.8343 277.112 83.8326L277.112 83.8304C277.112 83.8293 277.112 83.8281 274.306 83.5327L277.113 83.8277L277.351 81.5595L275.183 80.8503L274.502 82.9307C275.147 80.9623 275.181 80.8556 275.182 80.8496L275.173 80.8465C275.169 80.8452 275.164 80.844 275.159 80.8424L275.014 80.7968C274.924 80.7701 274.8 80.7355 274.647 80.6947C274.342 80.6131 273.913 80.5078 273.376 80.4015C272.305 80.1891 270.794 79.9681 268.975 79.9137C265.34 79.8049 260.409 80.362 255.308 83.0463C250.091 85.7885 247.242 89.7142 245.717 92.9628C244.959 94.5777 244.527 96.0255 244.282 97.086C244.159 97.6174 244.082 98.0558 244.035 98.3745C244.012 98.534 243.995 98.6646 243.985 98.7618C243.979 98.8104 243.975 98.8513 243.972 98.8831C243.97 98.8989 243.969 98.9129 243.968 98.9244C243.968 98.93 243.967 98.935 243.967 98.9395C243.966 98.9419 243.966 98.9445 243.966 98.9466C243.966 98.9476 243.966 98.9492 243.966 98.9497L246.779 99.176M263.105 117.696L265.275 119.502L265.274 119.504C265.273 119.505 265.271 119.507 265.27 119.508C265.267 119.512 265.264 119.515 265.261 119.519C265.254 119.528 265.245 119.539 265.234 119.551C265.213 119.576 265.185 119.607 265.152 119.646C265.083 119.723 264.989 119.829 264.869 119.958C264.63 120.215 264.289 120.568 263.85 120.981C262.974 121.804 261.697 122.881 260.068 123.924C256.822 126.002 252.027 128.031 246.184 127.417L246.184 127.416C243.86 127.173 241.778 126.597 239.938 125.836C240.961 127.2 241.695 128.431 242.181 129.35C242.438 129.833 242.627 130.232 242.756 130.52C242.821 130.665 242.872 130.782 242.908 130.869C242.925 130.912 242.94 130.948 242.951 130.975C242.957 130.989 242.962 131.001 242.965 131.011C242.967 131.016 242.968 131.02 242.97 131.024L242.973 131.031C242.974 131.033 242.974 131.034 240.34 132.046M263.105 117.696L265.277 119.501L266.733 117.746L265.325 115.953L263.105 117.696ZM240.34 132.046L241.88 134.411L241.878 134.412C241.876 134.413 241.875 134.415 241.873 134.416C241.87 134.418 241.866 134.421 241.861 134.424C241.852 134.43 241.84 134.437 241.826 134.445C241.799 134.462 241.763 134.485 241.719 134.512C241.631 134.566 241.511 134.639 241.358 134.727C241.054 134.903 240.623 135.138 240.082 135.403C239.003 135.932 237.465 136.585 235.601 137.102C231.886 138.131 226.705 138.656 221.302 136.35L221.302 136.349C215.991 134.085 212.693 130.31 210.744 127.164C209.768 125.59 209.115 124.152 208.703 123.095C208.496 122.566 208.349 122.128 208.25 121.811C208.2 121.653 208.163 121.525 208.137 121.43C208.124 121.383 208.113 121.344 208.105 121.314C208.101 121.299 208.097 121.285 208.094 121.275C208.093 121.27 208.092 121.265 208.091 121.261C208.09 121.259 208.089 121.257 208.089 121.255L208.089 121.253L210.826 120.563M240.34 132.046L241.882 134.41L243.793 133.163L242.974 131.034L240.34 132.046ZM210.826 120.563C209.262 118.292 209.227 118.239 209.227 118.237C209.228 118.237 209.229 118.236 209.23 118.235C209.232 118.234 209.234 118.233 209.235 118.232C209.239 118.229 209.245 118.226 209.249 118.222C209.259 118.216 209.271 118.208 209.284 118.2C209.31 118.182 209.344 118.16 209.385 118.133C209.468 118.08 209.579 118.011 209.717 117.929C209.852 117.849 210.012 117.756 210.198 117.655C191.092 118.968 165.095 114.026 133.619 91.9911L131.997 90.8432L129.699 89.2019L131.341 86.9043L134.205 82.9002L135.845 80.6051L138.142 82.2448C170.248 105.181 195.238 109.022 212.168 107.219C216.512 106.756 220.349 105.916 223.665 104.92C223.448 104.9 223.258 104.88 223.099 104.86C222.939 104.839 222.809 104.819 222.713 104.803C222.665 104.795 222.625 104.788 222.594 104.782C222.578 104.779 222.564 104.777 222.553 104.775C222.547 104.774 222.542 104.772 222.537 104.771C222.535 104.771 222.532 104.77 222.53 104.77L222.527 104.77L223.074 102M210.826 120.563L208.088 121.25L207.612 119.35L209.226 118.239L210.826 120.563ZM223.074 102L220.288 102.457L220.288 102.453C220.287 102.452 220.287 102.45 220.287 102.448C220.286 102.444 220.285 102.439 220.285 102.434C220.283 102.423 220.28 102.41 220.278 102.395C220.273 102.364 220.268 102.324 220.261 102.275C220.248 102.178 220.231 102.045 220.213 101.88C220.178 101.551 220.141 101.09 220.12 100.522C220.078 99.3896 220.104 97.8115 220.373 95.9793C220.911 92.3187 222.434 87.544 226.403 83.3515L226.784 82.9595C230.751 78.9853 235.522 77.4861 239.221 76.9695C241.137 76.7019 242.807 76.6912 244.007 76.7471C244.609 76.7752 245.099 76.8205 245.448 76.8605C245.623 76.8805 245.763 76.8989 245.865 76.9136C245.916 76.921 245.958 76.9278 245.99 76.9328C246.006 76.9353 246.019 76.9376 246.03 76.9394C246.035 76.9402 246.04 76.9407 246.044 76.9414C246.046 76.9417 246.048 76.9422 246.05 76.9425L246.053 76.9426C246.054 76.943 246.051 76.9669 245.643 79.3452L246.055 76.9433L248.301 77.3285L248.398 79.6051L245.579 79.7253C248.258 79.6106 248.392 79.6064 248.398 79.6073L248.399 79.616C248.399 79.62 248.399 79.6245 248.399 79.6296C248.4 79.64 248.4 79.6528 248.401 79.6676C248.402 79.6974 248.402 79.7361 248.403 79.7829C248.404 79.8766 248.405 80.004 248.403 80.1621C248.399 80.4786 248.384 80.9205 248.342 81.4658C248.257 82.5548 248.061 84.0693 247.622 85.8361C246.835 88.9984 245.251 93.0154 242.081 96.8311L242.893 97.796L243.956 99.0575L243.965 98.9524L246.779 99.176M223.074 102L220.289 102.459L220.607 104.388L222.525 104.769L223.074 102ZM246.779 99.176L245.808 101.255L245.809 101.257L246.779 99.176ZM231.521 115.425L229.514 113.841L229.517 113.84C229.767 114.038 230.315 114.474 231.521 115.425ZM231.521 115.425L229.108 116.89L228.092 115.214L229.05 113.999C227.417 114.541 225.67 115.055 223.811 115.521C225.375 115.799 227.02 116.271 228.722 116.998L228.723 116.998L229.215 117.215C229.265 117.237 229.315 117.261 229.365 117.284C229.301 117.189 229.248 117.11 229.207 117.047C229.181 117.006 229.159 116.972 229.143 116.945C229.135 116.932 229.128 116.921 229.122 116.912C229.119 116.907 229.116 116.903 229.114 116.899C229.113 116.897 229.112 116.895 229.111 116.894L229.11 116.891L231.521 115.425Z" fill="white"/>
<path d="M263.105 117.696C265.325 115.953 265.324 115.953 265.324 115.952L265.322 115.95C265.321 115.949 265.32 115.946 265.319 115.945C265.317 115.941 265.314 115.938 265.31 115.934L265.213 115.815C265.153 115.743 265.071 115.646 264.966 115.527C264.757 115.289 264.459 114.964 264.071 114.577C263.298 113.805 262.165 112.782 260.682 111.725C257.812 109.68 253.583 107.48 248.109 106.795L247.575 106.734L247.571 106.734C246.421 106.614 245.321 106.583 244.273 106.625C245.135 106.024 245.619 105.633 245.71 105.558L247.904 103.744L246.535 102.118C246.781 102.209 247.071 102.312 247.402 102.419C248.48 102.765 250.006 103.166 251.841 103.402C255.508 103.873 260.513 103.698 265.619 101.014L265.62 101.013C270.821 98.2767 273.686 93.9287 275.234 90.3985C276.011 88.627 276.475 87.0217 276.746 85.8516C276.883 85.2648 276.972 84.7814 277.028 84.4345C277.056 84.2611 277.076 84.1211 277.089 84.0188C277.096 83.9677 277.102 83.9255 277.105 83.8936C277.107 83.8778 277.108 83.8644 277.11 83.8535C277.11 83.848 277.111 83.8427 277.111 83.8384C277.111 83.8364 277.112 83.8343 277.112 83.8326L277.112 83.8304C277.112 83.8293 277.112 83.8281 274.306 83.5327L277.113 83.8277L277.351 81.5595L275.183 80.8503L274.502 82.9307C275.147 80.9623 275.181 80.8556 275.182 80.8496L275.173 80.8465C275.169 80.8452 275.164 80.844 275.159 80.8424L275.014 80.7968C274.924 80.7701 274.8 80.7355 274.647 80.6947C274.342 80.6131 273.913 80.5078 273.376 80.4015C272.305 80.1891 270.794 79.9681 268.975 79.9137C265.34 79.8049 260.409 80.362 255.308 83.0463C250.091 85.7885 247.242 89.7142 245.717 92.9628C244.959 94.5777 244.527 96.0255 244.282 97.086C244.159 97.6174 244.082 98.0558 244.035 98.3745C244.012 98.534 243.995 98.6646 243.985 98.7618C243.979 98.8104 243.975 98.8513 243.972 98.8831C243.97 98.8989 243.969 98.9129 243.968 98.9244C243.968 98.93 243.967 98.935 243.967 98.9395C243.966 98.9419 243.966 98.9445 243.966 98.9466C243.966 98.9476 243.966 98.9492 243.966 98.9497L246.779 99.176M263.105 117.696L265.275 119.502L265.274 119.504C265.273 119.505 265.271 119.507 265.27 119.508C265.267 119.512 265.264 119.515 265.261 119.519C265.254 119.528 265.245 119.539 265.234 119.551C265.213 119.576 265.185 119.607 265.152 119.646C265.083 119.723 264.989 119.829 264.869 119.958C264.63 120.215 264.289 120.568 263.85 120.981C262.974 121.804 261.697 122.881 260.068 123.924C256.822 126.002 252.027 128.031 246.184 127.417L246.184 127.416C243.86 127.173 241.778 126.597 239.938 125.836C240.961 127.2 241.695 128.431 242.181 129.35C242.438 129.833 242.627 130.232 242.756 130.52C242.821 130.665 242.872 130.782 242.908 130.869C242.925 130.912 242.94 130.948 242.951 130.975C242.957 130.989 242.962 131.001 242.965 131.011C242.967 131.016 242.968 131.02 242.97 131.024L242.973 131.031C242.974 131.033 242.974 131.034 240.34 132.046M263.105 117.696L265.277 119.501L266.733 117.746L265.325 115.953L263.105 117.696ZM240.34 132.046L241.88 134.411L241.878 134.412C241.876 134.413 241.875 134.415 241.873 134.416C241.87 134.418 241.866 134.421 241.861 134.424C241.852 134.43 241.84 134.437 241.826 134.445C241.799 134.462 241.763 134.485 241.719 134.512C241.631 134.566 241.511 134.639 241.358 134.727C241.054 134.903 240.623 135.138 240.082 135.403C239.003 135.932 237.465 136.585 235.601 137.102C231.886 138.131 226.705 138.656 221.302 136.35L221.302 136.349C215.991 134.085 212.693 130.31 210.744 127.164C209.768 125.59 209.115 124.152 208.703 123.095C208.496 122.566 208.349 122.128 208.25 121.811C208.2 121.653 208.163 121.525 208.137 121.43C208.124 121.383 208.113 121.344 208.105 121.314C208.101 121.299 208.097 121.285 208.094 121.275C208.093 121.27 208.092 121.265 208.091 121.261C208.09 121.259 208.089 121.257 208.089 121.255L208.089 121.253L210.826 120.563M240.34 132.046L241.882 134.41L243.793 133.163L242.974 131.034L240.34 132.046ZM210.826 120.563C209.262 118.292 209.227 118.239 209.227 118.237C209.228 118.237 209.229 118.236 209.23 118.235C209.232 118.234 209.234 118.233 209.235 118.232C209.239 118.229 209.245 118.226 209.249 118.222C209.259 118.216 209.271 118.208 209.284 118.2C209.31 118.182 209.344 118.16 209.385 118.133C209.468 118.08 209.579 118.011 209.717 117.929C209.852 117.849 210.012 117.756 210.198 117.655C191.092 118.968 165.095 114.026 133.619 91.9911L131.997 90.8432L129.699 89.2019L131.341 86.9043L134.205 82.9002L135.845 80.6051L138.142 82.2448C170.248 105.181 195.238 109.022 212.168 107.219C216.512 106.756 220.349 105.916 223.665 104.92C223.448 104.9 223.258 104.88 223.099 104.86C222.939 104.839 222.809 104.819 222.713 104.803C222.665 104.795 222.625 104.788 222.594 104.782C222.578 104.779 222.564 104.777 222.553 104.775C222.547 104.774 222.542 104.772 222.537 104.771C222.535 104.771 222.532 104.77 222.53 104.77L222.527 104.77L223.074 102M210.826 120.563L208.088 121.25L207.612 119.35L209.226 118.239L210.826 120.563ZM223.074 102L220.288 102.457L220.288 102.453C220.287 102.452 220.287 102.45 220.287 102.448C220.286 102.444 220.285 102.439 220.285 102.434C220.283 102.423 220.28 102.41 220.278 102.395C220.273 102.364 220.268 102.324 220.261 102.275C220.248 102.178 220.231 102.045 220.213 101.88C220.178 101.551 220.141 101.09 220.12 100.522C220.078 99.3896 220.104 97.8115 220.373 95.9793C220.911 92.3187 222.434 87.544 226.403 83.3515L226.784 82.9595C230.751 78.9853 235.522 77.4861 239.221 76.9695C241.137 76.7019 242.807 76.6912 244.007 76.7471C244.609 76.7752 245.099 76.8205 245.448 76.8605C245.623 76.8805 245.763 76.8989 245.865 76.9136C245.916 76.921 245.958 76.9278 245.99 76.9328C246.006 76.9353 246.019 76.9376 246.03 76.9394C246.035 76.9402 246.04 76.9407 246.044 76.9414C246.046 76.9417 246.048 76.9422 246.05 76.9425L246.053 76.9426C246.054 76.943 246.051 76.9669 245.643 79.3452L246.055 76.9433L248.301 77.3285L248.398 79.6051L245.579 79.7253C248.258 79.6106 248.392 79.6064 248.398 79.6073L248.399 79.616C248.399 79.62 248.399 79.6245 248.399 79.6296C248.4 79.64 248.4 79.6528 248.401 79.6676C248.402 79.6974 248.402 79.7361 248.403 79.7829C248.404 79.8766 248.405 80.004 248.403 80.1621C248.399 80.4786 248.384 80.9205 248.342 81.4658C248.257 82.5548 248.061 84.0693 247.622 85.8361C246.835 88.9984 245.251 93.0154 242.081 96.8311L242.893 97.796L243.956 99.0575L243.965 98.9524L246.779 99.176M223.074 102L220.289 102.459L220.607 104.388L222.525 104.769L223.074 102ZM246.779 99.176L245.808 101.255L245.809 101.257L246.779 99.176ZM231.521 115.425L229.514 113.841L229.517 113.84C229.767 114.038 230.315 114.474 231.521 115.425ZM231.521 115.425L229.108 116.89L228.092 115.214L229.05 113.999C227.417 114.541 225.67 115.055 223.811 115.521C225.375 115.799 227.02 116.271 228.722 116.998L228.723 116.998L229.215 117.215C229.265 117.237 229.315 117.261 229.365 117.284C229.301 117.189 229.248 117.11 229.207 117.047C229.181 117.006 229.159 116.972 229.143 116.945C229.135 116.932 229.128 116.921 229.122 116.912C229.119 116.907 229.116 116.903 229.114 116.899C229.113 116.897 229.112 116.895 229.111 116.894L229.11 116.891L231.521 115.425Z" fill="#CCCCCC"/>
<path d="M263.105 117.696C265.325 115.953 265.324 115.953 265.324 115.952L265.322 115.95C265.321 115.949 265.32 115.946 265.319 115.945C265.317 115.941 265.314 115.938 265.31 115.934L265.213 115.815C265.153 115.743 265.071 115.646 264.966 115.527C264.757 115.289 264.459 114.964 264.071 114.577C263.298 113.805 262.165 112.782 260.682 111.725C257.812 109.68 253.583 107.48 248.109 106.795L247.575 106.734L247.571 106.734C246.421 106.614 245.321 106.583 244.273 106.625C245.135 106.024 245.619 105.633 245.71 105.558L247.904 103.744L246.535 102.118C246.781 102.209 247.071 102.312 247.402 102.419C248.48 102.765 250.006 103.166 251.841 103.402C255.508 103.873 260.513 103.698 265.619 101.014L265.62 101.013C270.821 98.2767 273.686 93.9287 275.234 90.3985C276.011 88.627 276.475 87.0217 276.746 85.8516C276.883 85.2648 276.972 84.7814 277.028 84.4345C277.056 84.2611 277.076 84.1211 277.089 84.0188C277.096 83.9677 277.102 83.9255 277.105 83.8936C277.107 83.8778 277.108 83.8644 277.11 83.8535C277.11 83.848 277.111 83.8427 277.111 83.8384C277.111 83.8364 277.112 83.8343 277.112 83.8326L277.112 83.8304C277.112 83.8293 277.112 83.8281 274.306 83.5327L277.113 83.8277L277.351 81.5595L275.183 80.8503L274.502 82.9307C275.147 80.9623 275.181 80.8556 275.182 80.8496L275.173 80.8465C275.169 80.8452 275.164 80.844 275.159 80.8424L275.014 80.7968C274.924 80.7701 274.8 80.7355 274.647 80.6947C274.342 80.6131 273.913 80.5078 273.376 80.4015C272.305 80.1891 270.794 79.9681 268.975 79.9137C265.34 79.8049 260.409 80.362 255.308 83.0463C250.091 85.7885 247.242 89.7142 245.717 92.9628C244.959 94.5777 244.527 96.0255 244.282 97.086C244.159 97.6174 244.082 98.0558 244.035 98.3745C244.012 98.534 243.995 98.6646 243.985 98.7618C243.979 98.8104 243.975 98.8513 243.972 98.8831C243.97 98.8989 243.969 98.9129 243.968 98.9244C243.968 98.93 243.967 98.935 243.967 98.9395C243.966 98.9419 243.966 98.9445 243.966 98.9466C243.966 98.9476 243.966 98.9492 243.966 98.9497L246.779 99.176M263.105 117.696L265.275 119.502L265.274 119.504C265.273 119.505 265.271 119.507 265.27 119.508C265.267 119.512 265.264 119.515 265.261 119.519C265.254 119.528 265.245 119.539 265.234 119.551C265.213 119.576 265.185 119.607 265.152 119.646C265.083 119.723 264.989 119.829 264.869 119.958C264.63 120.215 264.289 120.568 263.85 120.981C262.974 121.804 261.697 122.881 260.068 123.924C256.822 126.002 252.027 128.031 246.184 127.417L246.184 127.416C243.86 127.173 241.778 126.597 239.938 125.836C240.961 127.2 241.695 128.431 242.181 129.35C242.438 129.833 242.627 130.232 242.756 130.52C242.821 130.665 242.872 130.782 242.908 130.869C242.925 130.912 242.94 130.948 242.951 130.975C242.957 130.989 242.962 131.001 242.965 131.011C242.967 131.016 242.968 131.02 242.97 131.024L242.973 131.031C242.974 131.033 242.974 131.034 240.34 132.046M263.105 117.696L265.277 119.501L266.733 117.746L265.325 115.953L263.105 117.696ZM240.34 132.046L241.88 134.411L241.878 134.412C241.876 134.413 241.875 134.415 241.873 134.416C241.87 134.418 241.866 134.421 241.861 134.424C241.852 134.43 241.84 134.437 241.826 134.445C241.799 134.462 241.763 134.485 241.719 134.512C241.631 134.566 241.511 134.639 241.358 134.727C241.054 134.903 240.623 135.138 240.082 135.403C239.003 135.932 237.465 136.585 235.601 137.102C231.886 138.131 226.705 138.656 221.302 136.35L221.302 136.349C215.991 134.085 212.693 130.31 210.744 127.164C209.768 125.59 209.115 124.152 208.703 123.095C208.496 122.566 208.349 122.128 208.25 121.811C208.2 121.653 208.163 121.525 208.137 121.43C208.124 121.383 208.113 121.344 208.105 121.314C208.101 121.299 208.097 121.285 208.094 121.275C208.093 121.27 208.092 121.265 208.091 121.261C208.09 121.259 208.089 121.257 208.089 121.255L208.089 121.253L210.826 120.563M240.34 132.046L241.882 134.41L243.793 133.163L242.974 131.034L240.34 132.046ZM210.826 120.563C209.262 118.292 209.227 118.239 209.227 118.237C209.228 118.237 209.229 118.236 209.23 118.235C209.232 118.234 209.234 118.233 209.235 118.232C209.239 118.229 209.245 118.226 209.249 118.222C209.259 118.216 209.271 118.208 209.284 118.2C209.31 118.182 209.344 118.16 209.385 118.133C209.468 118.08 209.579 118.011 209.717 117.929C209.852 117.849 210.012 117.756 210.198 117.655C191.092 118.968 165.095 114.026 133.619 91.9911L131.997 90.8432L129.699 89.2019L131.341 86.9043L134.205 82.9002L135.845 80.6051L138.142 82.2448C170.248 105.181 195.238 109.022 212.168 107.219C216.512 106.756 220.349 105.916 223.665 104.92C223.448 104.9 223.258 104.88 223.099 104.86C222.939 104.839 222.809 104.819 222.713 104.803C222.665 104.795 222.625 104.788 222.594 104.782C222.578 104.779 222.564 104.777 222.553 104.775C222.547 104.774 222.542 104.772 222.537 104.771C222.535 104.771 222.532 104.77 222.53 104.77L222.527 104.77L223.074 102M210.826 120.563L208.088 121.25L207.612 119.35L209.226 118.239L210.826 120.563ZM223.074 102L220.288 102.457L220.288 102.453C220.287 102.452 220.287 102.45 220.287 102.448C220.286 102.444 220.285 102.439 220.285 102.434C220.283 102.423 220.28 102.41 220.278 102.395C220.273 102.364 220.268 102.324 220.261 102.275C220.248 102.178 220.231 102.045 220.213 101.88C220.178 101.551 220.141 101.09 220.12 100.522C220.078 99.3896 220.104 97.8115 220.373 95.9793C220.911 92.3187 222.434 87.544 226.403 83.3515L226.784 82.9595C230.751 78.9853 235.522 77.4861 239.221 76.9695C241.137 76.7019 242.807 76.6912 244.007 76.7471C244.609 76.7752 245.099 76.8205 245.448 76.8605C245.623 76.8805 245.763 76.8989 245.865 76.9136C245.916 76.921 245.958 76.9278 245.99 76.9328C246.006 76.9353 246.019 76.9376 246.03 76.9394C246.035 76.9402 246.04 76.9407 246.044 76.9414C246.046 76.9417 246.048 76.9422 246.05 76.9425L246.053 76.9426C246.054 76.943 246.051 76.9669 245.643 79.3452L246.055 76.9433L248.301 77.3285L248.398 79.6051L245.579 79.7253C248.258 79.6106 248.392 79.6064 248.398 79.6073L248.399 79.616C248.399 79.62 248.399 79.6245 248.399 79.6296C248.4 79.64 248.4 79.6528 248.401 79.6676C248.402 79.6974 248.402 79.7361 248.403 79.7829C248.404 79.8766 248.405 80.004 248.403 80.1621C248.399 80.4786 248.384 80.9205 248.342 81.4658C248.257 82.5548 248.061 84.0693 247.622 85.8361C246.835 88.9984 245.251 93.0154 242.081 96.8311L242.893 97.796L243.956 99.0575L243.965 98.9524L246.779 99.176M223.074 102L220.289 102.459L220.607 104.388L222.525 104.769L223.074 102ZM246.779 99.176L245.808 101.255L245.809 101.257L246.779 99.176ZM231.521 115.425L229.514 113.841L229.517 113.84C229.767 114.038 230.315 114.474 231.521 115.425ZM231.521 115.425L229.108 116.89L228.092 115.214L229.05 113.999C227.417 114.541 225.67 115.055 223.811 115.521C225.375 115.799 227.02 116.271 228.722 116.998L228.723 116.998L229.215 117.215C229.265 117.237 229.315 117.261 229.365 117.284C229.301 117.189 229.248 117.11 229.207 117.047C229.181 117.006 229.159 116.972 229.143 116.945C229.135 116.932 229.128 116.921 229.122 116.912C229.119 116.907 229.116 116.903 229.114 116.899C229.113 116.897 229.112 116.895 229.111 116.894L229.11 116.891L231.521 115.425Z" fill="url(#paint2_linear_4576_4068)"/>
<path d="M263.105 117.696C265.325 115.953 265.324 115.953 265.324 115.952L265.322 115.95C265.321 115.949 265.32 115.946 265.319 115.945C265.317 115.941 265.314 115.938 265.31 115.934L265.213 115.815C265.153 115.743 265.071 115.646 264.966 115.527C264.757 115.289 264.459 114.964 264.071 114.577C263.298 113.805 262.165 112.782 260.682 111.725C257.812 109.68 253.583 107.48 248.109 106.795L247.575 106.734L247.571 106.734C246.421 106.614 245.321 106.583 244.273 106.625C245.135 106.024 245.619 105.633 245.71 105.558L247.904 103.744L246.535 102.118C246.781 102.209 247.071 102.312 247.402 102.419C248.48 102.765 250.006 103.166 251.841 103.402C255.508 103.873 260.513 103.698 265.619 101.014L265.62 101.013C270.821 98.2767 273.686 93.9287 275.234 90.3985C276.011 88.627 276.475 87.0217 276.746 85.8516C276.883 85.2648 276.972 84.7814 277.028 84.4345C277.056 84.2611 277.076 84.1211 277.089 84.0188C277.096 83.9677 277.102 83.9255 277.105 83.8936C277.107 83.8778 277.108 83.8644 277.11 83.8535C277.11 83.848 277.111 83.8427 277.111 83.8384C277.111 83.8364 277.112 83.8343 277.112 83.8326L277.112 83.8304C277.112 83.8293 277.112 83.8281 274.306 83.5327L277.113 83.8277L277.351 81.5595L275.183 80.8503L274.502 82.9307C275.147 80.9623 275.181 80.8556 275.182 80.8496L275.173 80.8465C275.169 80.8452 275.164 80.844 275.159 80.8424L275.014 80.7968C274.924 80.7701 274.8 80.7355 274.647 80.6947C274.342 80.6131 273.913 80.5078 273.376 80.4015C272.305 80.1891 270.794 79.9681 268.975 79.9137C265.34 79.8049 260.409 80.362 255.308 83.0463C250.091 85.7885 247.242 89.7142 245.717 92.9628C244.959 94.5777 244.527 96.0255 244.282 97.086C244.159 97.6174 244.082 98.0558 244.035 98.3745C244.012 98.534 243.995 98.6646 243.985 98.7618C243.979 98.8104 243.975 98.8513 243.972 98.8831C243.97 98.8989 243.969 98.9129 243.968 98.9244C243.968 98.93 243.967 98.935 243.967 98.9395C243.966 98.9419 243.966 98.9445 243.966 98.9466C243.966 98.9476 243.966 98.9492 243.966 98.9497L246.779 99.176M263.105 117.696L265.275 119.502L265.274 119.504C265.273 119.505 265.271 119.507 265.27 119.508C265.267 119.512 265.264 119.515 265.261 119.519C265.254 119.528 265.245 119.539 265.234 119.551C265.213 119.576 265.185 119.607 265.152 119.646C265.083 119.723 264.989 119.829 264.869 119.958C264.63 120.215 264.289 120.568 263.85 120.981C262.974 121.804 261.697 122.881 260.068 123.924C256.822 126.002 252.027 128.031 246.184 127.417L246.184 127.416C243.86 127.173 241.778 126.597 239.938 125.836C240.961 127.2 241.695 128.431 242.181 129.35C242.438 129.833 242.627 130.232 242.756 130.52C242.821 130.665 242.872 130.782 242.908 130.869C242.925 130.912 242.94 130.948 242.951 130.975C242.957 130.989 242.962 131.001 242.965 131.011C242.967 131.016 242.968 131.02 242.97 131.024L242.973 131.031C242.974 131.033 242.974 131.034 240.34 132.046M263.105 117.696L265.277 119.501L266.733 117.746L265.325 115.953L263.105 117.696ZM240.34 132.046L241.88 134.411L241.878 134.412C241.876 134.413 241.875 134.415 241.873 134.416C241.87 134.418 241.866 134.421 241.861 134.424C241.852 134.43 241.84 134.437 241.826 134.445C241.799 134.462 241.763 134.485 241.719 134.512C241.631 134.566 241.511 134.639 241.358 134.727C241.054 134.903 240.623 135.138 240.082 135.403C239.003 135.932 237.465 136.585 235.601 137.102C231.886 138.131 226.705 138.656 221.302 136.35L221.302 136.349C215.991 134.085 212.693 130.31 210.744 127.164C209.768 125.59 209.115 124.152 208.703 123.095C208.496 122.566 208.349 122.128 208.25 121.811C208.2 121.653 208.163 121.525 208.137 121.43C208.124 121.383 208.113 121.344 208.105 121.314C208.101 121.299 208.097 121.285 208.094 121.275C208.093 121.27 208.092 121.265 208.091 121.261C208.09 121.259 208.089 121.257 208.089 121.255L208.089 121.253L210.826 120.563M240.34 132.046L241.882 134.41L243.793 133.163L242.974 131.034L240.34 132.046ZM210.826 120.563C209.262 118.292 209.227 118.239 209.227 118.237C209.228 118.237 209.229 118.236 209.23 118.235C209.232 118.234 209.234 118.233 209.235 118.232C209.239 118.229 209.245 118.226 209.249 118.222C209.259 118.216 209.271 118.208 209.284 118.2C209.31 118.182 209.344 118.16 209.385 118.133C209.468 118.08 209.579 118.011 209.717 117.929C209.852 117.849 210.012 117.756 210.198 117.655C191.092 118.968 165.095 114.026 133.619 91.9911L131.997 90.8432L129.699 89.2019L131.341 86.9043L134.205 82.9002L135.845 80.6051L138.142 82.2448C170.248 105.181 195.238 109.022 212.168 107.219C216.512 106.756 220.349 105.916 223.665 104.92C223.448 104.9 223.258 104.88 223.099 104.86C222.939 104.839 222.809 104.819 222.713 104.803C222.665 104.795 222.625 104.788 222.594 104.782C222.578 104.779 222.564 104.777 222.553 104.775C222.547 104.774 222.542 104.772 222.537 104.771C222.535 104.771 222.532 104.77 222.53 104.77L222.527 104.77L223.074 102M210.826 120.563L208.088 121.25L207.612 119.35L209.226 118.239L210.826 120.563ZM223.074 102L220.288 102.457L220.288 102.453C220.287 102.452 220.287 102.45 220.287 102.448C220.286 102.444 220.285 102.439 220.285 102.434C220.283 102.423 220.28 102.41 220.278 102.395C220.273 102.364 220.268 102.324 220.261 102.275C220.248 102.178 220.231 102.045 220.213 101.88C220.178 101.551 220.141 101.09 220.12 100.522C220.078 99.3896 220.104 97.8115 220.373 95.9793C220.911 92.3187 222.434 87.544 226.403 83.3515L226.784 82.9595C230.751 78.9853 235.522 77.4861 239.221 76.9695C241.137 76.7019 242.807 76.6912 244.007 76.7471C244.609 76.7752 245.099 76.8205 245.448 76.8605C245.623 76.8805 245.763 76.8989 245.865 76.9136C245.916 76.921 245.958 76.9278 245.99 76.9328C246.006 76.9353 246.019 76.9376 246.03 76.9394C246.035 76.9402 246.04 76.9407 246.044 76.9414C246.046 76.9417 246.048 76.9422 246.05 76.9425L246.053 76.9426C246.054 76.943 246.051 76.9669 245.643 79.3452L246.055 76.9433L248.301 77.3285L248.398 79.6051L245.579 79.7253C248.258 79.6106 248.392 79.6064 248.398 79.6073L248.399 79.616C248.399 79.62 248.399 79.6245 248.399 79.6296C248.4 79.64 248.4 79.6528 248.401 79.6676C248.402 79.6974 248.402 79.7361 248.403 79.7829C248.404 79.8766 248.405 80.004 248.403 80.1621C248.399 80.4786 248.384 80.9205 248.342 81.4658C248.257 82.5548 248.061 84.0693 247.622 85.8361C246.835 88.9984 245.251 93.0154 242.081 96.8311L242.893 97.796L243.956 99.0575L243.965 98.9524L246.779 99.176M223.074 102L220.289 102.459L220.607 104.388L222.525 104.769L223.074 102ZM246.779 99.176L245.808 101.255L245.809 101.257L246.779 99.176ZM231.521 115.425L229.514 113.841L229.517 113.84C229.767 114.038 230.315 114.474 231.521 115.425ZM231.521 115.425L229.108 116.89L228.092 115.214L229.05 113.999C227.417 114.541 225.67 115.055 223.811 115.521C225.375 115.799 227.02 116.271 228.722 116.998L228.723 116.998L229.215 117.215C229.265 117.237 229.315 117.261 229.365 117.284C229.301 117.189 229.248 117.11 229.207 117.047C229.181 117.006 229.159 116.972 229.143 116.945C229.135 116.932 229.128 116.921 229.122 116.912C229.119 116.907 229.116 116.903 229.114 116.899C229.113 116.897 229.112 116.895 229.111 116.894L229.11 116.891L231.521 115.425Z" fill="url(#paint3_linear_4576_4068)"/>
<path d="M263.105 117.696C265.325 115.953 265.324 115.953 265.324 115.952L265.322 115.95C265.321 115.949 265.32 115.946 265.319 115.945C265.317 115.941 265.314 115.938 265.31 115.934L265.213 115.815C265.153 115.743 265.071 115.646 264.966 115.527C264.757 115.289 264.459 114.964 264.071 114.577C263.298 113.805 262.165 112.782 260.682 111.725C257.812 109.68 253.583 107.48 248.109 106.795L247.575 106.734L247.571 106.734C246.421 106.614 245.321 106.583 244.273 106.625C245.135 106.024 245.619 105.633 245.71 105.558L247.904 103.744L246.535 102.118C246.781 102.209 247.071 102.312 247.402 102.419C248.48 102.765 250.006 103.166 251.841 103.402C255.508 103.873 260.513 103.698 265.619 101.014L265.62 101.013C270.821 98.2767 273.686 93.9287 275.234 90.3985C276.011 88.627 276.475 87.0217 276.746 85.8516C276.883 85.2648 276.972 84.7814 277.028 84.4345C277.056 84.2611 277.076 84.1211 277.089 84.0188C277.096 83.9677 277.102 83.9255 277.105 83.8936C277.107 83.8778 277.108 83.8644 277.11 83.8535C277.11 83.848 277.111 83.8427 277.111 83.8384C277.111 83.8364 277.112 83.8343 277.112 83.8326L277.112 83.8304C277.112 83.8293 277.112 83.8281 274.306 83.5327L277.113 83.8277L277.351 81.5595L275.183 80.8503L274.502 82.9307C275.147 80.9623 275.181 80.8556 275.182 80.8496L275.173 80.8465C275.169 80.8452 275.164 80.844 275.159 80.8424L275.014 80.7968C274.924 80.7701 274.8 80.7355 274.647 80.6947C274.342 80.6131 273.913 80.5078 273.376 80.4015C272.305 80.1891 270.794 79.9681 268.975 79.9137C265.34 79.8049 260.409 80.362 255.308 83.0463C250.091 85.7885 247.242 89.7142 245.717 92.9628C244.959 94.5777 244.527 96.0255 244.282 97.086C244.159 97.6174 244.082 98.0558 244.035 98.3745C244.012 98.534 243.995 98.6646 243.985 98.7618C243.979 98.8104 243.975 98.8513 243.972 98.8831C243.97 98.8989 243.969 98.9129 243.968 98.9244C243.968 98.93 243.967 98.935 243.967 98.9395C243.966 98.9419 243.966 98.9445 243.966 98.9466C243.966 98.9476 243.966 98.9492 243.966 98.9497L246.779 99.176M263.105 117.696L265.275 119.502L265.274 119.504C265.273 119.505 265.271 119.507 265.27 119.508C265.267 119.512 265.264 119.515 265.261 119.519C265.254 119.528 265.245 119.539 265.234 119.551C265.213 119.576 265.185 119.607 265.152 119.646C265.083 119.723 264.989 119.829 264.869 119.958C264.63 120.215 264.289 120.568 263.85 120.981C262.974 121.804 261.697 122.881 260.068 123.924C256.822 126.002 252.027 128.031 246.184 127.417L246.184 127.416C243.86 127.173 241.778 126.597 239.938 125.836C240.961 127.2 241.695 128.431 242.181 129.35C242.438 129.833 242.627 130.232 242.756 130.52C242.821 130.665 242.872 130.782 242.908 130.869C242.925 130.912 242.94 130.948 242.951 130.975C242.957 130.989 242.962 131.001 242.965 131.011C242.967 131.016 242.968 131.02 242.97 131.024L242.973 131.031C242.974 131.033 242.974 131.034 240.34 132.046M263.105 117.696L265.277 119.501L266.733 117.746L265.325 115.953L263.105 117.696ZM240.34 132.046L241.88 134.411L241.878 134.412C241.876 134.413 241.875 134.415 241.873 134.416C241.87 134.418 241.866 134.421 241.861 134.424C241.852 134.43 241.84 134.437 241.826 134.445C241.799 134.462 241.763 134.485 241.719 134.512C241.631 134.566 241.511 134.639 241.358 134.727C241.054 134.903 240.623 135.138 240.082 135.403C239.003 135.932 237.465 136.585 235.601 137.102C231.886 138.131 226.705 138.656 221.302 136.35L221.302 136.349C215.991 134.085 212.693 130.31 210.744 127.164C209.768 125.59 209.115 124.152 208.703 123.095C208.496 122.566 208.349 122.128 208.25 121.811C208.2 121.653 208.163 121.525 208.137 121.43C208.124 121.383 208.113 121.344 208.105 121.314C208.101 121.299 208.097 121.285 208.094 121.275C208.093 121.27 208.092 121.265 208.091 121.261C208.09 121.259 208.089 121.257 208.089 121.255L208.089 121.253L210.826 120.563M240.34 132.046L241.882 134.41L243.793 133.163L242.974 131.034L240.34 132.046ZM210.826 120.563C209.262 118.292 209.227 118.239 209.227 118.237C209.228 118.237 209.229 118.236 209.23 118.235C209.232 118.234 209.234 118.233 209.235 118.232C209.239 118.229 209.245 118.226 209.249 118.222C209.259 118.216 209.271 118.208 209.284 118.2C209.31 118.182 209.344 118.16 209.385 118.133C209.468 118.08 209.579 118.011 209.717 117.929C209.852 117.849 210.012 117.756 210.198 117.655C191.092 118.968 165.095 114.026 133.619 91.9911L131.997 90.8432L129.699 89.2019L131.341 86.9043L134.205 82.9002L135.845 80.6051L138.142 82.2448C170.248 105.181 195.238 109.022 212.168 107.219C216.512 106.756 220.349 105.916 223.665 104.92C223.448 104.9 223.258 104.88 223.099 104.86C222.939 104.839 222.809 104.819 222.713 104.803C222.665 104.795 222.625 104.788 222.594 104.782C222.578 104.779 222.564 104.777 222.553 104.775C222.547 104.774 222.542 104.772 222.537 104.771C222.535 104.771 222.532 104.77 222.53 104.77L222.527 104.77L223.074 102M210.826 120.563L208.088 121.25L207.612 119.35L209.226 118.239L210.826 120.563ZM223.074 102L220.288 102.457L220.288 102.453C220.287 102.452 220.287 102.45 220.287 102.448C220.286 102.444 220.285 102.439 220.285 102.434C220.283 102.423 220.28 102.41 220.278 102.395C220.273 102.364 220.268 102.324 220.261 102.275C220.248 102.178 220.231 102.045 220.213 101.88C220.178 101.551 220.141 101.09 220.12 100.522C220.078 99.3896 220.104 97.8115 220.373 95.9793C220.911 92.3187 222.434 87.544 226.403 83.3515L226.784 82.9595C230.751 78.9853 235.522 77.4861 239.221 76.9695C241.137 76.7019 242.807 76.6912 244.007 76.7471C244.609 76.7752 245.099 76.8205 245.448 76.8605C245.623 76.8805 245.763 76.8989 245.865 76.9136C245.916 76.921 245.958 76.9278 245.99 76.9328C246.006 76.9353 246.019 76.9376 246.03 76.9394C246.035 76.9402 246.04 76.9407 246.044 76.9414C246.046 76.9417 246.048 76.9422 246.05 76.9425L246.053 76.9426C246.054 76.943 246.051 76.9669 245.643 79.3452L246.055 76.9433L248.301 77.3285L248.398 79.6051L245.579 79.7253C248.258 79.6106 248.392 79.6064 248.398 79.6073L248.399 79.616C248.399 79.62 248.399 79.6245 248.399 79.6296C248.4 79.64 248.4 79.6528 248.401 79.6676C248.402 79.6974 248.402 79.7361 248.403 79.7829C248.404 79.8766 248.405 80.004 248.403 80.1621C248.399 80.4786 248.384 80.9205 248.342 81.4658C248.257 82.5548 248.061 84.0693 247.622 85.8361C246.835 88.9984 245.251 93.0154 242.081 96.8311L242.893 97.796L243.956 99.0575L243.965 98.9524L246.779 99.176M223.074 102L220.289 102.459L220.607 104.388L222.525 104.769L223.074 102ZM246.779 99.176L245.808 101.255L245.809 101.257L246.779 99.176ZM231.521 115.425L229.514 113.841L229.517 113.84C229.767 114.038 230.315 114.474 231.521 115.425ZM231.521 115.425L229.108 116.89L228.092 115.214L229.05 113.999C227.417 114.541 225.67 115.055 223.811 115.521C225.375 115.799 227.02 116.271 228.722 116.998L228.723 116.998L229.215 117.215C229.265 117.237 229.315 117.261 229.365 117.284C229.301 117.189 229.248 117.11 229.207 117.047C229.181 117.006 229.159 116.972 229.143 116.945C229.135 116.932 229.128 116.921 229.122 116.912C229.119 116.907 229.116 116.903 229.114 116.899C229.113 116.897 229.112 116.895 229.111 116.894L229.11 116.891L231.521 115.425Z" stroke="#20303F" stroke-width="5.64542"/>
<path d="M132.955 82.7686C144.819 61.6594 171.428 53.7478 192.954 65.1387L193.969 65.6924C214.743 77.3679 222.735 103.323 212.126 124.662L211.599 125.691C200.208 147.218 173.758 155.643 152.075 144.863L151.046 144.336C129.178 132.764 120.83 105.651 132.401 83.7832L132.955 82.7686Z" fill="white"/>
<path d="M132.955 82.7686C144.819 61.6594 171.428 53.7478 192.954 65.1387L193.969 65.6924C214.743 77.3679 222.735 103.323 212.126 124.662L211.599 125.691C200.208 147.218 173.758 155.643 152.075 144.863L151.046 144.336C129.178 132.764 120.83 105.651 132.401 83.7832L132.955 82.7686Z" fill="#CCCCCC"/>
<path d="M132.955 82.7686C144.819 61.6594 171.428 53.7478 192.954 65.1387L193.969 65.6924C214.743 77.3679 222.735 103.323 212.126 124.662L211.599 125.691C200.208 147.218 173.758 155.643 152.075 144.863L151.046 144.336C129.178 132.764 120.83 105.651 132.401 83.7832L132.955 82.7686Z" fill="url(#paint4_linear_4576_4068)"/>
<path d="M132.955 82.7686C144.819 61.6594 171.428 53.7478 192.954 65.1387L193.969 65.6924C214.743 77.3679 222.735 103.323 212.126 124.662L211.599 125.691C200.208 147.218 173.758 155.643 152.075 144.863L151.046 144.336C129.178 132.764 120.83 105.651 132.401 83.7832L132.955 82.7686Z" fill="url(#paint5_linear_4576_4068)"/>
<path d="M132.955 82.7686C144.819 61.6594 171.428 53.7478 192.954 65.1387L193.969 65.6924C214.743 77.3679 222.735 103.323 212.126 124.662L211.599 125.691C200.208 147.218 173.758 155.643 152.075 144.863L151.046 144.336C129.178 132.764 120.83 105.651 132.401 83.7832L132.955 82.7686Z" stroke="#20303F" stroke-width="5.61705"/>
<defs>
<linearGradient id="paint0_linear_4576_4068" x1="165.291" y1="47.117" x2="173.274" y2="132.024" gradientUnits="userSpaceOnUse">
<stop stop-color="#1D8C21"/>
<stop offset="0.32" stop-color="#7BFB80"/>
<stop offset="0.54" stop-color="#E9FCE7"/>
<stop offset="0.77" stop-color="#51F74E"/>
<stop offset="1" stop-color="#44D441"/>
</linearGradient>
<linearGradient id="paint1_linear_4576_4068" x1="190.914" y1="40.2308" x2="183.548" y2="152.108" gradientUnits="userSpaceOnUse">
<stop stop-color="#7A96AC"/>
<stop offset="0.18" stop-color="#EAEFF3"/>
<stop offset="0.31" stop-color="#C2D4E1"/>
<stop offset="0.49" stop-color="white"/>
<stop offset="0.62" stop-color="#D4DEE5"/>
<stop offset="0.79" stop-color="#ABBDC8"/>
<stop offset="0.95" stop-color="#BCCAD7"/>
</linearGradient>
<linearGradient id="paint2_linear_4576_4068" x1="178.885" y1="47.1168" x2="170.901" y2="132.024" gradientUnits="userSpaceOnUse">
<stop stop-color="#1D8C21"/>
<stop offset="0.32" stop-color="#7BFB80"/>
<stop offset="0.54" stop-color="#E9FCE7"/>
<stop offset="0.77" stop-color="#51F74E"/>
<stop offset="1" stop-color="#44D441"/>
</linearGradient>
<linearGradient id="paint3_linear_4576_4068" x1="153.262" y1="40.2303" x2="160.627" y2="152.108" gradientUnits="userSpaceOnUse">
<stop stop-color="#7A96AC"/>
<stop offset="0.18" stop-color="#EAEFF3"/>
<stop offset="0.31" stop-color="#C2D4E1"/>
<stop offset="0.49" stop-color="white"/>
<stop offset="0.62" stop-color="#D4DEE5"/>
<stop offset="0.79" stop-color="#ABBDC8"/>
<stop offset="0.95" stop-color="#BCCAD7"/>
</linearGradient>
<linearGradient id="paint4_linear_4576_4068" x1="147.921" y1="61.384" x2="195.44" y2="149.633" gradientUnits="userSpaceOnUse">
<stop stop-color="#1D8C21"/>
<stop offset="0.32" stop-color="#7BFB80"/>
<stop offset="0.54" stop-color="#E9FCE7"/>
<stop offset="0.77" stop-color="#51F74E"/>
<stop offset="1" stop-color="#44D441"/>
</linearGradient>
<linearGradient id="paint5_linear_4576_4068" x1="131.049" y1="64.519" x2="209.818" y2="151.842" gradientUnits="userSpaceOnUse">
<stop stop-color="#7A96AC"/>
<stop offset="0.18" stop-color="#EAEFF3"/>
<stop offset="0.31" stop-color="#C2D4E1"/>
<stop offset="0.49" stop-color="white"/>
<stop offset="0.62" stop-color="#D4DEE5"/>
<stop offset="0.79" stop-color="#ABBDC8"/>
<stop offset="0.95" stop-color="#BCCAD7"/>
</linearGradient>
</defs>
</svg>
