<svg width="345" height="153" viewBox="0 0 345 153" fill="none" xmlns="http://www.w3.org/2000/svg">
<path d="M112.654 115.425C112.654 115.425 107.17 108.473 96.8956 109.541C86.6238 110.622 81.07 117.696 81.07 117.696C81.07 117.696 87.6845 125.66 97.6964 124.609C107.713 123.565 112.654 115.425 112.654 115.425ZM121.102 102C121.102 102 122.649 92.6073 115.722 85.2911C108.801 77.9764 98.5974 79.7249 98.5974 79.7249C98.5974 79.7249 98.2131 88.7054 105.319 96.2174C112.42 103.722 121.102 102 121.102 102ZM97.3962 99.1754C97.3962 99.1754 96.6948 90.3485 87.5545 85.5444C78.4157 80.7344 69.8705 83.5316 69.8705 83.5316C69.8705 83.5316 70.9536 93.8227 79.8693 98.5143C88.7806 103.199 97.3962 99.1754 97.3962 99.1754ZM133.349 120.564C133.349 120.564 126.055 115.542 116.562 119.594C107.059 123.656 103.836 132.046 103.836 132.046C103.836 132.046 112.505 137.705 121.766 133.753C131.033 129.803 133.349 120.564 133.349 120.564Z" fill="white"/>
<path d="M112.654 115.425C112.654 115.425 107.17 108.473 96.8956 109.541C86.6238 110.622 81.07 117.696 81.07 117.696C81.07 117.696 87.6845 125.66 97.6964 124.609C107.713 123.565 112.654 115.425 112.654 115.425ZM121.102 102C121.102 102 122.649 92.6073 115.722 85.2911C108.801 77.9764 98.5974 79.7249 98.5974 79.7249C98.5974 79.7249 98.2131 88.7054 105.319 96.2174C112.42 103.722 121.102 102 121.102 102ZM97.3962 99.1754C97.3962 99.1754 96.6948 90.3485 87.5545 85.5444C78.4157 80.7344 69.8705 83.5316 69.8705 83.5316C69.8705 83.5316 70.9536 93.8227 79.8693 98.5143C88.7806 103.199 97.3962 99.1754 97.3962 99.1754ZM133.349 120.564C133.349 120.564 126.055 115.542 116.562 119.594C107.059 123.656 103.836 132.046 103.836 132.046C103.836 132.046 112.505 137.705 121.766 133.753C131.033 129.803 133.349 120.564 133.349 120.564Z" fill="#CCCCCC"/>
<path d="M103.44 99.6142L100.265 103.383C100.679 103.726 142.108 137.441 210.538 88.5472L207.675 84.5425C142.515 131.092 105.003 100.923 103.44 99.6142Z" fill="white"/>
<path d="M103.44 99.6142L100.265 103.383C100.679 103.726 142.108 137.441 210.538 88.5472L207.675 84.5425C142.515 131.092 105.003 100.923 103.44 99.6142Z" fill="#CCCCCC"/>
<path d="M133.349 120.563C133.349 120.563 131.033 129.803 121.766 133.753C112.506 137.705 103.836 132.046 103.836 132.046C100.75 136.773 100.752 136.774 100.754 136.776L100.787 136.797C100.801 136.806 100.818 136.816 100.837 136.828C100.875 136.852 100.921 136.882 100.975 136.915C101.085 136.983 101.231 137.07 101.408 137.172C101.761 137.376 102.248 137.643 102.852 137.938C104.053 138.526 105.755 139.249 107.821 139.822C111.926 140.959 117.805 141.581 123.982 138.946C129.971 136.392 133.67 132.138 135.832 128.651C136.914 126.903 137.64 125.305 138.102 124.121C138.334 123.525 138.503 123.026 138.619 122.654C138.678 122.467 138.723 122.312 138.757 122.192C138.774 122.131 138.788 122.08 138.8 122.037C138.805 122.016 138.81 121.997 138.814 121.98C138.816 121.972 138.818 121.964 138.82 121.957C138.821 121.953 138.822 121.95 138.823 121.946C138.824 121.945 138.824 121.942 138.825 121.942C138.825 121.939 138.825 121.936 133.349 120.563ZM64.2557 84.1227L69.8701 83.5318C64.3502 84.1127 64.2575 84.1243 64.2561 84.1267C64.2562 84.1275 64.2567 84.13 64.2569 84.1316C64.2573 84.1349 64.2575 84.1391 64.2579 84.1427C64.2587 84.1497 64.2602 84.1573 64.2611 84.1655C64.263 84.1825 64.2648 84.2025 64.2674 84.2246C64.2726 84.2689 64.2797 84.3236 64.2881 84.3877C64.3051 84.5159 64.3291 84.6833 64.3618 84.8852C64.4271 85.2883 64.5281 85.834 64.68 86.4887C64.9821 87.7907 65.4957 89.5674 66.3566 91.5307C68.0673 95.4321 71.2963 100.383 77.2404 103.511L77.2429 103.512C80.7258 105.342 84.1611 106.132 87.2318 106.356C85.1208 107.294 83.324 108.379 81.8554 109.425C80.226 110.586 78.9745 111.715 78.1094 112.579C77.6758 113.012 77.335 113.383 77.0889 113.662C76.9658 113.802 76.8659 113.92 76.7895 114.013C76.7512 114.059 76.7182 114.098 76.6917 114.131C76.6784 114.148 76.6664 114.162 76.656 114.176C76.6509 114.182 76.6465 114.189 76.6421 114.194C76.6399 114.197 76.6376 114.199 76.6356 114.202C76.6346 114.203 76.6335 114.205 76.6329 114.206C76.6315 114.208 76.63 114.209 81.0704 117.696C81.1119 117.643 86.6628 110.618 96.896 109.541C107.171 108.473 112.654 115.425 112.654 115.425C112.654 115.425 107.713 123.565 97.6967 124.609C87.704 125.658 81.0956 117.726 81.0704 117.696C76.7274 121.303 76.7288 121.305 76.7303 121.307C76.7309 121.307 76.7316 121.309 76.7325 121.31C76.7346 121.312 76.7373 121.315 76.7396 121.318C76.7442 121.323 76.7493 121.33 76.7547 121.336C76.7657 121.349 76.7788 121.364 76.7932 121.381C76.8222 121.415 76.8582 121.457 76.9008 121.506C76.986 121.603 77.0985 121.729 77.2377 121.879C77.5157 122.178 77.9029 122.576 78.3926 123.036C79.3664 123.952 80.7792 125.146 82.5846 126.302C86.1715 128.598 91.6045 130.923 98.2823 130.223L98.2818 130.224C98.3542 130.217 98.4261 130.207 98.4981 130.199L96.9297 134.279L100.75 136.773L103.836 132.046L98.9041 130.15C98.9071 130.15 98.91 130.15 98.913 130.149C99.4238 130.347 100.69 130.837 103.836 132.046C103.836 132.046 107.059 123.655 116.562 119.593C126.019 115.557 133.294 120.525 133.349 120.563C133.376 120.524 133.402 120.485 133.429 120.446L133.349 120.563L138.825 121.936L139.142 120.672C158.655 120.799 183.947 114.485 213.82 93.141L218.414 89.8577L208.985 76.6681L204.393 79.9485C172.761 102.546 148.448 106.131 132.306 104.412C130.277 104.196 128.364 103.893 126.571 103.531L126.672 102.917L121.102 102C121.05 102.01 112.398 103.699 105.318 96.2171C98.2131 88.7052 98.5972 79.7247 98.5972 79.7247C98.5972 79.7247 108.801 77.9769 115.722 85.2916L116.041 85.6359C122.601 92.8988 121.102 102 121.102 102C126.672 102.917 126.673 102.915 126.673 102.913C126.674 102.912 126.673 102.909 126.674 102.908C126.674 102.904 126.675 102.901 126.675 102.898C126.676 102.89 126.678 102.882 126.68 102.873C126.682 102.856 126.685 102.837 126.689 102.816C126.695 102.772 126.702 102.718 126.711 102.656C126.728 102.532 126.749 102.372 126.769 102.178C126.81 101.79 126.853 101.265 126.877 100.627C126.924 99.3564 126.894 97.602 126.595 95.5687C125.999 91.5095 124.297 86.1371 119.821 81.4096C115.204 76.531 109.564 74.763 105.345 74.1736C103.222 73.877 101.373 73.8643 100.037 73.9265C99.3657 73.9578 98.8123 74.0085 98.4064 74.055C98.2032 74.0783 98.0357 74.1013 97.9077 74.1197C97.844 74.1289 97.7899 74.1372 97.7459 74.1441C97.7239 74.1476 97.7039 74.1507 97.6869 74.1535C97.6785 74.1549 97.6704 74.1558 97.6632 74.157L97.6485 74.1594C97.6462 74.1597 97.6435 74.1607 98.5804 79.6289L97.6439 74.1611L93.1523 74.9302L92.9572 79.4838L98.5972 79.7247C93.0022 79.4853 92.9572 79.4858 92.9568 79.4881L92.9563 79.5039C92.9561 79.511 92.9558 79.5189 92.9556 79.5271C92.9549 79.5437 92.9543 79.5629 92.9537 79.584C92.9524 79.6263 92.951 79.6776 92.95 79.7374C92.9481 79.8573 92.9475 80.0121 92.9499 80.1987C92.9547 80.5715 92.9722 81.0746 93.0199 81.6857C93.0355 81.8846 93.0562 82.0955 93.0788 82.3178C92.3476 81.8018 91.5639 81.3066 90.7236 80.84L90.1811 80.5471C84.5485 77.5833 79.1095 76.9715 75.1167 77.0909C73.1176 77.1507 71.4502 77.3942 70.2512 77.6318C69.65 77.7509 69.1609 77.8702 68.8006 77.9663C68.6203 78.0144 68.4713 78.0569 68.3564 78.0911C68.299 78.1082 68.2499 78.1234 68.2095 78.1361C68.1893 78.1424 68.1712 78.1479 68.1554 78.153C68.1474 78.1555 68.1399 78.158 68.133 78.1602C68.1296 78.1613 68.1261 78.1629 68.123 78.1639C68.1214 78.1644 68.1188 78.1644 68.1181 78.1647C68.1164 78.167 68.1442 78.2587 69.8155 83.3646L68.1144 78.166L63.7789 79.5854L64.2557 84.1227ZM103.441 99.6137C105.003 100.923 142.515 131.092 207.675 84.5425L210.538 88.547C142.107 137.441 100.679 103.726 100.265 103.383L103.441 99.6137ZM73.8144 117.795L76.7267 121.303L81.0704 117.696L76.6299 114.209L73.8144 117.795ZM69.8701 83.5318C69.8701 83.5318 78.4155 80.7343 87.5542 85.5442L87.9769 85.772C96.7167 90.6217 97.3965 99.1755 97.3965 99.1755C97.3965 99.1755 89.0478 103.074 80.287 98.7279L79.8698 98.5147C70.9704 93.8317 69.8741 83.5696 69.8701 83.5318Z" fill="#20303F"/>
<path d="M231.522 115.425C231.522 115.425 237.005 108.473 247.28 109.541C257.552 110.623 263.105 117.697 263.105 117.697C263.105 117.697 256.491 125.661 246.479 124.61C236.463 123.566 231.522 115.425 231.522 115.425ZM223.074 102C223.074 102 221.527 92.6075 228.454 85.2915C235.375 77.9769 245.578 79.7255 245.578 79.7255C245.578 79.7255 245.963 88.706 238.857 96.2178C231.756 103.722 223.074 102 223.074 102ZM246.779 99.176C246.779 99.176 247.481 90.3491 256.621 85.5451C265.76 80.7351 274.305 83.5325 274.305 83.5325C274.305 83.5325 273.222 93.8236 264.306 98.5151C255.395 103.199 246.779 99.176 246.779 99.176ZM210.826 120.564C210.826 120.564 218.12 115.542 227.614 119.594C237.116 123.656 240.339 132.046 240.339 132.046C240.339 132.046 231.67 137.705 222.409 133.754C213.143 129.803 210.826 120.564 210.826 120.564Z" fill="white"/>
<path d="M231.522 115.425C231.522 115.425 237.005 108.473 247.28 109.541C257.552 110.623 263.105 117.697 263.105 117.697C263.105 117.697 256.491 125.661 246.479 124.61C236.463 123.566 231.522 115.425 231.522 115.425ZM223.074 102C223.074 102 221.527 92.6075 228.454 85.2915C235.375 77.9769 245.578 79.7255 245.578 79.7255C245.578 79.7255 245.963 88.706 238.857 96.2178C231.756 103.722 223.074 102 223.074 102ZM246.779 99.176C246.779 99.176 247.481 90.3491 256.621 85.5451C265.76 80.7351 274.305 83.5325 274.305 83.5325C274.305 83.5325 273.222 93.8236 264.306 98.5151C255.395 103.199 246.779 99.176 246.779 99.176ZM210.826 120.564C210.826 120.564 218.12 115.542 227.614 119.594C237.116 123.656 240.339 132.046 240.339 132.046C240.339 132.046 231.67 137.705 222.409 133.754C213.143 129.803 210.826 120.564 210.826 120.564Z" fill="#CCCCCC"/>
<path d="M240.735 99.6147L243.91 103.384C243.497 103.726 202.068 137.441 133.638 88.5464L136.501 84.5418C201.661 131.092 239.173 100.924 240.735 99.6147Z" fill="white"/>
<path d="M240.735 99.6147L243.91 103.384C243.497 103.726 202.068 137.441 133.638 88.5464L136.501 84.5418C201.661 131.092 239.173 100.924 240.735 99.6147Z" fill="#CCCCCC"/>
<path d="M210.826 120.563C210.826 120.563 213.143 129.803 222.409 133.754C231.669 137.705 240.34 132.046 240.34 132.046C243.425 136.773 243.423 136.775 243.421 136.776L243.388 136.797C243.374 136.807 243.357 136.817 243.338 136.829C243.301 136.853 243.255 136.882 243.2 136.916C243.09 136.984 242.945 137.071 242.767 137.173C242.414 137.376 241.927 137.643 241.323 137.939C240.123 138.527 238.42 139.25 236.354 139.822C232.249 140.959 226.37 141.582 220.193 138.946C214.204 136.392 210.505 132.139 208.344 128.651C207.261 126.903 206.535 125.306 206.073 124.121C205.841 123.525 205.672 123.026 205.556 122.654C205.498 122.467 205.452 122.312 205.419 122.192C205.402 122.131 205.387 122.08 205.376 122.037C205.37 122.016 205.366 121.997 205.361 121.98C205.359 121.972 205.357 121.964 205.355 121.957C205.355 121.953 205.353 121.95 205.352 121.946C205.352 121.945 205.351 121.943 205.351 121.942C205.35 121.939 205.35 121.936 210.826 120.563ZM279.92 84.1236L274.306 83.5327C279.826 84.1136 279.918 84.1252 279.92 84.1276C279.92 84.1284 279.919 84.1309 279.919 84.1326C279.919 84.1359 279.918 84.14 279.918 84.1436C279.917 84.1507 279.916 84.1582 279.915 84.1664C279.913 84.1834 279.911 84.2034 279.908 84.2255C279.903 84.2699 279.896 84.3245 279.888 84.3886C279.871 84.5168 279.847 84.6842 279.814 84.8861C279.749 85.2893 279.648 85.8349 279.496 86.4896C279.194 87.7916 278.68 89.5683 277.819 91.5316C276.108 95.433 272.879 100.384 266.935 103.511L266.933 103.513C263.45 105.343 260.014 106.133 256.944 106.356C259.055 107.295 260.851 108.38 262.32 109.426C263.949 110.587 265.201 111.716 266.066 112.58C266.5 113.013 266.84 113.383 267.087 113.663C267.21 113.803 267.31 113.921 267.386 114.013C267.424 114.06 267.457 114.099 267.484 114.132C267.497 114.148 267.509 114.163 267.519 114.176C267.525 114.183 267.529 114.189 267.533 114.195C267.535 114.198 267.538 114.2 267.54 114.203C267.541 114.204 267.542 114.206 267.543 114.207C267.544 114.209 267.545 114.21 263.105 117.696C263.063 117.644 257.513 110.619 247.28 109.541C237.005 108.473 231.521 115.425 231.521 115.425C231.521 115.425 236.463 123.565 246.479 124.609C256.471 125.659 263.08 117.727 263.105 117.696C267.448 121.303 267.447 121.306 267.445 121.307C267.444 121.308 267.444 121.31 267.443 121.311C267.441 121.313 267.438 121.316 267.436 121.318C267.431 121.324 267.426 121.33 267.421 121.337C267.41 121.35 267.397 121.365 267.382 121.382C267.353 121.416 267.317 121.458 267.275 121.507C267.189 121.604 267.077 121.73 266.938 121.88C266.66 122.179 266.272 122.577 265.783 123.037C264.809 123.953 263.396 125.147 261.591 126.302C258.004 128.598 252.571 130.924 245.893 130.224L245.893 130.225C245.821 130.217 245.749 130.207 245.677 130.199L247.245 134.28L243.425 136.773L240.34 132.046L245.271 130.151C245.268 130.151 245.265 130.15 245.262 130.15C244.751 130.347 243.485 130.838 240.34 132.046C240.34 132.046 237.116 123.656 227.613 119.594C218.156 115.558 210.881 120.526 210.826 120.563C210.799 120.524 210.773 120.485 210.747 120.446L210.826 120.563L205.351 121.936L205.033 120.672C185.521 120.799 160.228 114.485 130.356 93.1402L125.761 89.8569L135.19 76.6674L139.783 79.9478C171.415 102.546 195.727 106.131 211.869 104.412C213.899 104.196 215.811 103.893 217.605 103.531L217.503 102.918L223.074 102C223.126 102.011 231.778 103.699 238.857 96.2176C245.963 88.7058 245.579 79.7253 245.579 79.7253C245.579 79.7253 235.375 77.9773 228.454 85.2919L228.135 85.6362C221.575 92.8991 223.074 102 223.074 102C217.504 102.918 217.502 102.915 217.502 102.913C217.502 102.912 217.502 102.909 217.502 102.908C217.501 102.905 217.501 102.901 217.5 102.898C217.499 102.89 217.497 102.882 217.496 102.873C217.493 102.856 217.49 102.837 217.487 102.816C217.48 102.772 217.473 102.719 217.465 102.657C217.448 102.533 217.427 102.372 217.406 102.178C217.365 101.79 217.323 101.265 217.299 100.627C217.252 99.3567 217.282 97.6022 217.58 95.5689C218.176 91.5097 219.879 86.1373 224.355 81.4099C228.971 76.5314 234.612 74.7634 238.831 74.1741C240.954 73.8775 242.803 73.8648 244.139 73.927C244.81 73.9583 245.364 74.009 245.769 74.0555C245.973 74.0788 246.14 74.1018 246.268 74.1203C246.332 74.1294 246.386 74.1377 246.43 74.1447C246.452 74.1482 246.472 74.1512 246.489 74.154C246.497 74.1554 246.505 74.1564 246.513 74.1576L246.527 74.1599C246.53 74.1603 246.532 74.1613 245.595 79.6294L246.532 74.1616L251.024 74.9308L251.219 79.4844L245.579 79.7253C251.174 79.4859 251.219 79.4864 251.219 79.4887L251.219 79.5045C251.22 79.5116 251.22 79.5195 251.22 79.5277C251.221 79.5443 251.222 79.5635 251.222 79.5846C251.223 79.6269 251.225 79.6782 251.226 79.738C251.228 79.8579 251.228 80.0127 251.226 80.1993C251.221 80.5721 251.204 81.0752 251.156 81.6863C251.14 81.8852 251.12 82.0961 251.097 82.3184C251.828 81.8024 252.612 81.3072 253.452 80.8406L253.995 80.5477C259.627 77.584 265.066 76.9722 269.059 77.0917C271.058 77.1515 272.726 77.395 273.925 77.6326C274.526 77.7518 275.015 77.8711 275.375 77.9672C275.556 78.0153 275.705 78.0578 275.819 78.092C275.877 78.1091 275.926 78.1243 275.966 78.1369C275.987 78.1433 276.005 78.1488 276.02 78.1538C276.028 78.1564 276.036 78.1588 276.043 78.1611C276.046 78.1622 276.05 78.1638 276.053 78.1648C276.054 78.1653 276.057 78.1653 276.058 78.1656C276.059 78.1679 276.032 78.2596 274.36 83.3654L276.061 78.1669L280.397 79.5863L279.92 84.1236ZM240.735 99.6141C239.173 100.923 201.661 131.092 136.501 84.5418L133.638 88.5463C202.068 137.441 243.497 103.726 243.911 103.384L240.735 99.6141ZM270.361 117.796L267.449 121.303L263.105 117.696L267.546 114.21L270.361 117.796ZM274.306 83.5327C274.306 83.5327 265.76 80.7351 256.622 85.5448L256.199 85.7727C247.459 90.6223 246.779 99.176 246.779 99.176C246.779 99.176 255.128 103.074 263.889 98.7286L264.306 98.5154C273.205 93.8326 274.302 83.5704 274.306 83.5327Z" fill="#20303F"/>
<path d="M209.116 124.378C219.962 103.88 212.137 78.4673 191.64 67.6212C171.143 56.775 145.73 64.6 134.884 85.0971C124.038 105.594 131.863 131.007 152.36 141.854C172.857 152.7 198.27 144.875 209.116 124.378Z" fill="white"/>
<path d="M209.116 124.378C219.962 103.88 212.137 78.4673 191.64 67.6212C171.143 56.775 145.73 64.6 134.884 85.0971C124.038 105.594 131.863 131.007 152.36 141.854C172.857 152.7 198.27 144.875 209.116 124.378Z" fill="#CCCCCC"/>
<path d="M129.919 82.4698C142.216 59.2307 171.028 50.3592 194.268 62.6563C217.507 74.9534 226.378 103.766 214.081 127.005C201.784 150.244 172.971 159.115 149.732 146.818C126.493 134.521 117.622 105.709 129.919 82.4698ZM191.641 67.6211C171.144 56.775 145.73 64.5998 134.884 85.0967L134.389 86.0616C124.285 106.385 132.183 131.177 152.359 141.854C172.536 152.53 197.478 145.115 208.598 125.329L209.116 124.378C219.793 104.201 212.377 79.2598 192.592 68.1397L191.641 67.6211Z" fill="#20303F"/>
</svg>
