<svg width="345" height="153" viewBox="0 0 345 153" fill="none" xmlns="http://www.w3.org/2000/svg">
<path d="M112.654 115.424C112.654 115.424 107.171 108.473 96.8957 109.541C86.6239 110.622 81.0701 117.696 81.0701 117.696C81.0701 117.696 87.6846 125.66 97.6965 124.609C107.713 123.565 112.654 115.424 112.654 115.424ZM121.102 102C121.102 102 122.649 92.6072 115.722 85.2911C108.801 77.9764 98.5976 79.7249 98.5976 79.7249C98.5976 79.7249 98.2132 88.7054 105.319 96.2173C112.42 103.722 121.102 102 121.102 102ZM97.3963 99.1754C97.3963 99.1754 96.6949 90.3485 87.5546 85.5444C78.4158 80.7343 69.8706 83.5316 69.8706 83.5316C69.8706 83.5316 70.9537 93.8227 79.8694 98.5143C88.7807 103.198 97.3963 99.1754 97.3963 99.1754ZM133.349 120.564C133.349 120.564 126.056 115.542 116.562 119.594C107.059 123.656 103.836 132.046 103.836 132.046C103.836 132.046 112.505 137.705 121.766 133.753C131.033 129.803 133.349 120.564 133.349 120.564Z" fill="white"/>
<path d="M112.654 115.424C112.654 115.424 107.171 108.473 96.8957 109.541C86.6239 110.622 81.0701 117.696 81.0701 117.696C81.0701 117.696 87.6846 125.66 97.6965 124.609C107.713 123.565 112.654 115.424 112.654 115.424ZM121.102 102C121.102 102 122.649 92.6072 115.722 85.2911C108.801 77.9764 98.5976 79.7249 98.5976 79.7249C98.5976 79.7249 98.2132 88.7054 105.319 96.2173C112.42 103.722 121.102 102 121.102 102ZM97.3963 99.1754C97.3963 99.1754 96.6949 90.3485 87.5546 85.5444C78.4158 80.7343 69.8706 83.5316 69.8706 83.5316C69.8706 83.5316 70.9537 93.8227 79.8694 98.5143C88.7807 103.198 97.3963 99.1754 97.3963 99.1754ZM133.349 120.564C133.349 120.564 126.056 115.542 116.562 119.594C107.059 123.656 103.836 132.046 103.836 132.046C103.836 132.046 112.505 137.705 121.766 133.753C131.033 129.803 133.349 120.564 133.349 120.564Z" fill="#CCCCCC"/>
<path d="M112.654 115.424C112.654 115.424 107.171 108.473 96.8957 109.541C86.6239 110.622 81.0701 117.696 81.0701 117.696C81.0701 117.696 87.6846 125.66 97.6965 124.609C107.713 123.565 112.654 115.424 112.654 115.424ZM121.102 102C121.102 102 122.649 92.6072 115.722 85.2911C108.801 77.9764 98.5976 79.7249 98.5976 79.7249C98.5976 79.7249 98.2132 88.7054 105.319 96.2173C112.42 103.722 121.102 102 121.102 102ZM97.3963 99.1754C97.3963 99.1754 96.6949 90.3485 87.5546 85.5444C78.4158 80.7343 69.8706 83.5316 69.8706 83.5316C69.8706 83.5316 70.9537 93.8227 79.8694 98.5143C88.7807 103.198 97.3963 99.1754 97.3963 99.1754ZM133.349 120.564C133.349 120.564 126.056 115.542 116.562 119.594C107.059 123.656 103.836 132.046 103.836 132.046C103.836 132.046 112.505 137.705 121.766 133.753C131.033 129.803 133.349 120.564 133.349 120.564Z" fill="url(#paint0_linear_4576_4068)"/>
<path d="M112.654 115.424C112.654 115.424 107.171 108.473 96.8957 109.541C86.6239 110.622 81.0701 117.696 81.0701 117.696C81.0701 117.696 87.6846 125.66 97.6965 124.609C107.713 123.565 112.654 115.424 112.654 115.424ZM121.102 102C121.102 102 122.649 92.6072 115.722 85.2911C108.801 77.9764 98.5976 79.7249 98.5976 79.7249C98.5976 79.7249 98.2132 88.7054 105.319 96.2173C112.42 103.722 121.102 102 121.102 102ZM97.3963 99.1754C97.3963 99.1754 96.6949 90.3485 87.5546 85.5444C78.4158 80.7343 69.8706 83.5316 69.8706 83.5316C69.8706 83.5316 70.9537 93.8227 79.8694 98.5143C88.7807 103.198 97.3963 99.1754 97.3963 99.1754ZM133.349 120.564C133.349 120.564 126.056 115.542 116.562 119.594C107.059 123.656 103.836 132.046 103.836 132.046C103.836 132.046 112.505 137.705 121.766 133.753C131.033 129.803 133.349 120.564 133.349 120.564Z" fill="url(#paint1_linear_4576_4068)"/>
<path d="M103.441 99.6141L100.265 103.383C100.679 103.726 142.108 137.441 210.538 88.5471L207.675 84.5425C142.515 131.092 105.003 100.923 103.441 99.6141Z" fill="white"/>
<path d="M103.441 99.6141L100.265 103.383C100.679 103.726 142.108 137.441 210.538 88.5471L207.675 84.5425C142.515 131.092 105.003 100.923 103.441 99.6141Z" fill="#CCCCCC"/>
<path d="M103.441 99.6141L100.265 103.383C100.679 103.726 142.108 137.441 210.538 88.5471L207.675 84.5425C142.515 131.092 105.003 100.923 103.441 99.6141Z" fill="url(#paint2_linear_4576_4068)"/>
<path d="M103.441 99.6141L100.265 103.383C100.679 103.726 142.108 137.441 210.538 88.5471L207.675 84.5425C142.515 131.092 105.003 100.923 103.441 99.6141Z" fill="url(#paint3_linear_4576_4068)"/>
<path d="M133.349 120.563C133.349 120.563 131.033 129.803 121.766 133.753C112.506 137.705 103.836 132.046 103.836 132.046C100.75 136.773 100.752 136.774 100.754 136.776L100.787 136.797C100.801 136.806 100.818 136.816 100.837 136.828C100.875 136.852 100.921 136.882 100.976 136.915C101.086 136.983 101.231 137.07 101.408 137.172C101.762 137.376 102.249 137.642 102.853 137.938C104.054 138.526 105.755 139.249 107.821 139.822C111.926 140.959 117.805 141.581 123.982 138.946C129.971 136.392 133.67 132.138 135.832 128.651C136.914 126.903 137.64 125.305 138.102 124.121C138.334 123.525 138.503 123.026 138.62 122.654C138.678 122.467 138.723 122.312 138.757 122.192C138.774 122.131 138.788 122.079 138.799 122.036C138.805 122.015 138.81 121.996 138.814 121.98C138.816 121.972 138.818 121.964 138.82 121.957C138.821 121.953 138.823 121.95 138.823 121.946C138.824 121.945 138.825 121.942 138.825 121.942C138.825 121.939 138.825 121.936 133.349 120.563ZM64.2558 84.1227L69.8702 83.5318C64.3511 84.1126 64.2576 84.1243 64.2563 84.1267C64.2564 84.1275 64.2569 84.13 64.257 84.1316C64.2574 84.1349 64.2576 84.1391 64.258 84.1427C64.2588 84.1497 64.2603 84.1573 64.2612 84.1655C64.2631 84.1825 64.2649 84.2025 64.2675 84.2246C64.2727 84.2689 64.2798 84.3236 64.2882 84.3877C64.3052 84.5159 64.3292 84.6833 64.3619 84.8852C64.4272 85.2883 64.5283 85.834 64.6801 86.4887C64.9822 87.7907 65.4959 89.5674 66.3567 91.5307C68.0674 95.4321 71.2964 100.383 77.2406 103.511L77.2431 103.512C80.726 105.342 84.1613 106.132 87.232 106.356C85.1209 107.294 83.3241 108.379 81.8555 109.425C80.2262 110.586 78.9746 111.715 78.1095 112.579C77.6759 113.012 77.3351 113.383 77.089 113.662C76.9659 113.802 76.866 113.92 76.7896 114.013C76.7514 114.059 76.7184 114.098 76.6918 114.131C76.6785 114.148 76.6665 114.162 76.6561 114.176C76.651 114.182 76.6467 114.189 76.6422 114.194C76.6401 114.197 76.6377 114.199 76.6357 114.202C76.6347 114.203 76.6336 114.205 76.633 114.206C76.6316 114.208 76.6302 114.209 81.0705 117.696C81.1121 117.643 86.6629 110.618 96.8961 109.541C107.171 108.473 112.654 115.425 112.654 115.425C112.654 115.425 107.713 123.565 97.6968 124.609C87.7041 125.658 81.0957 117.726 81.0705 117.696C76.7275 121.303 76.7289 121.305 76.7304 121.307C76.731 121.307 76.7318 121.309 76.7326 121.31C76.7347 121.312 76.7374 121.315 76.7397 121.318C76.7443 121.323 76.7494 121.33 76.7548 121.336C76.7658 121.349 76.7789 121.364 76.7934 121.381C76.8223 121.415 76.8583 121.457 76.9009 121.506C76.9861 121.603 77.0986 121.729 77.2378 121.879C77.5158 122.178 77.903 122.576 78.3928 123.036C79.3666 123.952 80.7801 125.145 82.5856 126.301C86.1725 128.597 91.6048 130.923 98.2825 130.223L98.2819 130.224C98.3543 130.217 98.4262 130.207 98.4982 130.199L96.9298 134.279L100.75 136.773L103.836 132.046L98.9042 130.15C98.9072 130.15 98.9102 130.15 98.9131 130.149C99.4239 130.347 100.691 130.837 103.836 132.046C103.836 132.046 107.059 123.655 116.562 119.593C126.02 115.557 133.294 120.525 133.349 120.563C133.376 120.524 133.402 120.485 133.429 120.446L133.349 120.563L138.825 121.936L139.142 120.672C158.655 120.799 183.948 114.485 213.82 93.141L218.415 89.8577L208.986 76.6681L204.393 79.9485C172.761 102.546 148.448 106.131 132.306 104.412C130.277 104.196 128.365 103.893 126.571 103.531L126.672 102.917L121.102 102C121.05 102.01 112.398 103.699 105.318 96.2171C98.2132 88.7052 98.5973 79.7247 98.5973 79.7247C98.5973 79.7247 108.801 77.9769 115.722 85.2916L116.041 85.6359C122.601 92.8988 121.102 102 121.102 102C126.672 102.917 126.673 102.915 126.674 102.913C126.674 102.912 126.673 102.909 126.674 102.908C126.674 102.904 126.675 102.901 126.675 102.898C126.676 102.89 126.678 102.882 126.68 102.873C126.682 102.856 126.685 102.837 126.689 102.816C126.695 102.772 126.703 102.718 126.711 102.656C126.728 102.532 126.749 102.372 126.769 102.178C126.81 101.79 126.853 101.265 126.877 100.627C126.924 99.3564 126.894 97.602 126.596 95.5687C125.999 91.5095 124.297 86.1371 119.821 81.4096C115.204 76.531 109.564 74.763 105.345 74.1736C103.222 73.877 101.373 73.8643 100.037 73.9265C99.3658 73.9578 98.8124 74.0085 98.4065 74.055C98.2033 74.0783 98.0358 74.1013 97.9078 74.1197C97.8441 74.1289 97.79 74.1372 97.7461 74.1441C97.724 74.1476 97.704 74.1507 97.687 74.1535C97.6786 74.1549 97.6705 74.1558 97.6634 74.157L97.6486 74.1594C97.6463 74.1597 97.6436 74.1607 98.5806 79.6289L97.644 74.1611L93.1524 74.9302L92.9574 79.4838L98.5973 79.7247C93.0026 79.4853 92.9573 79.4858 92.9569 79.4881L92.9565 79.5039C92.9562 79.511 92.956 79.5189 92.9557 79.5271C92.9551 79.5437 92.9544 79.5629 92.9538 79.584C92.9526 79.6263 92.9511 79.6776 92.9502 79.7374C92.9482 79.8573 92.9476 80.0121 92.95 80.1987C92.9549 80.5715 92.9723 81.0746 93.0201 81.6857C93.0356 81.8846 93.0563 82.0955 93.079 82.3178C92.3477 81.8018 91.5641 81.3066 90.7237 80.84L90.1812 80.5471C84.5486 77.5833 79.1096 76.9715 75.1168 77.0909C73.1177 77.1507 71.4503 77.3942 70.2513 77.6318C69.6501 77.7509 69.161 77.8703 68.8007 77.9663C68.6204 78.0144 68.4714 78.0569 68.3565 78.0911C68.2991 78.1082 68.25 78.1234 68.2096 78.1361C68.1895 78.1424 68.1714 78.1479 68.1555 78.153C68.1475 78.1555 68.14 78.158 68.1332 78.1602C68.1298 78.1613 68.1262 78.1629 68.1231 78.1639C68.1216 78.1644 68.1189 78.1644 68.1182 78.1647C68.1165 78.167 68.144 78.2578 69.8157 83.3646L68.1145 78.166L63.7791 79.5854L64.2558 84.1227ZM103.441 99.6137C105.003 100.923 142.515 131.092 207.675 84.5425L210.538 88.547C142.108 137.441 100.679 103.726 100.265 103.383L103.441 99.6137ZM73.8146 117.795L76.7269 121.303L81.0705 117.696L76.63 114.209L73.8146 117.795ZM69.8702 83.5318C69.8702 83.5318 78.4157 80.7343 87.5544 85.5442L87.9771 85.772C96.7169 90.6217 97.3966 99.1755 97.3966 99.1755C97.3966 99.1755 89.0479 103.074 80.2871 98.7279L79.8699 98.5147C70.9706 93.8317 69.8742 83.5696 69.8702 83.5318Z" fill="#20303F"/>
<path d="M231.522 115.425C231.522 115.425 237.005 108.473 247.28 109.541C257.552 110.623 263.105 117.697 263.105 117.697C263.105 117.697 256.491 125.661 246.479 124.61C236.463 123.566 231.522 115.425 231.522 115.425ZM223.074 102C223.074 102 221.527 92.6075 228.454 85.2915C235.375 77.9769 245.578 79.7255 245.578 79.7255C245.578 79.7255 245.963 88.706 238.857 96.2178C231.756 103.722 223.074 102 223.074 102ZM246.779 99.176C246.779 99.176 247.481 90.3491 256.621 85.5451C265.76 80.7351 274.305 83.5325 274.305 83.5325C274.305 83.5325 273.222 93.8236 264.306 98.5151C255.395 103.199 246.779 99.176 246.779 99.176ZM210.826 120.564C210.826 120.564 218.12 115.542 227.614 119.594C237.116 123.656 240.339 132.046 240.339 132.046C240.339 132.046 231.67 137.705 222.409 133.754C213.143 129.803 210.826 120.564 210.826 120.564Z" fill="white"/>
<path d="M231.522 115.425C231.522 115.425 237.005 108.473 247.28 109.541C257.552 110.623 263.105 117.697 263.105 117.697C263.105 117.697 256.491 125.661 246.479 124.61C236.463 123.566 231.522 115.425 231.522 115.425ZM223.074 102C223.074 102 221.527 92.6075 228.454 85.2915C235.375 77.9769 245.578 79.7255 245.578 79.7255C245.578 79.7255 245.963 88.706 238.857 96.2178C231.756 103.722 223.074 102 223.074 102ZM246.779 99.176C246.779 99.176 247.481 90.3491 256.621 85.5451C265.76 80.7351 274.305 83.5325 274.305 83.5325C274.305 83.5325 273.222 93.8236 264.306 98.5151C255.395 103.199 246.779 99.176 246.779 99.176ZM210.826 120.564C210.826 120.564 218.12 115.542 227.614 119.594C237.116 123.656 240.339 132.046 240.339 132.046C240.339 132.046 231.67 137.705 222.409 133.754C213.143 129.803 210.826 120.564 210.826 120.564Z" fill="#CCCCCC"/>
<path d="M231.522 115.425C231.522 115.425 237.005 108.473 247.28 109.541C257.552 110.623 263.105 117.697 263.105 117.697C263.105 117.697 256.491 125.661 246.479 124.61C236.463 123.566 231.522 115.425 231.522 115.425ZM223.074 102C223.074 102 221.527 92.6075 228.454 85.2915C235.375 77.9769 245.578 79.7255 245.578 79.7255C245.578 79.7255 245.963 88.706 238.857 96.2178C231.756 103.722 223.074 102 223.074 102ZM246.779 99.176C246.779 99.176 247.481 90.3491 256.621 85.5451C265.76 80.7351 274.305 83.5325 274.305 83.5325C274.305 83.5325 273.222 93.8236 264.306 98.5151C255.395 103.199 246.779 99.176 246.779 99.176ZM210.826 120.564C210.826 120.564 218.12 115.542 227.614 119.594C237.116 123.656 240.339 132.046 240.339 132.046C240.339 132.046 231.67 137.705 222.409 133.754C213.143 129.803 210.826 120.564 210.826 120.564Z" fill="url(#paint4_linear_4576_4068)"/>
<path d="M231.522 115.425C231.522 115.425 237.005 108.473 247.28 109.541C257.552 110.623 263.105 117.697 263.105 117.697C263.105 117.697 256.491 125.661 246.479 124.61C236.463 123.566 231.522 115.425 231.522 115.425ZM223.074 102C223.074 102 221.527 92.6075 228.454 85.2915C235.375 77.9769 245.578 79.7255 245.578 79.7255C245.578 79.7255 245.963 88.706 238.857 96.2178C231.756 103.722 223.074 102 223.074 102ZM246.779 99.176C246.779 99.176 247.481 90.3491 256.621 85.5451C265.76 80.7351 274.305 83.5325 274.305 83.5325C274.305 83.5325 273.222 93.8236 264.306 98.5151C255.395 103.199 246.779 99.176 246.779 99.176ZM210.826 120.564C210.826 120.564 218.12 115.542 227.614 119.594C237.116 123.656 240.339 132.046 240.339 132.046C240.339 132.046 231.67 137.705 222.409 133.754C213.143 129.803 210.826 120.564 210.826 120.564Z" fill="url(#paint5_linear_4576_4068)"/>
<path d="M240.735 99.6147L243.91 103.384C243.497 103.726 202.068 137.441 133.638 88.5464L136.501 84.5418C201.661 131.092 239.173 100.924 240.735 99.6147Z" fill="white"/>
<path d="M240.735 99.6147L243.91 103.384C243.497 103.726 202.068 137.441 133.638 88.5464L136.501 84.5418C201.661 131.092 239.173 100.924 240.735 99.6147Z" fill="#CCCCCC"/>
<path d="M240.735 99.6147L243.91 103.384C243.497 103.726 202.068 137.441 133.638 88.5464L136.501 84.5418C201.661 131.092 239.173 100.924 240.735 99.6147Z" fill="url(#paint6_linear_4576_4068)"/>
<path d="M240.735 99.6147L243.91 103.384C243.497 103.726 202.068 137.441 133.638 88.5464L136.501 84.5418C201.661 131.092 239.173 100.924 240.735 99.6147Z" fill="url(#paint7_linear_4576_4068)"/>
<path d="M210.826 120.563C210.826 120.563 213.143 129.803 222.409 133.753C231.669 137.705 240.34 132.046 240.34 132.046C243.425 136.773 243.423 136.775 243.421 136.776L243.388 136.797C243.374 136.807 243.357 136.817 243.338 136.829C243.301 136.853 243.255 136.882 243.2 136.916C243.09 136.984 242.945 137.07 242.767 137.173C242.414 137.376 241.926 137.643 241.322 137.938C240.122 138.526 238.42 139.25 236.354 139.822C232.249 140.959 226.37 141.582 220.193 138.946C214.204 136.392 210.505 132.139 208.344 128.651C207.261 126.903 206.535 125.306 206.073 124.121C205.841 123.525 205.672 123.026 205.556 122.654C205.498 122.467 205.452 122.312 205.419 122.192C205.402 122.131 205.387 122.079 205.376 122.036C205.37 122.015 205.366 121.996 205.361 121.98C205.359 121.972 205.357 121.964 205.355 121.957C205.355 121.953 205.353 121.95 205.352 121.946C205.352 121.945 205.351 121.943 205.351 121.942C205.35 121.939 205.35 121.936 210.826 120.563ZM279.92 84.1236L274.306 83.5326C279.825 84.1135 279.918 84.1252 279.92 84.1276C279.92 84.1284 279.919 84.1309 279.919 84.1325C279.918 84.1358 279.918 84.14 279.918 84.1436C279.917 84.1506 279.916 84.1582 279.915 84.1664C279.913 84.1834 279.911 84.2034 279.908 84.2255C279.903 84.2698 279.896 84.3245 279.888 84.3886C279.871 84.5168 279.847 84.6842 279.814 84.8861C279.749 85.2892 279.648 85.8349 279.496 86.4896C279.194 87.7916 278.68 89.5683 277.819 91.5316C276.108 95.433 272.879 100.384 266.935 103.511L266.933 103.512C263.45 105.343 260.014 106.133 256.944 106.356C259.055 107.295 260.851 108.38 262.32 109.426C263.949 110.587 265.201 111.716 266.066 112.58C266.5 113.013 266.84 113.383 267.087 113.663C267.21 113.803 267.31 113.921 267.386 114.013C267.424 114.059 267.457 114.099 267.484 114.132C267.497 114.148 267.509 114.163 267.519 114.176C267.525 114.183 267.529 114.189 267.533 114.195C267.535 114.198 267.538 114.2 267.54 114.203C267.541 114.204 267.542 114.206 267.543 114.207C267.544 114.209 267.545 114.21 263.105 117.696C263.063 117.644 257.513 110.619 247.28 109.541C237.005 108.473 231.521 115.425 231.521 115.425C231.521 115.425 236.463 123.565 246.479 124.609C256.471 125.659 263.08 117.727 263.105 117.696C267.448 121.303 267.447 121.305 267.445 121.307C267.444 121.308 267.444 121.31 267.443 121.311C267.441 121.313 267.438 121.316 267.436 121.318C267.431 121.324 267.426 121.33 267.421 121.337C267.41 121.35 267.397 121.365 267.382 121.382C267.353 121.416 267.317 121.458 267.275 121.507C267.189 121.604 267.077 121.73 266.938 121.88C266.66 122.179 266.272 122.577 265.783 123.037C264.809 123.953 263.395 125.146 261.59 126.302C258.003 128.598 252.571 130.924 245.893 130.224L245.893 130.225C245.821 130.217 245.749 130.207 245.677 130.199L247.245 134.28L243.425 136.773L240.34 132.046L245.271 130.151C245.268 130.151 245.265 130.15 245.262 130.15C244.751 130.347 243.485 130.838 240.34 132.046C240.34 132.046 237.116 123.656 227.613 119.594C218.156 115.558 210.881 120.525 210.826 120.563C210.799 120.524 210.773 120.485 210.747 120.446L210.826 120.563L205.351 121.936L205.033 120.672C185.521 120.799 160.228 114.485 130.356 93.1402L125.761 89.8569L135.19 76.6674L139.783 79.9478C171.415 102.546 195.727 106.131 211.869 104.412C213.899 104.196 215.811 103.893 217.605 103.531L217.503 102.918L223.074 102C223.126 102.011 231.778 103.699 238.857 96.2175C245.963 88.7057 245.579 79.7252 245.579 79.7252C245.579 79.7252 235.375 77.9773 228.454 85.2919L228.135 85.6362C221.575 92.899 223.074 102 223.074 102C217.504 102.918 217.502 102.915 217.502 102.913C217.502 102.912 217.502 102.909 217.502 102.908C217.501 102.905 217.501 102.901 217.5 102.898C217.499 102.89 217.497 102.882 217.496 102.873C217.493 102.856 217.49 102.837 217.487 102.816C217.48 102.772 217.473 102.719 217.465 102.657C217.448 102.533 217.427 102.372 217.406 102.178C217.365 101.79 217.323 101.265 217.299 100.627C217.252 99.3566 217.282 97.6022 217.58 95.5689C218.176 91.5097 219.879 86.1373 224.355 81.4099C228.971 76.5314 234.612 74.7634 238.831 74.174C240.954 73.8775 242.803 73.8647 244.139 73.927C244.81 73.9583 245.364 74.009 245.769 74.0555C245.973 74.0788 246.14 74.1018 246.268 74.1202C246.332 74.1294 246.386 74.1377 246.43 74.1447C246.452 74.1481 246.472 74.1512 246.489 74.154C246.497 74.1554 246.505 74.1563 246.513 74.1575L246.527 74.1599C246.53 74.1603 246.532 74.1612 245.595 79.6294L246.532 74.1616L251.024 74.9307L251.219 79.4843L245.579 79.7252C251.173 79.4858 251.219 79.4864 251.219 79.4887L251.219 79.5045C251.22 79.5115 251.22 79.5195 251.22 79.5277C251.221 79.5443 251.222 79.5635 251.222 79.5846C251.223 79.6269 251.225 79.6781 251.226 79.7379C251.228 79.8578 251.228 80.0126 251.226 80.1992C251.221 80.5721 251.204 81.0752 251.156 81.6862C251.14 81.8852 251.12 82.0961 251.097 82.3184C251.828 81.8023 252.612 81.3071 253.452 80.8406L253.995 80.5477C259.627 77.584 265.066 76.9722 269.059 77.0917C271.058 77.1515 272.726 77.395 273.925 77.6326C274.526 77.7518 275.015 77.8711 275.375 77.9672C275.556 78.0153 275.705 78.0577 275.819 78.092C275.877 78.1091 275.926 78.1243 275.966 78.1369C275.987 78.1432 276.005 78.1487 276.02 78.1538C276.028 78.1564 276.036 78.1588 276.043 78.161C276.046 78.1621 276.05 78.1637 276.053 78.1648C276.054 78.1653 276.057 78.1653 276.058 78.1655C276.059 78.1678 276.032 78.2587 274.36 83.3654L276.061 78.1669L280.397 79.5863L279.92 84.1236ZM240.735 99.6141C239.173 100.923 201.661 131.092 136.501 84.5418L133.638 88.5462C202.068 137.441 243.497 103.726 243.911 103.384L240.735 99.6141ZM270.361 117.796L267.449 121.303L263.105 117.696L267.546 114.21L270.361 117.796ZM274.306 83.5326C274.306 83.5326 265.76 80.7351 256.622 85.5448L256.199 85.7727C247.459 90.6222 246.779 99.176 246.779 99.176C246.779 99.176 255.128 103.074 263.889 98.7286L264.306 98.5154C273.205 93.8325 274.302 83.5704 274.306 83.5326Z" fill="#20303F"/>
<path d="M209.116 124.378C219.962 103.88 212.137 78.4673 191.64 67.6211C171.143 56.7749 145.73 64.5999 134.884 85.0971C124.038 105.594 131.863 131.007 152.36 141.853C172.857 152.7 198.27 144.875 209.116 124.378Z" fill="white"/>
<path d="M209.116 124.378C219.962 103.88 212.137 78.4673 191.64 67.6211C171.143 56.7749 145.73 64.5999 134.884 85.0971C124.038 105.594 131.863 131.007 152.36 141.853C172.857 152.7 198.27 144.875 209.116 124.378Z" fill="#CCCCCC"/>
<path d="M209.116 124.378C219.962 103.88 212.137 78.4673 191.64 67.6211C171.143 56.7749 145.73 64.5999 134.884 85.0971C124.038 105.594 131.863 131.007 152.36 141.853C172.857 152.7 198.27 144.875 209.116 124.378Z" fill="url(#paint8_linear_4576_4068)"/>
<path d="M209.116 124.378C219.962 103.88 212.137 78.4673 191.64 67.6211C171.143 56.7749 145.73 64.5999 134.884 85.0971C124.038 105.594 131.863 131.007 152.36 141.853C172.857 152.7 198.27 144.875 209.116 124.378Z" fill="url(#paint9_linear_4576_4068)"/>
<path d="M129.919 82.4697C142.216 59.2306 171.028 50.3591 194.268 62.6562C217.507 74.9534 226.378 103.766 214.081 127.005C201.784 150.244 172.971 159.115 149.732 146.818C126.493 134.521 117.622 105.709 129.919 82.4697ZM191.641 67.621C171.144 56.7749 145.73 64.5997 134.884 85.0966L134.389 86.0615C124.285 106.385 132.183 131.177 152.359 141.853C172.536 152.53 197.478 145.115 208.598 125.329L209.116 124.378C219.793 104.201 212.377 79.2597 192.592 68.1396L191.641 67.621Z" fill="#20303F"/>
<defs>
<linearGradient id="paint0_linear_4576_4068" x1="165.291" y1="47.117" x2="173.274" y2="132.024" gradientUnits="userSpaceOnUse">
<stop stop-color="#1D8C21"/>
<stop offset="0.32" stop-color="#7BFB80"/>
<stop offset="0.54" stop-color="#E9FCE7"/>
<stop offset="0.77" stop-color="#51F74E"/>
<stop offset="1" stop-color="#44D441"/>
</linearGradient>
<linearGradient id="paint1_linear_4576_4068" x1="190.914" y1="40.2308" x2="183.548" y2="152.108" gradientUnits="userSpaceOnUse">
<stop stop-color="#7A96AC"/>
<stop offset="0.18" stop-color="#EAEFF3"/>
<stop offset="0.31" stop-color="#C2D4E1"/>
<stop offset="0.49" stop-color="white"/>
<stop offset="0.62" stop-color="#D4DEE5"/>
<stop offset="0.79" stop-color="#ABBDC8"/>
<stop offset="0.95" stop-color="#BCCAD7"/>
</linearGradient>
<linearGradient id="paint2_linear_4576_4068" x1="165.291" y1="47.117" x2="173.274" y2="132.024" gradientUnits="userSpaceOnUse">
<stop stop-color="#1D8C21"/>
<stop offset="0.32" stop-color="#7BFB80"/>
<stop offset="0.54" stop-color="#E9FCE7"/>
<stop offset="0.77" stop-color="#51F74E"/>
<stop offset="1" stop-color="#44D441"/>
</linearGradient>
<linearGradient id="paint3_linear_4576_4068" x1="190.914" y1="40.2308" x2="183.548" y2="152.108" gradientUnits="userSpaceOnUse">
<stop stop-color="#7A96AC"/>
<stop offset="0.18" stop-color="#EAEFF3"/>
<stop offset="0.31" stop-color="#C2D4E1"/>
<stop offset="0.49" stop-color="white"/>
<stop offset="0.62" stop-color="#D4DEE5"/>
<stop offset="0.79" stop-color="#ABBDC8"/>
<stop offset="0.95" stop-color="#BCCAD7"/>
</linearGradient>
<linearGradient id="paint4_linear_4576_4068" x1="178.885" y1="47.1168" x2="170.901" y2="132.024" gradientUnits="userSpaceOnUse">
<stop stop-color="#1D8C21"/>
<stop offset="0.32" stop-color="#7BFB80"/>
<stop offset="0.54" stop-color="#E9FCE7"/>
<stop offset="0.77" stop-color="#51F74E"/>
<stop offset="1" stop-color="#44D441"/>
</linearGradient>
<linearGradient id="paint5_linear_4576_4068" x1="153.262" y1="40.2303" x2="160.627" y2="152.108" gradientUnits="userSpaceOnUse">
<stop stop-color="#7A96AC"/>
<stop offset="0.18" stop-color="#EAEFF3"/>
<stop offset="0.31" stop-color="#C2D4E1"/>
<stop offset="0.49" stop-color="white"/>
<stop offset="0.62" stop-color="#D4DEE5"/>
<stop offset="0.79" stop-color="#ABBDC8"/>
<stop offset="0.95" stop-color="#BCCAD7"/>
</linearGradient>
<linearGradient id="paint6_linear_4576_4068" x1="178.885" y1="47.1168" x2="170.901" y2="132.024" gradientUnits="userSpaceOnUse">
<stop stop-color="#1D8C21"/>
<stop offset="0.32" stop-color="#7BFB80"/>
<stop offset="0.54" stop-color="#E9FCE7"/>
<stop offset="0.77" stop-color="#51F74E"/>
<stop offset="1" stop-color="#44D441"/>
</linearGradient>
<linearGradient id="paint7_linear_4576_4068" x1="153.262" y1="40.2303" x2="160.627" y2="152.108" gradientUnits="userSpaceOnUse">
<stop stop-color="#7A96AC"/>
<stop offset="0.18" stop-color="#EAEFF3"/>
<stop offset="0.31" stop-color="#C2D4E1"/>
<stop offset="0.49" stop-color="white"/>
<stop offset="0.62" stop-color="#D4DEE5"/>
<stop offset="0.79" stop-color="#ABBDC8"/>
<stop offset="0.95" stop-color="#BCCAD7"/>
</linearGradient>
<linearGradient id="paint8_linear_4576_4068" x1="147.921" y1="61.384" x2="195.44" y2="149.633" gradientUnits="userSpaceOnUse">
<stop stop-color="#1D8C21"/>
<stop offset="0.32" stop-color="#7BFB80"/>
<stop offset="0.54" stop-color="#E9FCE7"/>
<stop offset="0.77" stop-color="#51F74E"/>
<stop offset="1" stop-color="#44D441"/>
</linearGradient>
<linearGradient id="paint9_linear_4576_4068" x1="131.049" y1="64.519" x2="209.818" y2="151.842" gradientUnits="userSpaceOnUse">
<stop stop-color="#7A96AC"/>
<stop offset="0.18" stop-color="#EAEFF3"/>
<stop offset="0.31" stop-color="#C2D4E1"/>
<stop offset="0.49" stop-color="white"/>
<stop offset="0.62" stop-color="#D4DEE5"/>
<stop offset="0.79" stop-color="#ABBDC8"/>
<stop offset="0.95" stop-color="#BCCAD7"/>
</linearGradient>
</defs>
</svg>
