<svg width="345" height="153" viewBox="0 0 345 153" fill="none" xmlns="http://www.w3.org/2000/svg">
<path d="M300.456 61.1466C300.456 61.1466 299.113 52.3949 306.903 45.6101C314.7 38.8367 323.661 39.6006 323.661 39.6006C323.661 39.6006 324.973 49.8702 317.375 56.4741C309.779 63.0864 300.456 61.1466 300.456 61.1466ZM284.877 58.167C284.877 58.167 276.953 52.8911 276.328 42.8355C275.701 32.7852 283.939 26.5166 283.939 26.5166C283.939 26.5166 290.768 32.3613 291.415 42.6811C292.058 52.9926 284.877 58.167 284.877 58.167ZM278.588 67.4966C277.88 77.8063 270.083 82.0075 270.083 82.0075C270.083 82.0075 262.911 75.7336 263.601 65.6947C264.303 55.6479 273.288 50.5089 273.288 50.5089C273.288 50.5089 279.296 57.1869 278.588 67.4966ZM256.183 63.6576C256.183 63.6576 261.536 70.8826 259.865 81.0705C258.186 91.2745 250.038 94.7199 250.038 94.7199C250.038 94.7199 243.495 87.8073 245.124 77.8699C246.759 67.9355 256.183 63.6576 256.183 63.6576ZM225.352 105.054C225.352 105.054 221.072 96.5406 225.492 87.4963C229.921 78.4497 240.182 77.0769 240.182 77.0769C240.182 77.0769 243.23 85.5361 238.692 94.8165C234.153 104.089 225.352 105.054 225.352 105.054ZM298.982 38.9058C298.982 38.9058 293.005 32.3718 295.727 22.4111C298.444 12.4474 306.318 8.10694 306.318 8.10694C306.318 8.10694 313.105 15.9187 310.454 25.6385C307.8 35.3499 298.982 38.9058 298.982 38.9058ZM290.097 79.7854C290.097 79.7854 291.4 71.0265 300.839 66.848C310.291 62.6701 318.625 66.0362 318.625 66.0362C318.625 66.0362 316.849 76.2359 307.643 80.3122C298.434 84.3938 290.097 79.7854 290.097 79.7854ZM273.386 95.5153C273.386 95.5153 276.606 87.2684 286.735 85.2893C296.877 83.3108 304.253 88.4501 304.253 88.4501C304.253 88.4501 300.257 98.0039 290.38 99.9337C280.495 101.852 273.386 95.5153 273.386 95.5153ZM255.335 106.168C255.335 106.168 260.887 99.2742 271.145 100.465C281.414 101.649 286.885 108.777 286.885 108.777C286.885 108.777 280.181 116.671 270.179 115.524C260.185 114.361 255.335 106.168 255.335 106.168ZM247.638 110.481C257.684 112.886 262.272 120.617 262.272 120.617C262.272 120.617 254.679 127.652 244.891 125.313C235.092 122.969 231.26 114.256 231.26 114.256C231.26 114.256 237.595 108.071 247.638 110.481Z" fill="white"/>
<path d="M300.456 61.1466C300.456 61.1466 299.113 52.3949 306.903 45.6101C314.7 38.8367 323.661 39.6006 323.661 39.6006C323.661 39.6006 324.973 49.8702 317.375 56.4741C309.779 63.0864 300.456 61.1466 300.456 61.1466ZM284.877 58.167C284.877 58.167 276.953 52.8911 276.328 42.8355C275.701 32.7852 283.939 26.5166 283.939 26.5166C283.939 26.5166 290.768 32.3613 291.415 42.6811C292.058 52.9926 284.877 58.167 284.877 58.167ZM278.588 67.4966C277.88 77.8063 270.083 82.0075 270.083 82.0075C270.083 82.0075 262.911 75.7336 263.601 65.6947C264.303 55.6479 273.288 50.5089 273.288 50.5089C273.288 50.5089 279.296 57.1869 278.588 67.4966ZM256.183 63.6576C256.183 63.6576 261.536 70.8826 259.865 81.0705C258.186 91.2745 250.038 94.7199 250.038 94.7199C250.038 94.7199 243.495 87.8073 245.124 77.8699C246.759 67.9355 256.183 63.6576 256.183 63.6576ZM225.352 105.054C225.352 105.054 221.072 96.5406 225.492 87.4963C229.921 78.4497 240.182 77.0769 240.182 77.0769C240.182 77.0769 243.23 85.5361 238.692 94.8165C234.153 104.089 225.352 105.054 225.352 105.054ZM298.982 38.9058C298.982 38.9058 293.005 32.3718 295.727 22.4111C298.444 12.4474 306.318 8.10694 306.318 8.10694C306.318 8.10694 313.105 15.9187 310.454 25.6385C307.8 35.3499 298.982 38.9058 298.982 38.9058ZM290.097 79.7854C290.097 79.7854 291.4 71.0265 300.839 66.848C310.291 62.6701 318.625 66.0362 318.625 66.0362C318.625 66.0362 316.849 76.2359 307.643 80.3122C298.434 84.3938 290.097 79.7854 290.097 79.7854ZM273.386 95.5153C273.386 95.5153 276.606 87.2684 286.735 85.2893C296.877 83.3108 304.253 88.4501 304.253 88.4501C304.253 88.4501 300.257 98.0039 290.38 99.9337C280.495 101.852 273.386 95.5153 273.386 95.5153ZM255.335 106.168C255.335 106.168 260.887 99.2742 271.145 100.465C281.414 101.649 286.885 108.777 286.885 108.777C286.885 108.777 280.181 116.671 270.179 115.524C260.185 114.361 255.335 106.168 255.335 106.168ZM247.638 110.481C257.684 112.886 262.272 120.617 262.272 120.617C262.272 120.617 254.679 127.652 244.891 125.313C235.092 122.969 231.26 114.256 231.26 114.256C231.26 114.256 237.595 108.071 247.638 110.481Z" fill="url(#paint0_linear_4524_33614)"/>
<path d="M295.179 43.6248L300.102 43.874C300.07 44.41 296.465 97.7024 214.033 114.39L213.058 109.564C291.544 93.6691 295.071 45.6602 295.179 43.6248Z" fill="white"/>
<path d="M295.179 43.6248L300.102 43.874C300.07 44.41 296.465 97.7024 214.033 114.39L213.058 109.564C291.544 93.6691 295.071 45.6602 295.179 43.6248Z" fill="url(#paint1_linear_4524_33614)"/>
<path d="M310.58 4.40436L306.318 8.10674C310.508 4.46666 310.58 4.40671 310.583 4.40741C310.583 4.408 310.585 4.4101 310.586 4.41134C310.588 4.41383 310.591 4.41686 310.593 4.41962C310.598 4.42495 310.602 4.43122 310.608 4.43749C310.619 4.45048 310.632 4.46541 310.647 4.48239C310.676 4.51646 310.711 4.5589 310.752 4.60881C310.834 4.70865 310.94 4.84043 311.065 5.00205C311.316 5.32476 311.646 5.77086 312.021 6.3285C312.767 7.43751 313.716 9.02503 314.564 10.9938C316.25 14.9059 317.668 20.644 315.9 27.1242L315.899 27.1268C314.862 30.9224 313.096 33.9731 311.165 36.3711C313.292 35.4674 315.311 34.8937 317.077 34.5334C319.037 34.1336 320.717 33.9888 321.939 33.9453C322.551 33.9236 323.055 33.9272 323.427 33.9381C323.613 33.9436 323.768 33.9511 323.887 33.9581C323.947 33.9616 323.999 33.9643 324.041 33.9674C324.062 33.9689 324.081 33.9703 324.098 33.9716C324.106 33.9723 324.114 33.9736 324.121 33.9742C324.124 33.9745 324.128 33.9743 324.131 33.9746C324.132 33.9747 324.135 33.9754 324.136 33.9755C324.138 33.9757 324.14 33.9757 323.66 39.6008C323.594 39.5952 314.67 38.8624 306.902 45.6104C299.113 52.395 300.456 61.1469 300.456 61.1469C300.456 61.1469 309.779 63.0862 317.375 56.4742C324.958 49.8829 323.665 39.6399 323.66 39.6008C329.26 38.8853 329.261 38.8878 329.261 38.8901C329.261 38.891 329.262 38.8927 329.262 38.894C329.263 38.8972 329.263 38.901 329.263 38.9045C329.264 38.9116 329.265 38.9197 329.266 38.9281C329.268 38.9451 329.27 38.965 329.273 38.987C329.278 39.0314 329.284 39.0864 329.291 39.1508C329.304 39.2794 329.319 39.4477 329.334 39.6516C329.363 40.059 329.39 40.6135 329.392 41.2857C329.398 42.6224 329.307 44.4697 328.921 46.5782C328.153 50.7674 326.148 56.3266 321.08 60.7321L321.082 60.7325C321.027 60.7803 320.97 60.826 320.915 60.8731L324.969 62.5098L324.187 67.0042L318.625 66.0359L320.603 61.1371C320.601 61.139 320.598 61.1409 320.596 61.1428C320.392 61.651 319.887 62.9118 318.625 66.0359C318.625 66.0359 310.291 62.6701 300.839 66.848C291.436 71.0107 290.107 79.7189 290.097 79.785C290.097 79.785 298.434 84.3938 307.643 80.3124C316.849 76.2361 318.625 66.0359 318.625 66.0359C324.187 67.004 324.186 67.0067 324.186 67.009L324.179 67.0474C324.176 67.0642 324.172 67.0837 324.168 67.1055C324.16 67.1493 324.15 67.2031 324.137 67.2663C324.112 67.393 324.076 67.5583 324.03 67.7574C323.938 68.1552 323.8 68.6933 323.605 69.3363C323.216 70.6151 322.583 72.3535 321.593 74.2544C319.624 78.0318 316.069 82.7555 309.929 85.4744C309.914 85.481 309.898 85.4862 309.883 85.4928L311.219 86.4236L309.461 90.628L304.252 88.4505L305.246 87.0228L305.244 87.0228C304.953 87.4412 304.625 87.9159 304.252 88.4505C304.252 88.4505 296.877 83.3106 286.734 85.2891C276.606 87.2683 273.386 95.5153 273.386 95.5153C273.386 95.5153 280.496 101.852 290.38 99.9335L290.838 99.8377C300.344 97.716 304.222 88.522 304.252 88.4505C309.325 90.5721 309.457 90.6288 309.459 90.6323C309.459 90.6331 309.458 90.6352 309.457 90.6367C309.456 90.6397 309.454 90.643 309.453 90.6463C309.45 90.6529 309.448 90.6604 309.444 90.6682C309.438 90.684 309.429 90.7024 309.421 90.7228C309.403 90.7638 309.381 90.8142 309.354 90.8732C309.301 90.9911 309.23 91.1441 309.141 91.3279C308.963 91.6954 308.71 92.1901 308.376 92.7738C307.713 93.9345 306.711 95.4892 305.324 97.123C302.567 100.369 298.053 104.185 291.465 105.473L294.139 108.957L291.188 112.432L286.885 108.777L291.103 105.539C291.1 105.54 291.097 105.54 291.093 105.541C290.678 105.861 289.614 106.683 286.885 108.777C286.863 108.749 281.394 101.646 271.145 100.465C260.887 99.2743 255.335 106.168 255.335 106.168C255.367 106.222 260.219 114.365 270.179 115.524C280.181 116.671 286.885 108.777 286.885 108.777C291.022 112.29 291.18 112.428 291.185 112.434L291.174 112.446C291.17 112.452 291.165 112.458 291.16 112.465C291.148 112.478 291.135 112.493 291.121 112.509C291.091 112.543 291.055 112.585 291.012 112.633C290.926 112.729 290.812 112.853 290.671 113.001C290.389 113.297 289.998 113.691 289.503 114.147C288.52 115.052 287.093 116.23 285.276 117.367C281.664 119.626 276.207 121.897 269.536 121.132L269.527 121.132C269.386 121.115 269.247 121.096 269.108 121.077L269.454 121.659L266.109 124.758L262.271 120.617L263.731 119.751L263.73 119.749C263.3 120.004 262.817 120.293 262.271 120.617C262.244 120.572 257.796 113.118 248.104 110.598L247.638 110.481C237.62 108.077 231.291 114.225 231.26 114.255C231.26 114.255 235.092 122.968 244.891 125.313C254.679 127.651 262.271 120.617 262.271 120.617C266.108 124.758 266.107 124.76 266.105 124.761C266.104 124.762 266.102 124.763 266.101 124.764C266.099 124.767 266.096 124.769 266.094 124.771C266.088 124.776 266.083 124.782 266.077 124.788C266.064 124.799 266.049 124.813 266.032 124.827C265.999 124.857 265.959 124.894 265.91 124.937C265.813 125.022 265.685 125.132 265.527 125.263C265.213 125.523 264.777 125.868 264.232 126.26C263.148 127.042 261.592 128.041 259.652 128.952C255.798 130.763 250.109 132.364 243.579 130.804L243.577 130.804C237.245 129.289 232.886 125.718 230.17 122.643C228.809 121.102 227.826 119.65 227.171 118.559C226.871 118.059 226.637 117.628 226.463 117.292C222.858 118.245 219.09 119.126 215.154 119.923L209.619 121.043L206.406 105.151L211.937 104.031C214.22 103.568 216.435 103.078 218.584 102.563C218.438 101.94 218.303 101.267 218.189 100.552C217.546 96.5004 217.563 90.8638 220.42 85.0178L220.422 85.0147C223.376 78.9804 228.234 75.6109 232.086 73.7904C234.024 72.8742 235.786 72.3104 237.079 71.9717C237.73 71.8014 238.273 71.685 238.674 71.6084C238.875 71.57 239.041 71.5418 239.169 71.5212C239.233 71.511 239.287 71.502 239.331 71.4956C239.353 71.4923 239.373 71.49 239.39 71.4876C239.399 71.4864 239.406 71.4846 239.414 71.4836L239.429 71.4822C239.432 71.4894 239.453 71.6506 239.922 75.1541C239.922 75.1527 239.923 75.1515 239.923 75.1501L239.433 71.4814L241.279 71.2345C242.931 67.5663 245.327 64.7946 247.483 62.8478C249.074 61.4115 250.598 60.3636 251.738 59.666C252.311 59.3152 252.797 59.0467 253.159 58.8576C253.34 58.7628 253.492 58.6873 253.608 58.6308C253.666 58.6026 253.716 58.5786 253.756 58.5597C253.776 58.5503 253.794 58.5423 253.809 58.5351C253.817 58.5315 253.825 58.5281 253.831 58.525C253.834 58.5236 253.837 58.5219 253.84 58.5206C253.841 58.52 253.844 58.5197 253.845 58.5193C253.847 58.5184 253.849 58.5173 256.109 63.4975L253.849 58.5171L258.002 56.6314L259.461 58.6009C260.776 55.1948 262.732 52.494 264.55 50.5149C266.001 48.9363 267.42 47.7505 268.49 46.9495C269.028 46.5467 269.487 46.2345 269.83 46.0124C270.001 45.9012 270.144 45.8113 270.255 45.7442C270.31 45.7106 270.357 45.6827 270.396 45.66C270.415 45.6488 270.432 45.6388 270.446 45.6302C270.454 45.6259 270.462 45.622 270.468 45.6184C270.471 45.6167 270.473 45.6147 270.476 45.6131C270.478 45.6123 270.48 45.6114 270.48 45.6109C270.482 45.6102 270.48 45.6111 271.191 46.8519C271.19 46.8479 271.189 46.844 271.188 46.8401L270.485 45.6087L270.924 45.3575C270.819 44.6545 270.74 43.9303 270.694 43.1853C270.276 36.4816 272.83 31.1512 275.277 27.6642C276.508 25.9094 277.761 24.5483 278.717 23.6142C279.198 23.1444 279.613 22.7743 279.923 22.5093C280.079 22.3766 280.21 22.2697 280.311 22.1887C280.361 22.1484 280.404 22.1145 280.439 22.0871C280.457 22.0734 280.473 22.0608 280.486 22.0503C280.493 22.0451 280.499 22.0399 280.505 22.0354L280.517 22.0262C280.519 22.0248 280.521 22.0235 283.881 26.4386L280.521 22.024L284.147 19.2642L287.61 22.2277L283.939 26.5162C287.581 22.2616 287.612 22.2291 287.614 22.2303L287.625 22.2408C287.631 22.2454 287.637 22.2506 287.643 22.256C287.656 22.2669 287.67 22.2796 287.686 22.2935C287.718 22.3214 287.756 22.3553 287.801 22.3954C287.89 22.4758 288.003 22.581 288.138 22.71C288.407 22.9679 288.763 23.3238 289.178 23.7755C289.312 23.9226 289.452 24.0816 289.6 24.2498C289.721 23.3631 289.893 22.4522 290.126 21.5195L290.281 20.923C291.956 14.7826 295.219 10.388 298.03 7.54978C299.437 6.12871 300.753 5.07553 301.744 4.36089C302.241 4.00257 302.662 3.72626 302.978 3.52839C303.136 3.42936 303.269 3.34929 303.373 3.28863C303.424 3.25834 303.469 3.23283 303.506 3.21191C303.524 3.20146 303.54 3.19199 303.555 3.18385C303.562 3.17977 303.569 3.17595 303.575 3.17245C303.579 3.1707 303.582 3.16923 303.585 3.16762C303.586 3.16684 303.588 3.16493 303.589 3.16456C303.592 3.16493 303.64 3.24777 306.233 7.95276L303.592 3.1628L307.588 0.960747L310.58 4.40436ZM295.179 43.6245C295.07 45.6599 291.544 93.6691 213.058 109.564L214.033 114.389C296.464 97.7022 300.07 44.4096 300.102 43.8736L295.179 43.6245ZM256.182 63.6576C256.114 63.6887 246.753 67.9716 245.124 77.8696C243.494 87.807 250.039 94.7202 250.039 94.7202C250.095 94.6964 257.939 91.3463 259.782 81.5444L259.866 81.0703C261.327 72.1565 257.412 65.5107 256.41 63.9881L256.182 63.6576C257.115 62.9666 257.857 62.4189 258.446 61.983C258.446 61.9818 258.446 61.9806 258.446 61.9795L256.182 63.6576ZM240.182 77.0773C240.13 77.0843 229.909 78.4733 225.492 87.4969C221.072 96.5409 225.352 105.054 225.352 105.054C225.361 105.053 233.882 104.114 238.476 95.2452L238.692 94.8163C243.214 85.5682 240.203 77.1358 240.182 77.0773ZM273.287 50.5088C273.241 50.5355 264.302 55.6739 263.602 65.6944C262.911 75.7333 270.083 82.0078 270.083 82.0078C270.083 82.0078 277.638 77.9365 278.549 67.9753L278.588 67.4966C279.296 57.1869 273.287 50.5088 273.287 50.5088ZM328.683 34.3629L329.261 38.8849L323.66 39.6008L324.14 33.9755L328.683 34.3629ZM283.939 26.5162C283.939 26.5162 275.701 32.7854 276.329 42.8357L276.363 43.3038C277.199 53.0549 284.877 58.1668 284.877 58.1668C284.425 58.845 284.037 59.4241 283.706 59.9207C283.706 59.9217 283.706 59.9227 283.707 59.9237L284.877 58.1668C284.92 58.1357 292.056 52.9612 291.415 42.6807C290.768 32.3611 283.939 26.5162 283.939 26.5162ZM306.318 8.10674C306.318 8.10674 298.444 12.4473 295.727 22.4108L295.606 22.8753C293.19 32.5742 298.981 38.906 298.981 38.906C298.981 38.906 307.527 35.4603 310.325 26.0896L310.454 25.639C313.1 15.9372 306.343 8.13544 306.318 8.10674Z" fill="#20303F"/>
<path d="M44.1878 61.1466C44.1878 61.1466 45.5309 52.3949 37.7411 45.6101C29.9437 38.8367 20.9828 39.6006 20.9828 39.6006C20.9828 39.6006 19.6708 49.8702 27.2688 56.4741C34.8645 63.0864 44.1878 61.1466 44.1878 61.1466ZM59.7669 58.167C59.7669 58.167 67.6904 52.8911 68.3153 42.8355C68.9432 32.7852 60.7045 26.5166 60.7045 26.5166C60.7045 26.5166 53.8754 32.3613 53.2292 42.6811C52.5854 52.9926 59.7669 58.167 59.7669 58.167ZM66.056 67.4966C66.764 77.8063 74.5609 82.0075 74.5609 82.0075C74.5609 82.0075 81.733 75.7336 81.0424 65.6947C80.3405 55.6479 71.3562 50.5089 71.3562 50.5089C71.3562 50.5089 65.348 57.1869 66.056 67.4966ZM88.4611 63.6576C88.4611 63.6576 83.1076 70.8826 84.7782 81.0705C86.4578 91.2745 94.6054 94.7199 94.6054 94.7199C94.6054 94.7199 101.149 87.8073 99.5195 77.8699C97.8847 67.9355 88.4611 63.6576 88.4611 63.6576ZM119.292 105.054C119.292 105.054 123.572 96.5406 119.151 87.4963C114.723 78.4497 104.462 77.0769 104.462 77.0769C104.462 77.0769 101.414 85.5361 105.951 94.8165C110.491 104.089 119.292 105.054 119.292 105.054ZM45.6622 38.9058C45.6622 38.9058 51.6383 32.3718 48.9164 22.4111C46.1999 12.4474 38.3256 8.10694 38.3256 8.10694C38.3256 8.10694 31.5391 15.9187 34.1901 25.6385C36.8434 35.3499 45.6622 38.9058 45.6622 38.9058ZM54.5467 79.7854C54.5467 79.7854 53.2433 71.0265 43.8048 66.848C34.3527 62.6701 26.0189 66.0362 26.0189 66.0362C26.0189 66.0362 27.7943 76.2359 37.0006 80.3122C46.21 84.3938 54.5467 79.7854 54.5467 79.7854ZM71.2576 95.5153C71.2576 95.5153 68.038 87.2684 57.9091 85.2893C47.7666 83.3108 40.391 88.4501 40.391 88.4501C40.391 88.4501 44.3866 98.0039 54.2637 99.9337C64.1486 101.852 71.2576 95.5153 71.2576 95.5153ZM89.3086 106.168C89.3086 106.168 83.7572 99.2742 73.4989 100.465C63.2292 101.649 57.7591 108.777 57.7591 108.777C57.7591 108.777 64.4623 116.671 74.4648 115.524C84.4584 114.361 89.3086 106.168 89.3086 106.168ZM97.0062 110.481C86.9602 112.886 82.3722 120.617 82.3722 120.617C82.3722 120.617 89.9645 127.652 99.7528 125.313C109.552 122.969 113.384 114.256 113.384 114.256C113.384 114.256 107.049 108.071 97.0062 110.481Z" fill="white"/>
<path d="M44.1878 61.1466C44.1878 61.1466 45.5309 52.3949 37.7411 45.6101C29.9437 38.8367 20.9828 39.6006 20.9828 39.6006C20.9828 39.6006 19.6708 49.8702 27.2688 56.4741C34.8645 63.0864 44.1878 61.1466 44.1878 61.1466ZM59.7669 58.167C59.7669 58.167 67.6904 52.8911 68.3153 42.8355C68.9432 32.7852 60.7045 26.5166 60.7045 26.5166C60.7045 26.5166 53.8754 32.3613 53.2292 42.6811C52.5854 52.9926 59.7669 58.167 59.7669 58.167ZM66.056 67.4966C66.764 77.8063 74.5609 82.0075 74.5609 82.0075C74.5609 82.0075 81.733 75.7336 81.0424 65.6947C80.3405 55.6479 71.3562 50.5089 71.3562 50.5089C71.3562 50.5089 65.348 57.1869 66.056 67.4966ZM88.4611 63.6576C88.4611 63.6576 83.1076 70.8826 84.7782 81.0705C86.4578 91.2745 94.6054 94.7199 94.6054 94.7199C94.6054 94.7199 101.149 87.8073 99.5195 77.8699C97.8847 67.9355 88.4611 63.6576 88.4611 63.6576ZM119.292 105.054C119.292 105.054 123.572 96.5406 119.151 87.4963C114.723 78.4497 104.462 77.0769 104.462 77.0769C104.462 77.0769 101.414 85.5361 105.951 94.8165C110.491 104.089 119.292 105.054 119.292 105.054ZM45.6622 38.9058C45.6622 38.9058 51.6383 32.3718 48.9164 22.4111C46.1999 12.4474 38.3256 8.10694 38.3256 8.10694C38.3256 8.10694 31.5391 15.9187 34.1901 25.6385C36.8434 35.3499 45.6622 38.9058 45.6622 38.9058ZM54.5467 79.7854C54.5467 79.7854 53.2433 71.0265 43.8048 66.848C34.3527 62.6701 26.0189 66.0362 26.0189 66.0362C26.0189 66.0362 27.7943 76.2359 37.0006 80.3122C46.21 84.3938 54.5467 79.7854 54.5467 79.7854ZM71.2576 95.5153C71.2576 95.5153 68.038 87.2684 57.9091 85.2893C47.7666 83.3108 40.391 88.4501 40.391 88.4501C40.391 88.4501 44.3866 98.0039 54.2637 99.9337C64.1486 101.852 71.2576 95.5153 71.2576 95.5153ZM89.3086 106.168C89.3086 106.168 83.7572 99.2742 73.4989 100.465C63.2292 101.649 57.7591 108.777 57.7591 108.777C57.7591 108.777 64.4623 116.671 74.4648 115.524C84.4584 114.361 89.3086 106.168 89.3086 106.168ZM97.0062 110.481C86.9602 112.886 82.3722 120.617 82.3722 120.617C82.3722 120.617 89.9645 127.652 99.7528 125.313C109.552 122.969 113.384 114.256 113.384 114.256C113.384 114.256 107.049 108.071 97.0062 110.481Z" fill="url(#paint2_linear_4524_33614)"/>
<path d="M49.4642 43.6248L44.542 43.874C44.5738 44.41 48.1792 97.7024 130.61 114.39L131.586 109.564C53.0997 93.6691 49.5728 45.6602 49.4642 43.6248Z" fill="white"/>
<path d="M49.4642 43.6248L44.542 43.874C44.5738 44.41 48.1792 97.7024 130.61 114.39L131.586 109.564C53.0997 93.6691 49.5728 45.6602 49.4642 43.6248Z" fill="url(#paint3_linear_4524_33614)"/>
<path d="M34.0634 4.40436L38.3252 8.10674C34.1352 4.46666 34.0635 4.40671 34.0608 4.40741C34.0603 4.408 34.0588 4.4101 34.0578 4.41134C34.0556 4.41383 34.0527 4.41686 34.0503 4.41962C34.0457 4.42495 34.0412 4.43122 34.0359 4.43749C34.0247 4.45048 34.0113 4.46541 33.9969 4.48239C33.968 4.51646 33.9329 4.5589 33.8918 4.60881C33.8096 4.70865 33.7036 4.84043 33.5782 5.00205C33.328 5.32476 32.9979 5.77086 32.6228 6.3285C31.8768 7.43751 30.9279 9.02503 30.0795 10.9938C28.3935 14.9059 26.9761 20.644 28.7434 27.1242L28.7443 27.1268C29.7814 30.9224 31.5473 33.9731 33.4783 36.3711C31.3522 35.4674 29.333 34.8937 27.5663 34.5334C25.6062 34.1336 23.9266 33.9888 22.705 33.9453C22.0926 33.9236 21.5892 33.9272 21.2167 33.9381C21.0303 33.9436 20.8759 33.9511 20.7563 33.9581C20.6965 33.9616 20.6452 33.9643 20.603 33.9674C20.5819 33.9689 20.5628 33.9703 20.5462 33.9716C20.5379 33.9723 20.5302 33.9736 20.523 33.9742C20.5196 33.9745 20.5162 33.9743 20.513 33.9746C20.5115 33.9747 20.5092 33.9754 20.5082 33.9755C20.5059 33.9757 20.5037 33.9757 20.9832 39.6008C21.0502 39.5952 29.9733 38.8624 37.7414 45.6104C45.5309 52.395 44.188 61.1469 44.188 61.1469C44.188 61.1469 34.8648 63.0862 27.2692 56.4742C19.6856 49.8829 20.9783 39.6399 20.9832 39.6008C15.3833 38.8853 15.3827 38.8878 15.3824 38.8901C15.3823 38.891 15.3817 38.8927 15.3815 38.894C15.3811 38.8972 15.381 38.901 15.3806 38.9045C15.3797 38.9116 15.3785 38.9197 15.3775 38.9281C15.3754 38.9451 15.3733 38.965 15.3708 38.987C15.3657 39.0314 15.3595 39.0864 15.353 39.1508C15.34 39.2794 15.3246 39.4477 15.31 39.6516C15.2808 40.059 15.254 40.6135 15.2513 41.2857C15.246 42.6224 15.3368 44.4697 15.7232 46.5782C16.4908 50.7674 18.4962 56.3266 23.5633 60.7321L23.562 60.7325C23.6169 60.7803 23.6735 60.826 23.7285 60.8731L19.6746 62.5098L20.457 67.0042L26.0187 66.0359L24.0406 61.1371C24.0429 61.139 24.0453 61.1409 24.0476 61.1428C24.2516 61.651 24.7569 62.9118 26.0187 66.0359C26.0187 66.0359 34.3529 62.6701 43.8051 66.848C53.2075 71.0107 54.537 79.7189 54.5469 79.785C54.5469 79.785 46.2101 84.3938 37.0009 80.3124C27.7945 76.2361 26.0187 66.0359 26.0187 66.0359C20.4571 67.004 20.4575 67.0067 20.4579 67.009L20.4648 67.0474C20.4678 67.0642 20.4719 67.0837 20.476 67.1055C20.4842 67.1493 20.4939 67.2031 20.5066 67.2663C20.5322 67.393 20.5677 67.5583 20.6139 67.7574C20.7061 68.1552 20.8432 68.6933 21.0388 69.3363C21.4279 70.6151 22.0602 72.3535 23.051 74.2544C25.0198 78.0318 28.5745 82.7555 34.715 85.4744C34.73 85.481 34.7455 85.4862 34.7604 85.4928L33.4246 86.4236L35.1824 90.628L40.3913 88.4505L39.3973 87.0228L39.3995 87.0228C39.691 87.4412 40.0187 87.9159 40.3913 88.4505C40.3913 88.4505 47.7669 83.3106 57.9095 85.2891C68.0381 87.2683 71.258 95.5153 71.258 95.5153C71.258 95.5153 64.1482 101.852 54.2633 99.9335L53.8054 99.8377C44.2999 97.716 40.4213 88.522 40.3913 88.4505C35.3184 90.5721 35.1871 90.6288 35.1845 90.6323C35.1849 90.6331 35.1861 90.6352 35.1867 90.6367C35.188 90.6397 35.1892 90.643 35.1906 90.6463C35.1934 90.6529 35.196 90.6604 35.1993 90.6682C35.206 90.684 35.2143 90.7024 35.2232 90.7228C35.241 90.7638 35.2632 90.8142 35.2897 90.8732C35.3427 90.9911 35.4135 91.1441 35.5027 91.3279C35.681 91.6954 35.9342 92.1901 36.2677 92.7738C36.9308 93.9345 37.9325 95.4892 39.3201 97.123C42.0771 100.369 46.5904 104.185 53.179 105.473L50.505 108.957L53.4558 112.432L57.7591 108.777L53.5404 105.539C53.5438 105.54 53.5471 105.54 53.5505 105.541C53.966 105.861 55.0295 106.683 57.7591 108.777C57.7809 108.749 63.2498 101.646 73.4989 100.465C83.7572 99.2743 89.3084 106.168 89.3084 106.168C89.2764 106.222 84.4252 114.365 74.4646 115.524C64.4623 116.671 57.7591 108.777 57.7591 108.777C53.6221 112.29 53.4636 112.428 53.4589 112.434L53.4693 112.446C53.474 112.452 53.4786 112.458 53.4841 112.465C53.4953 112.478 53.5083 112.493 53.5229 112.509C53.5522 112.543 53.5883 112.585 53.6314 112.633C53.7176 112.729 53.8322 112.853 53.973 113.001C54.2542 113.297 54.6457 113.691 55.1405 114.147C56.1242 115.052 57.5502 116.23 59.368 117.367C62.9795 119.626 68.4372 121.897 75.1078 121.132L75.117 121.132C75.2573 121.115 75.3969 121.096 75.5355 121.077L75.1897 121.659L78.5348 124.758L82.3723 120.617L80.9124 119.751L80.9142 119.749C81.3439 120.004 81.827 120.293 82.3723 120.617C82.3993 120.572 86.8477 113.118 96.5397 110.598L97.0059 110.481C107.024 108.077 113.352 114.225 113.384 114.255C113.384 114.255 109.552 122.968 99.7527 125.313C89.9644 127.651 82.3723 120.617 82.3723 120.617C78.5353 124.758 78.537 124.76 78.5387 124.761C78.5394 124.762 78.5415 124.763 78.5426 124.764C78.545 124.767 78.5474 124.769 78.55 124.771C78.5553 124.776 78.5608 124.782 78.567 124.788C78.5797 124.799 78.5949 124.813 78.6115 124.827C78.6446 124.857 78.685 124.894 78.7335 124.937C78.8307 125.022 78.9588 125.132 79.1163 125.263C79.4308 125.523 79.8662 125.868 80.4116 126.26C81.4959 127.042 83.0516 128.041 84.9914 128.952C88.8458 130.763 94.5347 132.364 101.065 130.804L101.067 130.804C107.399 129.289 111.758 125.718 114.474 122.643C115.834 121.102 116.818 119.65 117.472 118.559C117.773 118.059 118.007 117.628 118.18 117.292C121.786 118.245 125.553 119.126 129.49 119.923L135.025 121.043L138.238 105.151L132.706 104.031C130.424 103.568 128.209 103.078 126.06 102.563C126.206 101.94 126.341 101.267 126.454 100.552C127.098 96.5004 127.081 90.8638 124.224 85.0178L124.222 85.0147C121.268 78.9804 116.41 75.6109 112.558 73.7904C110.619 72.8742 108.858 72.3104 107.564 71.9717C106.914 71.8014 106.371 71.685 105.97 71.6084C105.769 71.57 105.602 71.5418 105.475 71.5212C105.411 71.511 105.357 71.502 105.313 71.4956C105.291 71.4923 105.27 71.49 105.253 71.4876C105.245 71.4864 105.237 71.4846 105.23 71.4836L105.214 71.4822C105.212 71.4894 105.191 71.6506 104.722 75.1541C104.721 75.1527 104.721 75.1515 104.72 75.1501L105.21 71.4814L103.365 71.2345C101.713 67.5663 99.3169 64.7946 97.1604 62.8478C95.5694 61.4115 94.0457 60.3636 92.9057 59.666C92.3324 59.3152 91.8465 59.0467 91.4846 58.8576C91.3034 58.7628 91.152 58.6873 91.0357 58.6308C90.9778 58.6026 90.9282 58.5786 90.8879 58.5597C90.8679 58.5503 90.8501 58.5423 90.8346 58.5351C90.8268 58.5315 90.819 58.5281 90.8124 58.525C90.8093 58.5236 90.8065 58.5219 90.8036 58.5206C90.8023 58.52 90.7997 58.5197 90.7988 58.5193C90.7968 58.5184 90.7952 58.5173 88.5344 63.4975L90.7945 58.5171L86.6414 56.6314L85.1823 58.6009C83.8678 55.1948 81.9113 52.494 80.0933 50.5149C78.6432 48.9363 77.2239 47.7505 76.154 46.9495C75.6159 46.5467 75.1566 46.2345 74.814 46.0124C74.6425 45.9012 74.4996 45.8113 74.3892 45.7442C74.3339 45.7106 74.2863 45.6827 74.2479 45.66C74.2288 45.6488 74.212 45.6388 74.1973 45.6302C74.1898 45.6259 74.1822 45.622 74.1759 45.6184C74.1729 45.6167 74.1703 45.6147 74.1676 45.6131C74.1662 45.6123 74.164 45.6114 74.1632 45.6109C74.162 45.6102 74.1637 45.6111 73.453 46.8519C73.4538 46.8479 73.4548 46.844 73.4556 46.8401L74.1589 45.6087L73.7201 45.3575C73.8246 44.6545 73.9035 43.9303 73.9498 43.1853C74.368 36.4816 71.8135 31.1512 69.3667 27.6642C68.1354 25.9094 66.8831 24.5483 65.9268 23.6142C65.4457 23.1444 65.0312 22.7743 64.7203 22.5093C64.5647 22.3766 64.4336 22.2697 64.3328 22.1887C64.2826 22.1484 64.2397 22.1145 64.2046 22.0871C64.187 22.0734 64.1711 22.0608 64.1575 22.0503C64.1507 22.0451 64.1445 22.0399 64.1387 22.0354L64.127 22.0262C64.1251 22.0248 64.1226 22.0235 60.7632 26.4386L64.1226 22.024L60.4964 19.2642L57.0336 22.2277L60.7045 26.5162C57.0631 22.2616 57.0321 22.2291 57.0301 22.2303L57.0182 22.2408C57.0129 22.2454 57.0069 22.2506 57.0007 22.256C56.9882 22.2669 56.9737 22.2796 56.9579 22.2935C56.926 22.3214 56.8876 22.3553 56.8432 22.3954C56.7542 22.4758 56.6406 22.581 56.5058 22.71C56.2365 22.9679 55.8805 23.3238 55.4662 23.7755C55.3313 23.9226 55.1913 24.0816 55.0442 24.2498C54.9227 23.3631 54.7503 22.4522 54.5182 21.5195L54.3623 20.923C52.6875 14.7826 49.4248 10.388 46.6139 7.54978C45.2065 6.12871 43.8911 5.07553 42.8995 4.36089C42.4023 4.00257 41.9814 3.72626 41.6654 3.52839C41.5073 3.42936 41.3745 3.34929 41.2711 3.28863C41.2195 3.25834 41.1749 3.23283 41.1381 3.21191C41.1197 3.20146 41.1033 3.19199 41.0888 3.18385C41.0815 3.17977 41.0746 3.17595 41.0683 3.17245C41.0652 3.1707 41.0616 3.16923 41.0587 3.16762C41.0573 3.16684 41.0554 3.16493 41.0548 3.16456C41.052 3.16493 41.0039 3.24777 38.4103 7.95276L41.0513 3.1628L37.0561 0.960747L34.0634 4.40436ZM49.4647 43.6245C49.5733 45.6599 53.0998 93.6691 131.586 109.564L130.61 114.389C48.1793 97.7022 44.5739 44.4096 44.5421 43.8736L49.4647 43.6245ZM88.4615 63.6576C88.5298 63.6887 97.8909 67.9716 99.5198 77.8696C101.149 87.807 94.6049 94.7202 94.6049 94.7202C94.549 94.6964 86.7043 91.3463 84.8619 81.5444L84.7778 81.0703C83.3162 72.1565 87.2321 65.5107 88.2341 63.9881L88.4615 63.6576C87.5289 62.9666 86.7867 62.4189 86.1981 61.983C86.1979 61.9818 86.1979 61.9806 86.1977 61.9795L88.4615 63.6576ZM104.462 77.0773C104.514 77.0843 114.734 78.4733 119.152 87.4969C123.571 96.5409 119.292 105.054 119.292 105.054C119.283 105.053 110.762 104.114 106.168 95.2452L105.951 94.8163C101.43 85.5682 104.441 77.1358 104.462 77.0773ZM71.3565 50.5088C71.4029 50.5355 80.342 55.6739 81.0422 65.6944C81.7328 75.7333 74.561 82.0078 74.561 82.0078C74.561 82.0078 67.0062 77.9365 66.0948 67.9753L66.0557 67.4966C65.3477 57.1869 71.3565 50.5088 71.3565 50.5088ZM15.961 34.3629L15.3828 38.8849L20.9832 39.6008L20.5038 33.9755L15.961 34.3629ZM60.7045 26.5162C60.7045 26.5162 68.9428 32.7854 68.3149 42.8357L68.2807 43.3038C67.4445 53.0549 59.7667 58.1668 59.7667 58.1668C60.2183 58.845 60.6069 59.4241 60.9376 59.9207C60.9374 59.9217 60.9374 59.9227 60.9372 59.9237L59.7667 58.1668C59.7237 58.1357 52.5873 52.9612 53.2292 42.6807C53.8756 32.3611 60.7045 26.5162 60.7045 26.5162ZM38.3252 8.10674C38.3252 8.10674 46.1999 12.4473 48.9165 22.4108L49.0382 22.8753C51.4535 32.5742 45.6624 38.906 45.6624 38.906C45.6624 38.906 37.1169 35.4603 34.3189 26.0896L34.1902 25.639C31.5441 15.9372 38.3004 8.13544 38.3252 8.10674Z" fill="#20303F"/>
<path d="M209.116 124.378C219.962 103.88 212.137 78.4673 191.64 67.6212C171.143 56.775 145.73 64.6 134.884 85.0971C124.038 105.594 131.863 131.007 152.36 141.854C172.857 152.7 198.27 144.875 209.116 124.378Z" fill="white"/>
<path d="M209.116 124.378C219.962 103.88 212.137 78.4673 191.64 67.6212C171.143 56.775 145.73 64.6 134.884 85.0971C124.038 105.594 131.863 131.007 152.36 141.854C172.857 152.7 198.27 144.875 209.116 124.378Z" fill="url(#paint4_linear_4524_33614)"/>
<path d="M129.919 82.4698C142.216 59.2307 171.028 50.3592 194.268 62.6563C217.507 74.9534 226.378 103.766 214.081 127.005C201.784 150.244 172.972 159.115 149.732 146.818C126.493 134.521 117.622 105.709 129.919 82.4698ZM191.641 67.6211C171.144 56.775 145.73 64.5998 134.884 85.0967L134.389 86.0616C124.285 106.385 132.183 131.177 152.359 141.854C172.536 152.53 197.478 145.115 208.598 125.329L209.116 124.378C219.793 104.201 212.378 79.2598 192.592 68.1397L191.641 67.6211Z" fill="#20303F"/>
<path d="M171.296 123V94.6748H171.15L162.21 100.845V94.2376L171.271 87.9458H178.559V123H171.296Z" fill="#21303F"/>
<defs>
<linearGradient id="paint0_linear_4524_33614" x1="292.328" y1="-3.15738" x2="76.5225" y2="105.339" gradientUnits="userSpaceOnUse">
<stop stop-color="#FFD60A"/>
<stop offset="0.25" stop-color="#FFE770"/>
<stop offset="0.5" stop-color="#FFD60A"/>
<stop offset="0.75" stop-color="#FFE870"/>
<stop offset="1" stop-color="#FFD60A"/>
</linearGradient>
<linearGradient id="paint1_linear_4524_33614" x1="292.328" y1="-3.15738" x2="76.5225" y2="105.339" gradientUnits="userSpaceOnUse">
<stop stop-color="#FFD60A"/>
<stop offset="0.25" stop-color="#FFE770"/>
<stop offset="0.5" stop-color="#FFD60A"/>
<stop offset="0.75" stop-color="#FFE870"/>
<stop offset="1" stop-color="#FFD60A"/>
</linearGradient>
<linearGradient id="paint2_linear_4524_33614" x1="52.3155" y1="-3.15738" x2="268.121" y2="105.339" gradientUnits="userSpaceOnUse">
<stop stop-color="#FFD60A"/>
<stop offset="0.25" stop-color="#FFE770"/>
<stop offset="0.5" stop-color="#FFD60A"/>
<stop offset="0.75" stop-color="#FFE870"/>
<stop offset="1" stop-color="#FFD60A"/>
</linearGradient>
<linearGradient id="paint3_linear_4524_33614" x1="52.3155" y1="-3.15738" x2="268.121" y2="105.339" gradientUnits="userSpaceOnUse">
<stop stop-color="#FFD60A"/>
<stop offset="0.25" stop-color="#FFE770"/>
<stop offset="0.5" stop-color="#FFD60A"/>
<stop offset="0.75" stop-color="#FFE870"/>
<stop offset="1" stop-color="#FFD60A"/>
</linearGradient>
<linearGradient id="paint4_linear_4524_33614" x1="319.544" y1="56.5101" x2="79.2135" y2="56.5101" gradientUnits="userSpaceOnUse">
<stop stop-color="#FFD60A"/>
<stop offset="0.25" stop-color="#FFE770"/>
<stop offset="0.5" stop-color="#FFD60A"/>
<stop offset="0.75" stop-color="#FFE870"/>
<stop offset="1" stop-color="#FFD60A"/>
</linearGradient>
</defs>
</svg>
