<svg width="25" height="24" viewBox="0 0 25 24" fill="none" xmlns="http://www.w3.org/2000/svg">
<g id="Frame">
<path id="Vector" fill-rule="evenodd" clip-rule="evenodd" d="M13.3711 2.71281C13.1836 2.52528 12.9292 2.41992 12.664 2.41992C12.3988 2.41992 12.1444 2.52528 11.9569 2.71281L7.10663 7.56311C6.71611 7.95364 6.71611 8.5868 7.10663 8.97733C7.49716 9.36785 8.13032 9.36785 8.52085 8.97732L11.664 5.83414V14.1983C11.664 14.7506 12.1117 15.1983 12.664 15.1983C13.2163 15.1983 13.664 14.7506 13.664 14.1983V5.83414L16.8072 8.97732C17.1977 9.36785 17.8309 9.36785 18.2214 8.97733C18.6119 8.5868 18.6119 7.95364 18.2214 7.56311L13.3711 2.71281ZM6.11914 14.7373C6.11914 14.185 5.67143 13.7373 5.11914 13.7373C4.56686 13.7373 4.11914 14.185 4.11914 14.7373V16.1385V16.1776C4.11912 16.7479 4.11911 17.2353 4.15183 17.6357C4.18625 18.0571 4.26181 18.4695 4.46309 18.8645C4.76564 19.4583 5.24839 19.9411 5.84217 20.2436C6.2372 20.4449 6.64965 20.5205 7.07095 20.5549C7.47147 20.5876 7.95884 20.5876 8.52914 20.5876H8.56823H16.7598H16.7989C17.3692 20.5876 17.8566 20.5876 18.2571 20.5549C18.6784 20.5205 19.0908 20.4449 19.4859 20.2436C20.0796 19.9411 20.5624 19.4583 20.8649 18.8645C21.0662 18.4695 21.1418 18.0571 21.1762 17.6357C21.2089 17.2353 21.2089 16.7479 21.2089 16.1776V16.1385V14.7373C21.2089 14.185 20.7612 13.7373 20.2089 13.7373C19.6566 13.7373 19.2089 14.185 19.2089 14.7373V16.1385C19.2089 16.7586 19.2081 17.1636 19.1828 17.4729C19.1585 17.7705 19.1166 17.8905 19.0829 17.9565C18.9721 18.174 18.7953 18.3508 18.5779 18.4616C18.5118 18.4953 18.3918 18.5372 18.0942 18.5615C17.7849 18.5868 17.3799 18.5876 16.7598 18.5876H8.56823C7.94809 18.5876 7.54312 18.5868 7.23382 18.5615C6.93619 18.5372 6.81625 18.4953 6.75015 18.4616C6.5327 18.3508 6.3559 18.174 6.2451 17.9565C6.21143 17.8905 6.16951 17.7705 6.14519 17.4729C6.11992 17.1636 6.11914 16.7586 6.11914 16.1385V14.7373Z" fill="#2EA6FF"/>
</g>
</svg>
