<svg width="30" height="30" viewBox="0 0 30 30" fill="none" xmlns="http://www.w3.org/2000/svg">
<rect width="30" height="30" rx="7" fill="#2EA5FF"/>
<path d="M22.2201 7.69043H7.77989C5.9548 7.69043 5 8.61676 5 10.3867V11.1311H25V10.3867C25 8.61676 24.0537 7.69043 22.2201 7.69043ZM8.5319 19.3771C8.03338 19.3771 7.6954 19.0545 7.6954 18.5831V17.053C7.6954 16.5898 8.03338 16.259 8.5319 16.259H10.602C11.0921 16.259 11.4301 16.5898 11.4301 17.053V18.5831C11.4301 19.0545 11.0921 19.3771 10.602 19.3771H8.5319ZM7.77989 22.0238H22.2201C24.0537 22.0238 25 21.0892 25 19.3192V13.0747H5V19.3192C5 21.0974 5.9548 22.0238 7.77989 22.0238Z" fill="white"/>
<rect width="30" height="30" rx="6.66667" fill="#5E5CE6"/>
<path d="M7.52742 23H22.4713C24.3556 23 25.3327 22.0482 25.3327 20.2219V9.77814C25.3327 7.95177 24.3556 7 22.4713 7H7.52742C5.64308 7 4.66602 7.94319 4.66602 9.77814V20.2219C4.66602 22.0482 5.64308 23 7.52742 23ZM11.4182 15C10.3714 15 9.51645 14.1254 9.51645 12.9593C9.51645 11.8532 10.3714 10.9443 11.4182 10.9443C12.4825 10.9443 13.3287 11.8532 13.3287 12.9593C13.3287 14.1254 12.4825 15.0086 11.4182 15ZM17.141 12.2047C16.8095 12.2047 16.5653 11.9561 16.5653 11.6388C16.5653 11.3387 16.8095 11.0986 17.141 11.0986H21.721C22.0438 11.0986 22.2881 11.3387 22.2881 11.6388C22.2881 11.9561 22.0438 12.2047 21.721 12.2047H17.141ZM17.141 15.5573C16.8095 15.5573 16.5653 15.3087 16.5653 15C16.5653 14.6913 16.8095 14.4512 17.141 14.4512H21.721C22.0438 14.4512 22.2881 14.6913 22.2881 15C22.2881 15.3087 22.0438 15.5573 21.721 15.5573H17.141ZM8.09447 18.9614C7.77169 18.9614 7.60593 18.7385 7.60593 18.4555C7.60593 17.6495 8.80982 15.5831 11.4182 15.5831C14.0354 15.5831 15.248 17.6495 15.248 18.4555C15.248 18.7385 15.0822 18.9614 14.7594 18.9614H8.09447ZM17.141 18.91C16.8095 18.91 16.5653 18.6699 16.5653 18.3698C16.5653 18.0525 16.8095 17.8039 17.141 17.8039H21.721C22.0438 17.8039 22.2881 18.0525 22.2881 18.3698C22.2881 18.6699 22.0438 18.91 21.721 18.91H17.141Z" fill="white"/>
</svg>
