<svg width="30" height="31" viewBox="0 0 30 31" fill="none" xmlns="http://www.w3.org/2000/svg">
<rect y="0.667969" width="30" height="30" rx="7" fill="#915CE6"/>
<path d="M11.4527 8.43244V9.29842H18.5395V8.43244C18.5395 8.0348 18.2656 7.77854 17.8238 7.77854H12.1596C11.7266 7.77854 11.4527 8.0348 11.4527 8.43244ZM14.9873 14.6445C11.5145 14.6445 8.20086 14.1143 4.98438 12.7712V12.1261C4.98438 10.2616 5.95639 9.29842 7.83856 9.29842H9.6147V8.35291C9.6147 6.93908 10.5249 6.09961 12.0447 6.09961H17.9387C19.4585 6.09961 20.3687 6.93908 20.3687 8.35291V9.29842H22.1448C24.0358 9.29842 24.999 10.2616 24.999 12.1261V12.7712C21.7825 14.1143 18.4689 14.6445 14.9873 14.6445ZM7.83856 23.5782C5.95639 23.5782 4.98438 22.6238 4.98438 20.7505V14.4501C7.67067 15.4309 10.0919 15.8904 12.5396 16.076V16.7741C12.5396 17.4457 12.9284 17.8168 13.6088 17.8168H16.3658C17.055 17.8168 17.4438 17.4457 17.4438 16.7741V16.076C19.8915 15.8904 22.3127 15.4309 24.999 14.4501V20.7505C24.999 22.6238 24.0358 23.5782 22.1448 23.5782H7.83856Z" fill="white"/>
</svg>
