<svg width="30" height="31" viewBox="0 0 30 31" fill="none" xmlns="http://www.w3.org/2000/svg">
<rect y="0.667969" width="30" height="30" rx="7" fill="#2EA5FF"/>
<path d="M22.2201 8.3584H7.77989C5.9548 8.3584 5 9.28473 5 11.0547V11.7991H25V11.0547C25 9.28473 24.0537 8.3584 22.2201 8.3584ZM8.5319 20.0451C8.03338 20.0451 7.6954 19.7225 7.6954 19.2511V17.721C7.6954 17.2578 8.03338 16.927 8.5319 16.927H10.602C11.0921 16.927 11.4301 17.2578 11.4301 17.721V19.2511C11.4301 19.7225 11.0921 20.0451 10.602 20.0451H8.5319ZM7.77989 22.6917H22.2201C24.0537 22.6917 25 21.7571 25 19.9872V13.7427H5V19.9872C5 21.7654 5.9548 22.6917 7.77989 22.6917Z" fill="white"/>
<g clip-path="url(#clip0_3642_32690)">
<path d="M0 11.868C0 7.9476 0 5.98742 0.762954 4.49004C1.43407 3.1729 2.50493 2.10204 3.82207 1.43092C5.31945 0.667969 7.27963 0.667969 11.2 0.667969H18.8C22.7204 0.667969 24.6805 0.667969 26.1779 1.43092C27.4951 2.10204 28.5659 3.1729 29.237 4.49004C30 5.98742 30 7.9476 30 11.868V19.468C30 23.3884 30 25.3485 29.237 26.8459C28.5659 28.1631 27.4951 29.2339 26.1779 29.905C24.6805 30.668 22.7204 30.668 18.8 30.668H11.2C7.27963 30.668 5.31945 30.668 3.82207 29.905C2.50493 29.2339 1.43407 28.1631 0.762954 26.8459C0 25.3485 0 23.3884 0 19.468V11.868Z" fill="#34C759"/>
<path d="M15.002 24.4112C13.9343 24.4112 12.9533 24.251 12.0591 23.9307C11.1716 23.6171 10.4275 23.17 9.82691 22.5894C9.22633 22.0088 8.82259 21.3315 8.61572 20.5574C8.54899 20.3439 8.51562 20.147 8.51562 19.9668C8.51562 19.6198 8.61573 19.3395 8.81592 19.126C9.01612 18.9125 9.29973 18.8057 9.66675 18.8057C9.96037 18.8057 10.2073 18.8824 10.4075 19.0359C10.6077 19.1894 10.7645 19.413 10.878 19.7066C11.0381 20.2671 11.3017 20.7409 11.6687 21.128C12.0358 21.515 12.4996 21.8086 13.0601 22.0088C13.6273 22.2023 14.2846 22.2991 15.032 22.2991C15.8728 22.2991 16.5936 22.189 17.1941 21.9688C17.8014 21.7486 18.2652 21.4316 18.5855 21.0179C18.9058 20.6041 19.066 20.1003 19.066 19.5064C19.066 18.7523 18.8057 18.1617 18.2852 17.7347C17.7647 17.3076 16.9005 16.9506 15.6927 16.6636L13.7908 16.2232C12.1025 15.8228 10.8446 15.2389 10.0171 14.4715C9.19629 13.6974 8.7859 12.6897 8.7859 11.4485C8.7859 10.4609 9.04948 9.59668 9.57666 8.85596C10.1106 8.11524 10.8446 7.53801 11.7789 7.12427C12.7198 6.70386 13.7908 6.49365 14.992 6.49365C16.033 6.49365 16.9739 6.65381 17.8147 6.97412C18.6622 7.29443 19.3663 7.74154 19.9268 8.31543C20.494 8.88932 20.8811 9.54663 21.0879 10.2873C21.1213 10.3941 21.1447 10.4976 21.158 10.5977C21.1714 10.6911 21.178 10.7879 21.178 10.888C21.178 11.215 21.0779 11.4785 20.8777 11.6787C20.6775 11.8789 20.4006 11.979 20.0469 11.979C19.4664 11.979 19.0526 11.6854 18.8057 11.0982C18.6255 10.5576 18.3586 10.1005 18.0049 9.72681C17.6579 9.35311 17.2308 9.07284 16.7237 8.88599C16.2232 8.69247 15.6526 8.5957 15.012 8.5957C14.2112 8.5957 13.5306 8.71582 12.97 8.95606C12.4095 9.19629 11.9791 9.51994 11.6788 9.927C11.3851 10.3341 11.2383 10.7812 11.2383 11.2683C11.2383 11.9557 11.4986 12.5196 12.0191 12.96C12.5396 13.3937 13.3437 13.7374 14.4314 13.991L16.3333 14.4314C18.115 14.8518 19.423 15.4491 20.2571 16.2232C21.0979 16.9973 21.5184 18.0216 21.5184 19.2962C21.5184 20.3772 21.2247 21.3015 20.6375 22.0689C20.0569 22.8296 19.2728 23.4102 18.2852 23.8106C17.3042 24.211 16.2098 24.4112 15.002 24.4112ZM14.992 26.7635C14.7918 26.7635 14.6216 26.6934 14.4815 26.5533C14.348 26.4131 14.2813 26.2396 14.2813 26.0327V4.91211C14.2813 4.70524 14.348 4.53508 14.4815 4.40161C14.6216 4.26148 14.7918 4.19141 14.992 4.19141C15.1989 4.19141 15.369 4.26148 15.5025 4.40161C15.6426 4.53508 15.7127 4.70524 15.7127 4.91211V26.0327C15.7127 26.2396 15.6426 26.4131 15.5025 26.5533C15.369 26.6934 15.1989 26.7635 14.992 26.7635Z" fill="white"/>
</g>
<defs>
<clipPath id="clip0_3642_32690">
<rect width="30" height="30" fill="white" transform="translate(0 0.667969)"/>
</clipPath>
</defs>
</svg>
