<svg width="30" height="30" viewBox="0 0 30 30" fill="none" xmlns="http://www.w3.org/2000/svg">
<rect width="30" height="30" rx="7" fill="#2EA5FF"/>
<path d="M22.2201 7.69043H7.77989C5.9548 7.69043 5 8.61676 5 10.3867V11.1311H25V10.3867C25 8.61676 24.0537 7.69043 22.2201 7.69043ZM8.5319 19.3771C8.03338 19.3771 7.6954 19.0545 7.6954 18.5831V17.053C7.6954 16.5898 8.03338 16.259 8.5319 16.259H10.602C11.0921 16.259 11.4301 16.5898 11.4301 17.053V18.5831C11.4301 19.0545 11.0921 19.3771 10.602 19.3771H8.5319ZM7.77989 22.0238H22.2201C24.0537 22.0238 25 21.0892 25 19.3192V13.0747H5V19.3192C5 21.0974 5.9548 22.0238 7.77989 22.0238Z" fill="white"/>
</svg>
