<svg width="30" height="31" viewBox="0 0 30 31" fill="none" xmlns="http://www.w3.org/2000/svg">
<rect y="0.333008" width="30" height="30" rx="7" fill="#BF5CE6"/>
<path d="M18.225 16.6444H25.2273C26.9657 16.6444 27.8716 15.7548 27.8716 14.0246V9.14418C27.8716 7.41399 26.9657 6.52441 25.2273 6.52441H18.225C16.4703 6.52441 15.5725 7.41399 15.5725 9.14418V14.0246C15.5725 15.7548 16.4703 16.6444 18.225 16.6444ZM5.64844 12.2047H14.3728V9.49512C14.3728 9.23396 14.3892 8.98096 14.3973 8.78509C14.1933 8.78509 14.0545 8.78509 13.8505 8.78509C13.3527 8.76876 13.0426 8.63818 12.659 8.31173L12.2264 7.9608C11.6551 7.48744 11.2307 7.33238 10.382 7.33238H8.07234C6.54618 7.33238 5.64844 8.22196 5.64844 9.93583V12.2047ZM21.7261 14.245C21.3915 14.245 21.1712 14.0246 21.1712 13.69V12.1394H19.6205C19.2941 12.1394 19.0656 11.919 19.0656 11.5844C19.0656 11.2498 19.2859 11.0294 19.6205 11.0294H21.1712V9.48696C21.1712 9.15234 21.3915 8.93199 21.7261 8.92383C22.0608 8.92383 22.2811 9.15234 22.2811 9.48696V11.0294H23.8318C24.1582 11.0294 24.3867 11.2498 24.3867 11.5844C24.3867 11.919 24.1582 12.1394 23.8318 12.1394H22.2811V13.69C22.2811 14.0246 22.0608 14.245 21.7261 14.245ZM8.32533 22.5368H21.8812C23.44 22.5368 24.3459 21.4922 24.3459 19.7538V17.8359H18.2168C15.8174 17.8359 14.3728 16.4159 14.3728 14.0409V13.3799H5.64844V19.8844C5.64844 21.6309 6.5625 22.5368 8.32533 22.5368Z" fill="white"/>
</svg>
