<svg width="31" height="31" viewBox="0 0 31 31" fill="none" xmlns="http://www.w3.org/2000/svg">
<rect x="0.667969" y="0.666016" width="30" height="30" rx="6.66667" fill="#005CFF"/>
<rect x="0.667969" y="0.666016" width="30" height="30" rx="9.6" fill="#005CFF"/>
<path fill-rule="evenodd" clip-rule="evenodd" d="M23.5745 9.63416H18.4107V10.917H23.5745V9.63416ZM14.7017 21.1108C15.0642 20.8383 15.3662 20.5021 15.61 20.1021C15.9925 19.4997 16.1789 18.8169 16.1781 18.0552C16.1781 17.3214 16.0116 16.6927 15.6785 16.178C15.3479 15.6585 14.8531 15.2848 14.2005 15.0442C14.6316 14.8251 14.9575 14.5829 15.1766 14.3144C15.5734 13.8387 15.7702 13.2124 15.7702 12.426C15.7702 11.6675 15.5766 11.015 15.1837 10.4692C14.5304 9.57918 13.4229 9.12662 11.8628 9.10352H5.66797V21.9283H11.4453C12.0939 21.9283 12.6978 21.8709 13.2548 21.7546C13.8101 21.6398 14.293 21.4247 14.7017 21.1108ZM18.8799 17.6106H25.5696C25.5815 16.8154 25.5537 16.2067 25.4883 15.79C25.3736 15.0673 25.133 14.4355 24.7545 13.8881C24.3394 13.2682 23.8103 12.8156 23.1705 12.5272C22.5275 12.242 21.8089 12.0994 21.0097 12.0994C19.6632 12.0994 18.57 12.5232 17.723 13.3726C16.8793 14.2219 16.4586 15.4426 16.4586 17.0353C16.4586 18.7348 16.9287 19.9611 17.8609 20.7148C18.7963 21.4661 19.8735 21.8462 21.0973 21.8462C22.5777 21.8462 23.7307 21.3976 24.5513 20.5044C25.0828 19.9411 25.3776 19.3898 25.4413 18.844H22.9897C22.847 19.1117 22.6837 19.3244 22.4973 19.4742C22.1531 19.7563 21.7117 19.8941 21.1643 19.8941C20.6472 19.8941 20.205 19.7818 19.8408 19.5499C19.2353 19.1794 18.9174 18.534 18.8799 17.6106ZM12.6964 13.8404C13.043 13.6292 13.2151 13.2539 13.2151 12.7129C13.2151 12.1162 12.9872 11.7202 12.5274 11.5297C12.1323 11.3983 11.6263 11.3298 11.0136 11.3298H8.62728V14.1591H11.3403C11.8972 14.1583 12.349 14.0523 12.6964 13.8404ZM12.6613 16.4976C12.3569 16.3574 11.9291 16.2873 11.3801 16.2809H8.62728V19.7006H11.3363C11.8932 19.7006 12.3243 19.6273 12.6358 19.4751C13.1959 19.1963 13.478 18.6632 13.478 17.8736C13.478 17.2067 13.2063 16.747 12.6613 16.4976ZM19.5788 14.6029C19.9182 14.2547 20.3963 14.0762 21.0138 14.0762C21.5803 14.0762 22.0543 14.2427 22.4344 14.575C22.8184 14.904 23.0312 15.3885 23.0782 16.0251H18.939C19.0266 15.4259 19.2386 14.9526 19.5788 14.6029Z" fill="white"/>
</svg>
