<svg width="15" height="15" viewBox="0 0 15 15" fill="none" xmlns="http://www.w3.org/2000/svg">
<path d="M5.41211 14.519C5.76904 14.519 6.05127 14.3613 6.25049 14.0542L14.0947 1.70264C14.2441 1.46191 14.3022 1.2793 14.3022 1.08838C14.3022 0.631836 14.0034 0.333008 13.5469 0.333008C13.2148 0.333008 13.0322 0.440918 12.833 0.756348L5.37891 12.6348L1.51074 7.57129C1.30322 7.28076 1.0957 7.16455 0.796875 7.16455C0.32373 7.16455 0 7.48828 0 7.94482C0 8.13574 0.0830078 8.35156 0.240723 8.55078L4.54883 14.0376C4.79785 14.3613 5.05518 14.519 5.41211 14.519Z" fill="white"/>
</svg>
