<svg width="33" height="32" viewBox="0 0 33 32" fill="none" xmlns="http://www.w3.org/2000/svg">
<rect x="0.335938" y="-0.000976562" width="32" height="32" rx="6.66667" fill="#F83D3D"/>
<rect x="0.335938" y="-0.000976562" width="32" height="32" rx="9.6" fill="#F83D3D"/>
<path d="M16.5184 9.51971H16.5304M20.5334 11.814H20.5454M12.1715 11.814H12.1835M9.78666 15.999H9.79866M21.1373 20.799H24.3845C24.8808 20.8066 25.3668 20.6568 25.7727 20.3712C26.1787 20.0856 26.4837 19.6787 26.6441 19.209C27.1215 17.6804 27.253 16.0647 27.029 14.4791C26.8051 12.8934 26.2313 11.3774 25.3492 10.0408C24.4672 8.70419 23.2989 7.58048 21.929 6.75103C20.5592 5.92158 19.022 5.40714 17.4288 5.24497C15.8357 5.0828 14.2264 5.27696 12.7175 5.81339C11.2086 6.34981 9.83786 7.21508 8.70458 8.34653C7.5713 9.47798 6.70382 10.8473 6.16495 12.3553C5.62609 13.8633 5.42933 15.4723 5.58892 17.0658C5.79713 18.9161 6.47501 20.6824 7.55813 22.1969C8.64125 23.7114 10.0937 24.9239 11.7773 25.719C13.1835 26.4175 14.7301 26.7868 16.3001 26.799C16.6179 26.802 16.9331 26.7422 17.2278 26.6231C17.5224 26.504 17.7906 26.328 18.017 26.105C18.2435 25.882 18.4236 25.6165 18.5472 25.3238C18.6708 25.031 18.7354 24.7167 18.7373 24.399V23.3706C18.7197 23.0426 18.7684 22.7145 18.8806 22.4058C18.9928 22.0971 19.1661 21.8142 19.3902 21.5741C19.6143 21.334 19.8845 21.1416 20.1847 21.0084C20.4849 20.8752 20.8089 20.804 21.1373 20.799Z" stroke="white" stroke-width="2.4" stroke-linecap="round" stroke-linejoin="round"/>
</svg>
