<svg width="31" height="31" viewBox="0 0 31 31" fill="none" xmlns="http://www.w3.org/2000/svg">
<rect x="0.667969" y="0.666016" width="30" height="30" rx="6.66667" fill="#E04C86"/>
<rect x="0.667969" y="0.666016" width="30" height="30" rx="9" fill="#E04C86"/>
<path d="M23.107 9.60515C21.6958 11.2811 19.8893 12.5797 17.8293 13.3629L17.7408 13.3922C17.9658 13.8513 18.1811 14.3157 18.3784 14.7853C18.4535 14.9541 18.5187 15.1229 18.5847 15.2819C19.2802 15.2054 20.0874 15.1619 20.9044 15.1619C22.452 15.1619 23.9629 15.3179 25.4228 15.6158L25.278 15.591C25.263 13.3104 24.4476 11.2241 23.0995 9.5939L23.1122 9.60965L23.107 9.60515ZM13.4181 6.34028C14.6147 7.95321 15.8008 9.7912 16.8675 11.705L17.0011 11.9653C19.0356 11.2841 20.7438 10.0815 22.0229 8.51436L22.0387 8.49485C20.353 6.98995 18.1166 6.07021 15.6665 6.07021C14.869 6.07021 14.094 6.16773 13.3529 6.35153L13.4189 6.33803L13.4181 6.34028ZM6.26046 13.7117C9.42555 13.6952 12.4834 13.2691 15.3949 12.4844L15.1451 12.5414C13.9057 10.3666 12.7279 8.55187 11.4601 6.8069L11.5824 6.98395C8.88466 8.27504 6.91088 10.7094 6.27321 13.642L6.26196 13.7057L6.26046 13.7117ZM8.52907 22.1065C10.3445 19.1942 13.0378 16.9759 16.2344 15.7988L16.3401 15.765C16.4669 15.723 16.593 15.6863 16.7197 15.6525C16.4759 15.1041 16.2134 14.5587 15.9395 14.0216C13.0228 14.8873 9.67162 15.3862 6.2042 15.3862C6.15468 15.3862 6.10592 15.3862 6.05716 15.3862H6.06466L6.06091 15.6788C6.06091 15.681 6.06091 15.6833 6.06091 15.6855C6.06091 18.1589 6.99866 20.4133 8.53732 22.1132L8.52982 22.105L8.52907 22.1065ZM19.4227 24.5251C18.9111 21.7501 18.1999 19.306 17.2749 16.9706L17.3694 17.2414L17.3079 17.2602C14.0715 18.27 11.4368 20.405 9.80441 23.198L9.77065 23.2603C11.3798 24.5266 13.4354 25.2911 15.6695 25.2911C17.0236 25.2911 18.3117 25.0105 19.479 24.5041L19.4167 24.5281L19.4227 24.5251ZM25.155 17.2054C23.9764 16.8498 22.6223 16.645 21.2202 16.645C20.497 16.645 19.7866 16.6998 19.0926 16.8048L19.1707 16.7951C19.9058 18.7186 20.5525 21.0179 20.9981 23.3886L21.0387 23.6466C23.1947 22.1763 24.7094 19.9009 25.1512 17.2624L25.1587 17.2062L25.155 17.2054ZM15.668 26.916C9.45481 26.916 4.41797 21.8792 4.41797 15.666C4.41797 9.45286 9.45481 4.41602 15.668 4.41602C21.8811 4.41602 26.918 9.45286 26.918 15.666C26.9097 21.8754 21.8774 26.907 15.668 26.916Z" fill="white"/>
</svg>
