<svg width="31" height="31" viewBox="0 0 31 31" fill="none" xmlns="http://www.w3.org/2000/svg">
<g clip-path="url(#clip0_1144_2022)">
<rect x="0.667969" y="0.666016" width="30" height="30" rx="6.66667" fill="black"/>
<path fill-rule="evenodd" clip-rule="evenodd" d="M28.1075 0.666016H3.23297C2.55269 0.666016 1.90027 0.936256 1.41924 1.41729C0.938209 1.89832 0.667969 2.55074 0.667969 3.23102L0.667969 28.101C0.667969 28.7813 0.938209 29.4337 1.41924 29.9147C1.90027 30.3958 2.55269 30.666 3.23297 30.666H28.1075C28.787 30.6648 29.4382 30.3941 29.9183 29.9132C30.3983 29.4323 30.668 28.7805 30.668 28.101V3.23102C30.668 2.55151 30.3983 1.89978 29.9183 1.41888C29.4382 0.937974 28.787 0.667208 28.1075 0.666016ZM28.6775 19.9605C28.6759 22.2699 27.7573 24.4841 26.1236 26.1164C24.4899 27.7487 22.2749 28.6654 19.9655 28.665H11.39C9.08099 28.665 6.86654 27.7479 5.23363 26.1154C3.60072 24.483 2.68307 22.2687 2.68247 19.9598V11.367C2.68237 10.2236 2.90754 9.09131 3.34512 8.03491C3.78269 6.97851 4.4241 6.01866 5.23271 5.21019C6.04131 4.40173 7.00127 3.76048 8.05775 3.32309C9.11423 2.88569 10.2465 2.66072 11.39 2.66102H19.9842C22.2936 2.66141 24.5083 3.57861 26.1417 5.21106C27.7751 6.84352 28.6937 9.05768 28.6955 11.367L28.676 19.9598L28.6775 19.9605Z" fill="white"/>
</g>
<defs>
<clipPath id="clip0_1144_2022">
<rect x="0.667969" y="0.666016" width="30" height="30" rx="6.66667" fill="white"/>
</clipPath>
</defs>
</svg>
