<svg width="18" height="18" viewBox="0 0 18 18" fill="none" xmlns="http://www.w3.org/2000/svg">
<path fill-rule="evenodd" clip-rule="evenodd" d="M0.874779 8.02334C0.151115 8.74701 0.151115 9.9203 0.874779 10.644L2.32777 12.0969V14.1516C2.32777 15.175 3.15741 16.0047 4.18082 16.0047H6.23547L7.68838 17.4576C8.41204 18.1812 9.58533 18.1812 10.309 17.4576L11.7619 16.0047H13.8167C14.8401 16.0047 15.6698 15.175 15.6698 14.1516V12.0968L17.1226 10.644C17.8463 9.9203 17.8463 8.74701 17.1226 8.02334L15.6698 6.57051V4.51571C15.6698 3.49229 14.8401 2.66265 13.8167 2.66265H11.7619L10.309 1.20974C9.58533 0.486076 8.41204 0.486076 7.68838 1.20974L6.23547 2.66265H4.18082C3.15741 2.66265 2.32777 3.49229 2.32777 4.51571V6.57035L0.874779 8.02334ZM11.9114 6.39048C12.1556 6.13589 12.5516 6.13589 12.7959 6.39048C13.0401 6.64507 13.0401 7.04857 12.7959 7.30316L8.03382 12.267C7.73362 12.5799 7.39655 12.3974 7.26554 12.267L5.14802 10.0598C4.90378 9.80516 4.90378 9.39239 5.14802 9.1378C5.39226 8.88321 5.78825 8.88321 6.03249 9.1378L7.65857 10.8328L11.9114 6.39048Z" fill="#6FC727"/>
</svg>
