<svg width="102" height="102" viewBox="0 0 102 102" fill="none" xmlns="http://www.w3.org/2000/svg">
<rect x="3" y="3" width="96" height="96" rx="20" fill="#2EA5FF"/>
<rect x="3" y="3" width="96" height="96" rx="28.8" fill="#2EA5FF"/>
<path d="M47.9024 82.7423H54.0654C56.5853 82.7423 58.5587 81.1636 59.1659 78.7349L60.3802 73.4219L61.1696 73.1183L65.8146 76.0025C67.9398 77.3383 70.4597 76.974 72.2509 75.1828L76.5012 70.9324C78.3228 69.1108 78.6264 66.6213 77.2906 64.5265L74.4064 59.8815L74.71 59.1529L80.023 57.9081C82.4214 57.3009 84.0001 55.3275 84.0001 52.8077V46.8268C84.0001 44.307 82.4517 42.3336 80.023 41.7264L74.7404 40.4513L74.4368 39.6619L77.3209 35.0473C78.6568 32.9525 78.3532 30.463 76.5316 28.611L72.2812 24.3607C70.5204 22.5695 68.0005 22.2355 65.8753 23.541L61.2303 26.3948L60.3802 26.0912L59.1659 20.7479C58.5587 18.3191 56.5853 16.7708 54.0654 16.7708H47.9024C45.3522 16.7708 43.3788 18.3191 42.802 20.7479L41.5876 26.0912L40.7375 26.3948L36.0925 23.541C33.937 22.2355 31.4475 22.5695 29.6866 24.3607L25.4059 28.611C23.6147 30.463 23.2807 32.9525 24.6165 35.0473L27.5007 39.6619L27.1971 40.4513L21.9449 41.7264C19.5161 42.3336 17.9678 44.307 17.9678 46.8268V52.8077C17.9678 55.3275 19.5465 57.3009 21.9449 57.9081L27.2578 59.1529L27.5311 59.8815L24.6469 64.5265C23.3111 66.6213 23.645 69.1108 25.4363 70.9324L29.717 75.1828C31.4778 76.974 33.9977 77.3383 36.1229 76.0025L40.7679 73.1183L41.5876 73.4219L42.802 78.7349C43.3788 81.1636 45.3522 82.7423 47.9024 82.7423ZM48.6918 77.1562C48.1757 77.1562 47.9024 76.9436 47.8417 76.4882L46.0201 69.0198C44.1075 68.5644 42.2555 67.775 40.7679 66.8339L34.2102 70.8717C33.8155 71.1146 33.4512 71.0842 33.0869 70.7199L29.8991 67.5321C29.5348 67.1982 29.5348 66.8339 29.7777 66.4392L33.8155 59.8815C32.9655 58.4242 32.1761 56.6027 31.7207 54.69L24.2219 52.8988C23.7665 52.8381 23.5236 52.5648 23.5236 52.0487V47.5555C23.5236 47.009 23.7361 46.7965 24.2219 46.675L31.6903 44.9142C32.1457 42.8801 33.0262 40.9978 33.7852 39.6316L29.7473 33.1346C29.5045 32.7096 29.5045 32.3453 29.8384 31.981L33.0565 28.8235C33.4208 28.4896 33.7548 28.4289 34.2102 28.7021L40.7072 32.6792C42.0734 31.8292 44.1075 30.9791 46.0505 30.4933L47.8417 23.0248C47.9024 22.5695 48.1757 22.3266 48.6918 22.3266H53.2761C53.7922 22.3266 54.0351 22.5391 54.1261 23.0248L55.9477 30.5237C57.9211 31.0094 59.7123 31.8292 61.2303 32.6792L67.7273 28.7021C68.1827 28.4592 68.5166 28.4896 68.881 28.8539L72.0991 32.0113C72.4634 32.3453 72.4634 32.7096 72.1902 33.1346L68.1827 39.6316C68.9113 40.9978 69.8221 42.8801 70.2775 44.9142L77.746 46.675C78.2317 46.7965 78.4139 47.009 78.4139 47.5555V52.0487C78.4139 52.5648 78.2014 52.8381 77.746 52.8988L70.2471 54.69C69.7917 56.6027 68.972 58.4546 68.122 59.8815L72.1598 66.4088C72.4027 66.8339 72.4027 67.1678 72.0384 67.5018L68.8506 70.7199C68.4863 71.0842 68.122 71.1146 67.7273 70.8717L61.2 66.8339C59.682 67.775 57.9515 68.534 55.9477 69.0198L54.1261 76.4882C54.0351 76.9436 53.7922 77.1562 53.2761 77.1562H48.6918ZM50.9991 61.278C57.3139 61.278 62.5054 56.0865 62.5054 49.7414C62.5054 43.4569 57.3139 38.2654 50.9991 38.2654C44.6539 38.2654 39.4321 43.4569 39.4321 49.7414C39.4321 56.0865 44.6539 61.278 50.9991 61.278ZM50.9991 56.0258C47.5381 56.0258 44.7146 53.2024 44.7146 49.7414C44.7146 46.3411 47.5685 43.5176 50.9991 43.5176C54.369 43.5176 57.1925 46.3411 57.1925 49.7414C57.1925 53.172 54.369 56.0258 50.9991 56.0258Z" fill="white"/>
<path d="M50.9992 61.2778C57.314 61.2778 62.5055 56.0863 62.5055 49.7411C62.5055 43.4566 57.314 38.2651 50.9992 38.2651C44.654 38.2651 39.4321 43.4566 39.4321 49.7411C39.4321 56.0863 44.654 61.2778 50.9992 61.2778ZM50.9992 56.0256C47.5382 56.0256 44.7147 53.2021 44.7147 49.7411C44.7147 46.3408 47.5685 43.5174 50.9992 43.5174C54.3691 43.5174 57.1925 46.3408 57.1925 49.7411C57.1925 53.1717 54.3691 56.0256 50.9992 56.0256Z" fill="#DAF5FE"/>
</svg>
