<svg width="96" height="96" viewBox="0 0 96 96" fill="none" xmlns="http://www.w3.org/2000/svg">
<rect width="96" height="96" rx="20" fill="#636267"/>
<rect width="96" height="96" rx="28.8" fill="#636267"/>
<path d="M23.0741 40.8519C26.981 40.8519 30.1481 44.019 30.1481 47.9259C30.1481 51.8328 26.981 55 23.0741 55C19.1672 55 16 51.8328 16 47.9259C16 44.019 19.1672 40.8519 23.0741 40.8519Z" fill="white"/>
<path d="M47.8333 40.8519C51.7402 40.8518 54.9074 44.019 54.9074 47.9259C54.9074 51.8328 51.7402 55 47.8333 55C43.9264 55 40.7593 51.8328 40.7593 47.9259C40.7593 44.019 43.9264 40.8519 47.8333 40.8519Z" fill="white"/>
<path d="M72.5926 40.8518C76.4995 40.8518 79.6667 44.019 79.6667 47.9259C79.6667 51.8328 76.4995 55 72.5926 55C68.6857 55 65.5185 51.8328 65.5185 47.9259C65.5185 44.019 68.6857 40.8518 72.5926 40.8518Z" fill="white"/>
</svg>
