<svg width="44" height="44" viewBox="0 0 44 44" fill="none" xmlns="http://www.w3.org/2000/svg">
<g clip-path="url(#clip0_2464_947)">
<path d="M22.0007 43.6224C33.7781 43.6224 43.3255 34.0749 43.3255 22.2975C43.3255 10.5201 33.7781 0.972656 22.0007 0.972656C10.2232 0.972656 0.675781 10.5201 0.675781 22.2975C0.675781 34.0749 10.2232 43.6224 22.0007 43.6224Z" fill="#28C281"/>
<path d="M21.984 34.9344C21.3043 34.9344 20.7982 34.5584 20.7982 33.7485V32.4036C18.9181 32.23 17.2116 31.5792 16.0691 30.5814C15.158 29.8004 14.623 28.8749 14.623 28.0216C14.623 27.1684 15.187 26.6622 15.9679 26.6622C16.4596 26.6622 16.7633 26.8068 17.443 27.5733C18.759 29.1352 20.2052 29.8293 22.0997 29.8293C24.5872 29.8293 26.0189 28.6869 26.0189 26.8502C26.0189 25.4329 25.1078 24.6086 22.9241 24.0735L19.8148 23.307C16.6621 22.5695 14.97 20.7039 14.97 18.014C14.97 14.8902 17.2839 12.721 20.8994 12.3883V11.1302C20.8994 10.3203 21.4056 9.94429 22.0708 9.94429C22.7361 9.94429 23.2567 10.3203 23.2567 11.1302V12.4317C24.9776 12.6631 26.5251 13.3139 27.5663 14.3262C28.4051 15.1216 28.8968 16.0327 28.8968 16.8281C28.8968 17.5946 28.3617 18.0863 27.6386 18.0863C27.0602 18.0863 26.6408 17.8549 26.0478 17.1608C24.7896 15.5989 23.6038 14.977 21.8539 14.977C19.6557 14.977 18.2384 16.134 18.2384 17.7971C18.2384 19.1276 19.1784 20.0821 21.0151 20.5014L24.081 21.239C27.6097 22.0633 29.2728 23.7698 29.2728 26.561C29.2728 29.8004 26.93 32.0275 23.141 32.418V33.7485C23.141 34.5584 22.6493 34.9344 21.984 34.9344Z" fill="white"/>
<g clip-path="url(#clip1_2464_947)">
<path d="M22.0007 43.8001C33.7781 43.8001 43.3255 34.2527 43.3255 22.4753C43.3255 10.6978 33.7781 1.15039 22.0007 1.15039C10.2232 1.15039 0.675781 10.6978 0.675781 22.4753C0.675781 34.2527 10.2232 43.8001 22.0007 43.8001Z" fill="#0098EA"/>
<path d="M29.2859 13.0527H14.7227C12.0451 13.0527 10.3479 15.9411 11.6951 18.2761L20.6829 33.8545C21.2694 34.8717 22.7392 34.8717 23.3257 33.8545L32.3154 18.2761C33.6607 15.9448 31.9635 13.0527 29.2877 13.0527H29.2859ZM20.6756 29.1828L18.7182 25.3945L13.9952 16.9473C13.6836 16.4067 14.0685 15.7138 14.7209 15.7138H20.6738V29.1846L20.6756 29.1828ZM30.0098 16.9455L25.2886 25.3963L23.3312 29.1828V15.712H29.2841C29.9365 15.712 30.3214 16.4049 30.0098 16.9455Z" fill="white"/>
</g>
</g>
<defs>
<clipPath id="clip0_2464_947">
<rect width="42.6497" height="42.6497" fill="white" transform="translate(0.675781 0.972656)"/>
</clipPath>
<clipPath id="clip1_2464_947">
<rect width="42.6497" height="42.6497" fill="white" transform="translate(0.675781 1.15039)"/>
</clipPath>
</defs>
</svg>
