<svg width="23" height="23" viewBox="0 0 23 23" fill="none" xmlns="http://www.w3.org/2000/svg">
<g clip-path="url(#clip0_2002_3062)">
<path d="M11.4974 22.1686C17.4805 22.1686 22.3307 17.3184 22.3307 11.3353C22.3307 5.35219 17.4805 0.501953 11.4974 0.501953C5.5143 0.501953 0.664062 5.35219 0.664062 11.3353C0.664062 17.3184 5.5143 22.1686 11.4974 22.1686Z" fill="#28C281"/>
<path d="M11.316 18.161C10.946 18.161 10.6705 17.9563 10.6705 17.5155V16.7834C9.64722 16.689 8.71837 16.3348 8.09652 15.7916C7.60061 15.3666 7.30936 14.8628 7.30936 14.3983C7.30936 13.9339 7.61635 13.6584 8.04141 13.6584C8.30905 13.6584 8.47435 13.7371 8.84432 14.1543C9.56063 15.0045 10.3478 15.3823 11.379 15.3823C12.7329 15.3823 13.5122 14.7604 13.5122 13.7607C13.5122 12.9893 13.0163 12.5406 11.8277 12.2494L10.1353 11.8322C8.41925 11.4308 7.49827 10.4153 7.49827 8.9512C7.49827 7.25093 8.75773 6.07019 10.7256 5.88915V5.20432C10.7256 4.76351 11.0011 4.55885 11.3632 4.55885C11.7253 4.55885 12.0087 4.76351 12.0087 5.20432V5.91276C12.9454 6.03871 13.7877 6.39293 14.3544 6.94394C14.811 7.37688 15.0786 7.87279 15.0786 8.30573C15.0786 8.72292 14.7874 8.99056 14.3938 8.99056C14.0789 8.99056 13.8507 8.86461 13.5279 8.48678C12.8431 7.63664 12.1976 7.29816 11.2452 7.29816C10.0487 7.29816 9.27726 7.92789 9.27726 8.83313C9.27726 9.55731 9.78891 10.0768 10.7886 10.3051L12.4574 10.7066C14.3781 11.1552 15.2833 12.0841 15.2833 13.6033C15.2833 15.3666 14.0081 16.5788 11.9457 16.7913V17.5155C11.9457 17.9563 11.6781 18.161 11.316 18.161Z" fill="white"/>
</g>
<defs>
<clipPath id="clip0_2002_3062">
<rect width="21.6667" height="21.6667" fill="white" transform="translate(0.664062 0.501953)"/>
</clipPath>
</defs>
</svg>
