<svg width="33" height="33" viewBox="0 0 33 33" fill="none" xmlns="http://www.w3.org/2000/svg">
<rect x="0.226562" y="0.849609" width="32" height="32" rx="6.66667" fill="#F83D3D"/>
<rect x="0.226562" y="0.849609" width="32" height="32" rx="9.6" fill="#F83D3D"/>
<path d="M16.4052 10.3703H16.4172M20.4201 12.6646H20.4321M12.0582 12.6646H12.0702M9.67338 16.8495H9.68538M21.024 21.6495H24.2712C24.7675 21.6572 25.2535 21.5074 25.6594 21.2218C26.0654 20.9361 26.3704 20.5293 26.5308 20.0595C27.0082 18.531 27.1397 16.9153 26.9157 15.3297C26.6918 13.744 26.118 12.228 25.2359 10.8914C24.3539 9.55478 23.1856 8.43107 21.8158 7.60162C20.4459 6.77216 18.9087 6.25773 17.3156 6.09556C15.7224 5.93339 14.1131 6.12755 12.6042 6.66397C11.0953 7.2004 9.72458 8.06567 8.5913 9.19712C7.45802 10.3286 6.59054 11.6979 6.05167 13.2059C5.51281 14.7139 5.31605 16.3229 5.47564 17.9163C5.68385 19.7666 6.36172 21.533 7.44485 23.0475C8.52797 24.562 9.98037 25.7744 11.664 26.5695C13.0702 27.2681 14.6168 27.6374 16.1868 27.6495C16.5046 27.6526 16.8198 27.5928 17.1145 27.4737C17.4091 27.3546 17.6773 27.1785 17.9037 26.9556C18.1302 26.7326 18.3104 26.4671 18.434 26.1744C18.5576 25.8816 18.6222 25.5673 18.624 25.2495V24.2211C18.6064 23.8932 18.6551 23.565 18.7673 23.2564C18.8795 22.9477 19.0528 22.6648 19.2769 22.4247C19.501 22.1846 19.7712 21.9922 20.0714 21.859C20.3716 21.7258 20.6956 21.6546 21.024 21.6495Z" stroke="white" stroke-width="2.4" stroke-linecap="round" stroke-linejoin="round"/>
</svg>
