<svg width="90" height="91" viewBox="0 0 90 91" fill="none" xmlns="http://www.w3.org/2000/svg">
<rect y="1" width="90" height="90" rx="20" fill="url(#paint0_linear_3898_33980)"/>
<path d="M45.0006 72.2304C30.1955 72.2304 18 60.0349 18 45.2037C18 30.3986 30.1693 18.2031 45.0006 18.2031C59.8056 18.2031 72.0011 30.3986 72.0011 45.2037C72.0011 60.0349 59.8318 72.2304 45.0006 72.2304ZM29.4798 29.9651C30.6551 30.7826 32.1389 31.475 33.8524 32.0103C35.0277 28.8393 36.6162 26.2588 38.4781 24.4172C35.0742 25.5118 31.9865 27.4155 29.4798 29.9651ZM51.5463 24.4172C53.3879 26.2588 54.9734 28.8684 56.1487 32.0103C57.8623 31.475 59.3692 30.7826 60.5213 29.9913C58.0262 27.4326 54.9459 25.5195 51.5463 24.4172ZM37.8439 32.9558C39.4556 33.2371 41.1846 33.4165 43.031 33.494V25.7468C41.012 26.8203 39.1705 29.4531 37.8409 32.9558M46.9934 25.7468V33.494C48.7244 33.4246 50.4492 33.2449 52.1573 32.9558C50.8277 29.4531 48.9862 26.8203 46.9934 25.7468ZM23.289 43.2109H31.7025C31.8305 40.578 32.1883 38.0703 32.7236 35.7429C30.4486 35.0272 28.479 34.0846 26.9953 32.982C24.9114 36.0216 23.6359 39.5419 23.289 43.2109ZM58.2928 43.2109H66.7063C66.3722 39.539 65.0955 36.0157 63 32.982C61.5163 34.0817 59.5729 35.0272 57.2688 35.7458C57.8332 38.0732 58.1648 40.5751 58.2928 43.2109ZM35.7405 43.2109H43.0281V37.4302C40.9001 37.3554 38.7804 37.125 36.686 36.7407C36.2031 38.7597 35.8714 40.9591 35.7405 43.2109ZM46.9905 43.2109H54.2548C54.1268 40.9591 53.8184 38.7597 53.3326 36.7407C51.3398 37.0986 49.1899 37.3546 46.9905 37.4302V43.2109ZM23.289 47.1732C23.622 50.8842 24.9176 54.4441 27.0477 57.501C28.5314 56.4304 30.4748 55.5082 32.7498 54.7663C32.1883 52.4389 31.8305 49.8846 31.7025 47.1732H23.289ZM35.7405 47.1732C35.8685 49.5006 36.2031 51.7233 36.6889 53.7946C38.6817 53.4135 40.8055 53.1837 43.031 53.079V47.1732H35.7405ZM46.9905 53.079C49.1899 53.1808 51.3136 53.4135 53.3064 53.7946C53.8184 51.7233 54.1501 49.5006 54.2781 47.1732H46.9934L46.9905 53.079ZM57.2717 54.7663C59.5467 55.5082 61.4901 56.4304 62.9447 57.501C65.0733 54.4408 66.3778 50.884 66.7325 47.1732H58.2957C58.191 49.8846 57.8332 52.4389 57.2717 54.7663ZM46.9934 57.0443V64.713C48.96 63.6395 50.8045 61.0328 52.1311 57.5796C50.4306 57.2925 48.7165 57.1137 46.9934 57.0443ZM37.8613 57.5796C39.1908 61.0328 41.0324 63.6395 43.0252 64.713V57.0443C41.2098 57.1199 39.473 57.2974 37.8613 57.5796ZM29.5264 60.5179C32.0138 63.0407 35.0783 64.9199 38.4548 65.993C36.6133 64.1777 35.0539 61.6205 33.8786 58.5251C32.1602 59.0623 30.7114 59.7275 29.5322 60.5208M56.1225 58.528C54.9734 61.6234 53.3879 64.1806 51.5725 65.996C54.9373 64.919 57.9902 63.0411 60.4689 60.5237C59.3198 59.7295 57.8361 59.0662 56.1225 58.528Z" fill="white"/>
<rect y="0.988281" width="90" height="90" rx="18" fill="#005CFF"/>
<rect y="0.988281" width="90" height="90" rx="25.92" fill="#005CFF"/>
<path d="M33.5762 26.3008C38.2562 26.3701 41.579 27.7276 43.5391 30.3975C44.7175 32.0348 45.2988 33.993 45.2988 36.2686C45.2988 38.6277 44.7079 40.5066 43.5176 41.9336C42.8603 42.739 41.8828 43.4658 40.5898 44.123C42.5473 44.8449 44.0315 45.966 45.0234 47.5244C46.0225 49.0685 46.5225 50.9548 46.5225 53.1562C46.5248 55.4412 45.9656 57.4899 44.8184 59.2969C44.0869 60.4967 43.1803 61.5048 42.0928 62.3223C40.8666 63.264 39.418 63.9097 37.752 64.2539C36.0813 64.6028 34.2697 64.7754 32.3242 64.7754H14.9922V26.3008H33.5762ZM61.0166 35.2881C63.414 35.2881 65.5701 35.7166 67.499 36.5723C69.4183 37.4375 71.0057 38.7948 72.251 40.6543C73.3864 42.2964 74.1089 44.1924 74.4531 46.3604C74.6491 47.6105 74.7321 49.4369 74.6963 51.8223H54.6279C54.7403 54.5925 55.6942 56.5282 57.5107 57.6396C58.603 58.3352 59.9293 58.6728 61.4805 58.6729C63.1225 58.6729 64.4469 58.2591 65.4795 57.4131C66.0388 56.9637 66.5292 56.3255 66.957 55.5225H74.3115C74.1202 57.1597 73.2358 58.8141 71.6416 60.5039C69.1797 63.1831 65.7211 64.5292 61.2803 64.5293C57.6088 64.5293 54.3765 63.3888 51.5703 61.1348C48.7738 58.8736 47.3634 55.1949 47.3633 50.0967C47.3633 45.3185 48.626 41.6565 51.1572 39.1084C53.698 36.5604 56.9772 35.2882 61.0166 35.2881ZM23.8721 47.832V58.0908H31.999C33.6696 58.0908 34.9629 57.8715 35.8975 57.415C37.5778 56.5784 38.4248 54.9791 38.4248 52.6104C38.4248 50.6098 37.6094 49.2306 35.9746 48.4824C35.0615 48.0617 33.7777 47.8512 32.1309 47.832H23.8721ZM61.0312 41.2178C59.179 41.2179 57.7447 41.7534 56.7266 42.7979C55.706 43.8471 55.0706 45.2671 54.8076 47.0645H67.2246C67.0836 45.155 66.4458 43.702 65.2939 42.7148C64.1538 41.7181 62.7308 41.2178 61.0312 41.2178ZM23.8721 32.9785V41.4668H32.0117C33.6821 41.4643 35.0371 41.1463 36.0791 40.5107C37.1189 39.8773 37.6357 38.7509 37.6357 37.1279C37.6357 35.338 36.952 34.1504 35.5732 33.5791C34.3877 33.1847 32.8694 32.9785 31.0312 32.9785H23.8721ZM68.7109 31.7412H53.2197V27.8926H68.7109V31.7412Z" fill="white"/>
<defs>
<linearGradient id="paint0_linear_3898_33980" x1="45" y1="1" x2="45" y2="91" gradientUnits="userSpaceOnUse">
<stop stop-color="#A7ADB9"/>
<stop offset="1" stop-color="#878B96"/>
</linearGradient>
</defs>
</svg>
