<svg width="90" height="90" viewBox="0 0 90 90" fill="none" xmlns="http://www.w3.org/2000/svg">
<rect width="90" height="90" rx="20" fill="#F4F5F7"/>
<path d="M21.272 21.4376C20.7917 21.4312 20.3331 21.6445 20.0195 22.0202C19.7058 22.396 19.5691 22.8957 19.646 23.3854L26.5485 66.6565C26.726 67.7496 27.6379 68.5532 28.7111 68.5623H61.8254C62.6309 68.573 63.3226 67.9731 63.4514 67.1518L70.354 23.3938C70.431 22.9041 70.2942 22.4044 69.9806 22.0286C69.6669 21.6529 69.2083 21.4396 68.728 21.446L21.272 21.4376ZM50.3374 52.7115H39.7682L36.9065 37.2719H52.8985L50.3374 52.7115Z" fill="#2684FF"/>
<path fill-rule="evenodd" clip-rule="evenodd" d="M68.1596 37.2715H52.8991L50.3382 52.7111H39.769L27.2891 68.008C27.6846 68.3611 28.1889 68.5576 28.7118 68.5621H61.8342C62.6398 68.5728 63.3315 67.9729 63.4604 67.1516L68.1596 37.2715Z" fill="url(#paint0_linear_3898_33414)"/>
<defs>
<linearGradient id="paint0_linear_3898_33414" x1="71.688" y1="41.5952" x2="53.2946" y2="66.8859" gradientUnits="userSpaceOnUse">
<stop offset="0.18" stop-color="#0052CC"/>
<stop offset="1" stop-color="#2684FF"/>
</linearGradient>
</defs>
</svg>
