<svg width="90" height="90" viewBox="0 0 90 90" fill="none" xmlns="http://www.w3.org/2000/svg">
<rect width="90" height="90" rx="20" fill="black"/>
<path fill-rule="evenodd" clip-rule="evenodd" d="M59.3969 45.0008L46.7969 53.3996V70.2008L71.9969 53.3996V36.602L46.7969 19.8008V36.602L59.3969 45.0008Z" stroke="white" stroke-width="5.4" stroke-linecap="round" stroke-linejoin="round"/>
<path d="M23.0963 34.3544C21.8555 33.5274 20.1792 33.8628 19.3521 35.1036C18.525 36.3443 18.8604 38.0206 20.1012 38.8478L23.0963 34.3544ZM45.3011 55.6455C46.5421 56.4724 48.2182 56.1368 49.0455 54.8963C49.8724 53.6554 49.5369 51.9792 48.2963 51.1519L45.3011 55.6455ZM24.2987 36.6011C24.2987 35.1099 23.0899 33.9011 21.5987 33.9011C20.1076 33.9011 18.8987 35.1099 18.8987 36.6011H24.2987ZM18.8987 53.3987C18.8987 54.8898 20.1076 56.0987 21.5987 56.0987C23.0899 56.0987 24.2987 54.8898 24.2987 53.3987H18.8987ZM20.101 34.3546C18.8603 35.1818 18.5251 36.8582 19.3523 38.0987C20.1794 39.3396 21.8558 39.6748 23.0965 38.8475L20.101 34.3546ZM48.2963 22.0464C49.5373 21.2192 49.8724 19.5428 49.0451 18.3021C48.2179 17.0614 46.5417 16.7262 45.3011 17.5534L48.2963 22.0464ZM48.2963 38.8478C49.5369 38.0206 49.8724 36.3443 49.0455 35.1036C48.2182 33.8628 46.5421 33.5274 45.3011 34.3544L48.2963 38.8478ZM20.1012 51.1519C18.8604 51.9792 18.525 53.6554 19.3521 54.8963C20.1792 56.1368 21.8555 56.4724 23.0963 55.6455L20.1012 51.1519ZM23.0965 51.1523C21.8558 50.325 20.1794 50.6602 19.3523 51.9011C18.5251 53.1417 18.8603 54.8178 20.101 55.6451L23.0965 51.1523ZM45.3011 72.4463C46.5417 73.2736 48.2179 72.9384 49.0451 71.6975C49.8724 70.4569 49.5373 68.7808 48.2963 67.9535L45.3011 72.4463ZM73.4963 38.8478C74.7369 38.0206 75.0724 36.3443 74.2455 35.1036C73.4182 33.8628 71.7421 33.5274 70.5011 34.3544L73.4963 38.8478ZM59.3987 44.9999L57.9011 42.7531C57.1498 43.2539 56.6987 44.097 56.6987 44.9999C56.6987 45.9028 57.1498 46.7459 57.9011 47.2466L59.3987 44.9999ZM70.5011 55.6455C71.7421 56.4724 73.4182 56.1368 74.2455 54.8963C75.0724 53.6554 74.7369 51.9792 73.4963 51.1519L70.5011 55.6455ZM20.1012 38.8478L45.3011 55.6455L48.2963 51.1519L23.0963 34.3544L20.1012 38.8478ZM18.8987 36.6011V53.3987H24.2987V36.6011H18.8987ZM23.0965 38.8475L48.2963 22.0464L45.3011 17.5534L20.101 34.3546L23.0965 38.8475ZM45.3011 34.3544L20.1012 51.1519L23.0963 55.6455L48.2963 38.8478L45.3011 34.3544ZM20.101 55.6451L45.3011 72.4463L48.2963 67.9535L23.0965 51.1523L20.101 55.6451ZM70.5011 34.3544L57.9011 42.7531L60.8963 47.2466L73.4963 38.8478L70.5011 34.3544ZM57.9011 47.2466L70.5011 55.6455L73.4963 51.1519L60.8963 42.7531L57.9011 47.2466Z" fill="white"/>
</svg>
