<svg width="90" height="91" viewBox="0 0 90 91" fill="none" xmlns="http://www.w3.org/2000/svg">
<rect y="1" width="90" height="90" rx="20" fill="url(#paint0_linear_3898_33990)"/>
<g clip-path="url(#clip0_3898_33990)">
<path d="M45.0006 72.2304C30.1955 72.2304 18 60.0349 18 45.2037C18 30.3986 30.1693 18.2031 45.0006 18.2031C59.8056 18.2031 72.0011 30.3986 72.0011 45.2037C72.0011 60.0349 59.8318 72.2304 45.0006 72.2304ZM29.4798 29.9651C30.6551 30.7826 32.1389 31.475 33.8524 32.0103C35.0277 28.8393 36.6162 26.2588 38.4781 24.4172C35.0742 25.5118 31.9865 27.4155 29.4798 29.9651ZM51.5463 24.4172C53.3879 26.2588 54.9734 28.8684 56.1487 32.0103C57.8623 31.475 59.3692 30.7826 60.5213 29.9913C58.0262 27.4326 54.9459 25.5195 51.5463 24.4172ZM37.8439 32.9558C39.4556 33.2371 41.1846 33.4165 43.031 33.494V25.7468C41.012 26.8203 39.1705 29.4531 37.8409 32.9558M46.9934 25.7468V33.494C48.7244 33.4246 50.4492 33.2449 52.1573 32.9558C50.8277 29.4531 48.9862 26.8203 46.9934 25.7468ZM23.289 43.2109H31.7025C31.8305 40.578 32.1883 38.0703 32.7236 35.7429C30.4486 35.0272 28.479 34.0846 26.9953 32.982C24.9114 36.0216 23.6359 39.5419 23.289 43.2109ZM58.2928 43.2109H66.7063C66.3722 39.539 65.0955 36.0157 63 32.982C61.5163 34.0817 59.5729 35.0272 57.2688 35.7458C57.8332 38.0732 58.1648 40.5751 58.2928 43.2109ZM35.7405 43.2109H43.0281V37.4302C40.9001 37.3554 38.7804 37.125 36.686 36.7407C36.2031 38.7597 35.8714 40.9591 35.7405 43.2109ZM46.9905 43.2109H54.2548C54.1268 40.9591 53.8184 38.7597 53.3326 36.7407C51.3398 37.0986 49.1899 37.3546 46.9905 37.4302V43.2109ZM23.289 47.1732C23.622 50.8842 24.9176 54.4441 27.0477 57.501C28.5314 56.4304 30.4748 55.5082 32.7498 54.7663C32.1883 52.4389 31.8305 49.8846 31.7025 47.1732H23.289ZM35.7405 47.1732C35.8685 49.5006 36.2031 51.7233 36.6889 53.7946C38.6817 53.4135 40.8055 53.1837 43.031 53.079V47.1732H35.7405ZM46.9905 53.079C49.1899 53.1808 51.3136 53.4135 53.3064 53.7946C53.8184 51.7233 54.1501 49.5006 54.2781 47.1732H46.9934L46.9905 53.079ZM57.2717 54.7663C59.5467 55.5082 61.4901 56.4304 62.9447 57.501C65.0733 54.4408 66.3778 50.884 66.7325 47.1732H58.2957C58.191 49.8846 57.8332 52.4389 57.2717 54.7663ZM46.9934 57.0443V64.713C48.96 63.6395 50.8045 61.0328 52.1311 57.5796C50.4306 57.2925 48.7165 57.1137 46.9934 57.0443ZM37.8613 57.5796C39.1908 61.0328 41.0324 63.6395 43.0252 64.713V57.0443C41.2098 57.1199 39.473 57.2974 37.8613 57.5796ZM29.5264 60.5179C32.0138 63.0407 35.0783 64.9199 38.4548 65.993C36.6133 64.1777 35.0539 61.6205 33.8786 58.5251C32.1602 59.0623 30.7114 59.7275 29.5322 60.5208M56.1225 58.528C54.9734 61.6234 53.3879 64.1806 51.5725 65.996C54.9373 64.919 57.9902 63.0411 60.4689 60.5237C59.3198 59.7295 57.8361 59.0662 56.1225 58.528Z" fill="white"/>
<rect y="0.988281" width="90" height="90" rx="20" fill="#E04C86"/>
<rect y="0.988281" width="90" height="90" rx="27" fill="#E04C86"/>
<path d="M67.317 27.8057C63.0836 32.8335 57.6641 36.7293 51.484 39.0789L51.2184 39.1667C51.8936 40.5441 52.5395 41.9372 53.1314 43.3461C53.3565 43.8525 53.5523 44.3588 53.7503 44.836C55.8366 44.6064 58.2583 44.4759 60.7092 44.4759C65.3522 44.4759 69.8849 44.944 74.2646 45.8375L73.8302 45.7632C73.7852 38.9214 71.3388 32.6625 67.2944 27.7719L67.3327 27.8192L67.317 27.8057ZM38.2505 18.0111C41.8402 22.8499 45.3984 28.3638 48.5987 34.1051L48.9993 34.8861C55.1029 32.8425 60.2276 29.2348 64.0648 24.5333L64.1121 24.4748C59.055 19.9601 52.346 17.2009 44.9955 17.2009C42.6031 17.2009 40.2782 17.4934 38.0546 18.0448L38.2527 18.0043L38.2505 18.0111ZM16.7775 40.1255C26.2728 40.076 35.4462 38.7976 44.1808 36.4435L43.4313 36.6145C39.7133 30.09 36.1799 24.6458 32.3764 19.4109L32.7432 19.9421C24.6501 23.8154 18.7287 31.1186 16.8157 39.9162L16.782 40.1075L16.7775 40.1255ZM23.5833 65.3097C29.0297 56.5729 37.1094 49.9178 46.6992 46.3866L47.0165 46.2854C47.3969 46.1593 47.775 46.049 48.1553 45.9478C47.4239 44.3026 46.6362 42.6664 45.8147 41.055C37.0644 43.6522 27.011 45.1488 16.6087 45.1488C16.4601 45.1488 16.3138 45.1488 16.1676 45.1488H16.1901L16.1788 46.0265C16.1788 46.0333 16.1788 46.04 16.1788 46.0468C16.1788 53.467 18.9921 60.2301 23.608 65.3299L23.5855 65.3052L23.5833 65.3097ZM56.2643 72.5656C54.7293 64.2406 52.5958 56.9082 49.8208 49.9021L50.1044 50.7145L49.9198 50.7708C40.2107 53.8001 32.3066 60.2053 27.4093 68.5843L27.308 68.7711C32.1356 72.5701 38.3022 74.8635 45.0045 74.8635C49.0668 74.8635 52.9311 74.0218 56.433 72.5026L56.2462 72.5746L56.2643 72.5656ZM73.4611 50.6065C69.9254 49.5397 65.8631 48.9253 61.6567 48.9253C59.4871 48.9253 57.3558 49.0896 55.274 49.4047L55.5081 49.3754C57.7136 55.146 59.6537 62.0441 60.9905 69.156L61.112 69.9302C67.5803 65.519 72.1242 58.6929 73.4498 50.7776L73.4723 50.6088L73.4611 50.6065ZM45 79.7383C26.3605 79.7383 11.25 64.6278 11.25 45.9883C11.25 27.3488 26.3605 12.2383 45 12.2383C63.6395 12.2383 78.75 27.3488 78.75 45.9883C78.7252 64.6165 63.6282 79.7113 45 79.7383Z" fill="white"/>
</g>
<defs>
<linearGradient id="paint0_linear_3898_33990" x1="45" y1="1" x2="45" y2="91" gradientUnits="userSpaceOnUse">
<stop stop-color="#A7ADB9"/>
<stop offset="1" stop-color="#878B96"/>
</linearGradient>
<clipPath id="clip0_3898_33990">
<rect width="90" height="90" fill="white" transform="translate(0 0.988281)"/>
</clipPath>
</defs>
</svg>
