<svg width="90" height="90" viewBox="0 0 90 90" fill="none" xmlns="http://www.w3.org/2000/svg">
<rect width="90" height="90" rx="20" fill="#181818"/>
<g clip-path="url(#clip0_3898_33725)">
<path d="M35.3307 73.9993C40.6667 73.9993 44.9974 69.6687 44.9974 64.3327V54.666H35.3307C29.9947 54.666 25.6641 58.9967 25.6641 64.3327C25.6641 69.6687 29.9947 73.9993 35.3307 73.9993Z" fill="#0ACF83"/>
<path d="M25.6641 45.0007C25.6641 39.6647 29.9947 35.334 35.3307 35.334H44.9974V54.6673H35.3307C29.9947 54.6673 25.6641 50.3367 25.6641 45.0007Z" fill="#A259FF"/>
<path d="M25.6641 25.6667C25.6641 20.3307 29.9947 16 35.3307 16H44.9974V35.3333H35.3307C29.9947 35.3333 25.6641 31.0027 25.6641 25.6667Z" fill="#F24E1E"/>
<path d="M45 16H54.6667C60.0027 16 64.3333 20.3307 64.3333 25.6667C64.3333 31.0027 60.0027 35.3333 54.6667 35.3333H45V16Z" fill="#FF7262"/>
<path d="M64.3333 45.0007C64.3333 50.3367 60.0027 54.6673 54.6667 54.6673C49.3307 54.6673 45 50.3367 45 45.0007C45 39.6647 49.3307 35.334 54.6667 35.334C60.0027 35.334 64.3333 39.6647 64.3333 45.0007Z" fill="#1ABCFE"/>
</g>
<defs>
<clipPath id="clip0_3898_33725">
<rect width="38.6667" height="58" fill="white" transform="translate(25.6641 16)"/>
</clipPath>
</defs>
</svg>
