<svg width="90" height="90" viewBox="0 0 90 90" fill="none" xmlns="http://www.w3.org/2000/svg">
<rect width="90" height="90" rx="20" fill="black"/>
<g clip-path="url(#clip0_3898_34041)">
<path fill-rule="evenodd" clip-rule="evenodd" d="M69.2351 35.9365C69.2351 32.2795 68.0081 29.2885 65.9711 26.9455C66.2981 26.0965 67.3871 22.6885 65.6561 18.0775C65.6561 18.0775 62.9921 17.1775 56.9261 21.5125C54.3911 20.7685 51.6731 20.3965 48.9731 20.3845C46.2731 20.3965 43.5551 20.7685 41.0231 21.5125C34.9541 17.1775 32.2871 18.0775 32.2871 18.0775C30.5561 22.6885 31.6481 26.0965 31.9751 26.9455C29.9411 29.2885 28.7051 32.2795 28.7051 35.9365C28.7051 48.7765 36.1211 51.6505 43.1741 52.4965C43.1741 52.4965 38.1041 55.6375 38.1041 60.9175C36.2951 61.7755 28.6391 64.4035 25.8041 59.2825C25.8041 59.2825 24.1271 56.0665 20.9381 55.8295C20.9381 55.8295 17.8361 55.7875 20.7191 57.8665C20.7191 57.8665 22.8011 58.8985 24.2471 62.7685C24.2471 62.7685 25.8551 70.9225 38.0021 67.2595C38.1251 67.3225 38.0471 71.2045 38.0471 71.9995H59.9051C59.9051 71.9995 59.9411 64.2085 59.9411 61.7305C59.9411 55.6375 55.8731 53.5045 54.7301 52.4695C61.8071 51.6415 69.2351 48.8095 69.2351 35.9365Z" fill="white"/>
</g>
<defs>
<clipPath id="clip0_3898_34041">
<rect width="54" height="54" fill="white" transform="translate(18 18)"/>
</clipPath>
</defs>
</svg>
