<svg width="90" height="90" viewBox="0 0 90 90" fill="none" xmlns="http://www.w3.org/2000/svg">
<rect width="90" height="90" rx="20" fill="#FFE5C0"/>
<path d="M71.1223 39.5488L71.0526 39.3398L63.6657 20.0711C63.5263 19.6878 63.2476 19.3742 62.8992 19.1652C62.5507 18.9561 62.1674 18.8516 61.7493 18.8516C61.3312 18.8516 60.9479 19.0258 60.6343 19.2697C60.3207 19.5136 60.0768 19.862 59.9723 20.2802L54.9896 35.5418H34.815L29.8323 20.2802C29.7278 19.8969 29.4839 19.5484 29.1703 19.2697C28.8567 19.0258 28.4734 18.8516 28.0552 18.8516C27.6371 18.8516 27.2538 18.9213 26.9054 19.1652C26.557 19.3742 26.2782 19.6878 26.1388 20.0711L18.7519 39.3398L18.6822 39.5488C16.4871 45.2632 18.3686 51.7094 23.2468 55.4028H23.3165C23.3165 55.4377 34.5711 63.8699 34.5711 63.8699L40.1461 68.086L43.5259 70.6296C44.3274 71.2568 45.4772 71.2568 46.2786 70.6296L49.6585 68.086L55.2335 63.8699L66.5578 55.4028C71.4359 51.7094 73.2826 45.2632 71.0875 39.5488H71.1223Z" fill="#E24329"/>
<path d="M71.1203 39.5489L71.0506 39.3398C67.392 40.1064 64.0121 41.6395 61.1201 43.7999C61.0852 43.7999 52.3394 50.455 44.8828 56.0649C50.3881 60.2462 55.1966 63.87 55.1966 63.87L66.5209 55.4029C71.399 51.7094 73.2457 45.2633 71.0506 39.5489H71.1203Z" fill="#FC6D26"/>
<path d="M34.5312 63.8695L40.1063 68.0856L43.4861 70.6292C44.2875 71.2564 45.4374 71.2564 46.2388 70.6292L49.6187 68.0856L55.1937 63.8695C55.1937 63.8695 50.3852 60.2457 44.8799 56.0645C39.3397 60.2457 34.5312 63.8695 34.5312 63.8695Z" fill="#FCA326"/>
<path d="M28.6434 43.7999C25.7513 41.6395 22.3715 40.0716 18.7129 39.3398L18.6432 39.5489C16.448 45.2633 18.3296 51.7094 23.2077 55.4029H23.2774C23.2774 55.4377 34.532 63.87 34.532 63.87C34.532 63.87 39.3405 60.2462 44.8806 56.0649C37.4589 50.455 28.7131 43.8347 28.6434 43.7999Z" fill="#FC6D26"/>
</svg>
