<svg width="90" height="90" viewBox="0 0 90 90" fill="none" xmlns="http://www.w3.org/2000/svg">
<rect width="90" height="90" rx="20" fill="#FF0002"/>
<path d="M67.8432 38.1162C66.418 36.6459 64.3968 35.8421 61.9228 35.8421C58.8607 35.8421 56.5024 37.0909 55.1399 39.4277V27.8418H48.0237V59.6059H55.1399V48.4415C55.1399 45.8362 55.6751 44.1679 56.4788 43.1877C57.2512 42.2075 58.3471 41.8311 59.5272 41.8311C60.5662 41.8311 61.3955 42.1604 61.9699 42.7662C62.5521 43.3857 62.8814 44.3443 62.8814 45.6754V59.5824H70.0016V44.2757C70.0016 41.6703 69.2449 39.5571 67.8432 38.1181V38.1162ZM36.0105 35.8421C32.9385 35.8421 30.5802 37.0909 29.2256 39.4277V27.8418H22.1094V59.6059H29.2256V48.4415C29.2256 45.8362 29.7608 44.1679 30.5586 43.1877C31.3389 42.2075 32.4328 41.8311 33.6051 41.8311C34.6539 41.8311 35.4733 42.1604 36.0555 42.7662C36.6378 43.3857 36.9671 44.3443 36.9671 45.6754V59.5824H44.0892V44.2757C44.0892 41.6703 43.3305 39.5571 41.9053 38.0946C40.5037 36.6243 38.4825 35.8441 36.0085 35.8441L36.0105 35.8421Z" fill="white"/>
</svg>
