<svg width="90" height="90" viewBox="0 0 90 90" fill="none" xmlns="http://www.w3.org/2000/svg">
<rect width="90" height="90" rx="20" fill="#1275B1"/>
<g clip-path="url(#clip0_3898_34147)">
<path fill-rule="evenodd" clip-rule="evenodd" d="M68.0029 68.0068H58.6179V51.5854C58.6179 47.0806 56.6307 44.5673 53.0667 44.5673C49.1884 44.5673 46.8867 47.1862 46.8867 51.5854V68.0068H37.5018V37.5057H46.8867V40.9357C46.8867 40.9357 49.8312 35.7689 56.4664 35.7689C63.1039 35.7689 68.0029 39.8193 68.0029 48.2001V68.0068ZM26.8076 32.6276C23.6426 32.6276 21.0781 30.0422 21.0781 26.8537C21.0781 23.6675 23.6426 21.082 26.8076 21.082C29.9704 21.082 32.5348 23.6675 32.5348 26.8537C32.5371 30.0422 29.9704 32.6276 26.8076 32.6276ZM21.0781 68.0068H32.8093V37.5057H21.0781V68.0068Z" fill="white"/>
</g>
<defs>
<clipPath id="clip0_3898_34147">
<rect width="46.9247" height="46.9247" fill="white" transform="translate(21.0781 21.0762)"/>
</clipPath>
</defs>
</svg>
