<svg width="90" height="90" viewBox="0 0 90 90" fill="none" xmlns="http://www.w3.org/2000/svg">
<rect width="90" height="90" rx="20" fill="#CB2027"/>
<g clip-path="url(#clip0_3898_34019)">
<path d="M44.9992 90.0004C69.8516 90.0004 89.9984 69.8535 89.9984 45.0012C89.9984 20.1488 69.8516 0.00195312 44.9992 0.00195312C20.1468 0.00195312 0 20.1488 0 45.0012C0 69.8535 20.1468 90.0004 44.9992 90.0004Z" fill="#CB2027"/>
<path d="M48.6275 60.2588C45.2255 59.9957 43.7961 58.3087 41.1281 56.6892C39.6618 64.3826 37.8698 71.7577 32.562 75.6104C30.9216 63.9824 34.9668 55.2485 36.8455 45.978C33.6433 40.5876 37.2305 29.7376 43.9846 32.4112C52.2973 35.6985 36.7877 52.4546 47.1996 54.5475C58.0696 56.7325 62.5071 35.6864 55.7658 28.8408C46.0261 18.9575 27.4153 28.6162 29.7039 42.7646C30.2614 46.2235 33.8358 47.2735 31.1317 52.0463C24.8982 50.6658 23.0388 45.7494 23.2778 39.195C23.6637 28.4662 32.9181 20.9541 42.2006 19.9145C53.9401 18.6006 64.9585 24.2253 66.4794 35.2677C68.1904 47.7308 61.1796 61.2278 48.6275 60.2588Z" fill="#F1F2F2"/>
</g>
<defs>
<clipPath id="clip0_3898_34019">
<rect width="90" height="90" fill="white"/>
</clipPath>
</defs>
</svg>
