<svg width="22" height="23" viewBox="0 0 22 23" fill="none" xmlns="http://www.w3.org/2000/svg">
<circle cx="11.3327" cy="11.5173" r="10.6667" fill="#34C759"/>
<path d="M6.73964 11.8937C6.73964 11.6877 6.81287 11.5115 6.95934 11.365C7.11038 11.214 7.29117 11.1385 7.50172 11.1385H10.5706V8.06271C10.5706 7.85674 10.6461 7.67824 10.7972 7.5272C10.9482 7.37615 11.1267 7.30063 11.3327 7.30063C11.5432 7.30063 11.7217 7.37615 11.8682 7.5272C12.0147 7.67824 12.0879 7.85674 12.0879 8.06271V11.1385H15.1705C15.3765 11.1385 15.5527 11.214 15.6992 11.365C15.8502 11.5115 15.9257 11.6877 15.9257 11.8937C15.9257 12.1042 15.8502 12.285 15.6992 12.436C15.5527 12.5825 15.3765 12.6557 15.1705 12.6557H12.0879V15.7315C12.0879 15.9375 12.0147 16.116 11.8682 16.267C11.7217 16.4181 11.5432 16.4936 11.3327 16.4936C11.1267 16.4936 10.9482 16.4181 10.7972 16.267C10.6461 16.116 10.5706 15.9375 10.5706 15.7315V12.6557H7.50172C7.29117 12.6557 7.11038 12.5825 6.95934 12.436C6.81287 12.285 6.73964 12.1042 6.73964 11.8937Z" fill="white"/>
</svg>
