<svg width="90" height="90" viewBox="0 0 90 90" fill="none" xmlns="http://www.w3.org/2000/svg">
<rect width="90" height="90" rx="20" fill="#0E1626"/>
<path d="M24 22.949C24 21.2093 25.4104 19.7988 27.1502 19.7988H41.8511C43.5909 19.7988 45.0013 21.2093 45.0013 22.949V36.5999H27.1502C25.4104 36.5999 24 35.1894 24 33.4497V22.949ZM45.0013 36.5999H62.8524C64.5922 36.5999 66.0026 38.0103 66.0026 39.7501V50.2507C66.0026 51.9905 64.5922 53.4009 62.8524 53.4009H45.0013V36.5999ZM24 56.5511C24 54.8114 25.4104 53.4009 27.1502 53.4009H45.0013V67.0518C45.0013 68.7915 43.5909 70.202 41.8511 70.202H27.1502C25.4104 70.202 24 68.7915 24 67.0518V56.5511Z" fill="#F26207"/>
</svg>
