<svg width="90" height="90" viewBox="0 0 90 90" fill="none" xmlns="http://www.w3.org/2000/svg">
<rect width="90" height="90" rx="20" fill="#3DA8F8"/>
<path d="M66.2024 24.3257C66.2231 24.3257 66.2508 24.3257 66.2785 24.3257C67.0015 24.3257 67.6726 24.5506 68.2227 24.938L68.2123 24.9311C68.6136 25.2805 68.8834 25.7718 68.9492 26.3253V26.3356C69.0183 26.7577 69.0564 27.242 69.0564 27.7367C69.0564 27.9615 69.0495 28.1829 69.0322 28.4043V28.3732C68.2538 36.5685 64.8774 56.4427 63.1616 65.617C62.4351 69.5019 61.0064 70.8027 59.6226 70.9272C56.6164 71.2074 54.3332 68.9415 51.4204 67.0319C46.8609 64.0395 44.2837 62.1784 39.8591 59.2621C34.7427 55.8961 38.0603 54.0384 40.9731 51.0149C41.7376 50.2193 54.9905 38.1633 55.25 37.0701C55.2638 37.0044 55.2707 36.9317 55.2707 36.8556C55.2707 36.5858 55.1704 36.3402 55.0078 36.1534C54.8279 36.0358 54.6031 35.97 54.3678 35.97C54.2121 35.97 54.0634 36.0012 53.925 36.0531L53.9319 36.0496C53.4753 36.1534 46.1921 40.9666 32.0824 50.4891C30.543 51.7034 28.5988 52.4713 26.4817 52.5613H26.4609C23.4616 52.198 20.7391 51.5304 18.1549 50.5791L18.4109 50.6621C15.166 49.6035 12.5887 49.0465 12.8101 47.2546C12.9278 46.3228 14.2124 45.3692 16.6639 44.3937C31.7653 37.8139 41.8356 33.477 46.8748 31.3829C52.434 28.432 58.8789 26.0035 65.6558 24.4295L66.1989 24.3223L66.2024 24.3257Z" fill="white"/>
</svg>
