<svg width="90" height="90" viewBox="0 0 90 90" fill="none" xmlns="http://www.w3.org/2000/svg">
<rect width="90" height="90" rx="20" fill="black"/>
<g clip-path="url(#clip0_3898_34115)">
<path d="M58.1905 36.3235C62.1837 39.1765 67.0756 40.8552 72.359 40.8552V30.6934C71.3591 30.6936 70.3618 30.5894 69.3835 30.3823V38.381C64.1005 38.381 59.2093 36.7024 55.215 33.8496V54.5867C55.215 64.9605 46.8011 73.3696 36.4226 73.3696C32.5502 73.3696 28.9509 72.1994 25.9609 70.1926C29.3734 73.6801 34.1325 75.8435 39.3975 75.8435C49.7766 75.8435 58.1909 67.4345 58.1909 57.0603V36.3235H58.1905ZM61.8611 26.0715C59.8203 23.8432 58.4804 20.9634 58.1905 17.7797V16.4727H55.3708C56.0805 20.5192 58.5014 23.9762 61.8611 26.0715ZM32.5253 62.2321C31.3851 60.7379 30.769 58.91 30.7717 57.0306C30.7717 52.286 34.6202 48.439 39.3682 48.439C40.253 48.4388 41.1326 48.5742 41.9758 48.8416V38.4528C40.9904 38.3178 39.9958 38.2605 39.0016 38.2815V46.3677C38.1577 46.1003 37.2777 45.9644 36.3927 45.9653C31.6447 45.9653 27.7965 49.8118 27.7965 54.557C27.7965 57.9122 29.72 60.8171 32.5253 62.2321Z" fill="#FF004F"/>
<path d="M55.2195 33.8493C59.2138 36.7022 64.105 38.3808 69.388 38.3808V30.3821C66.4391 29.7542 63.8284 28.214 61.8656 26.0715C58.5057 23.976 56.085 20.5189 55.3753 16.4727H47.9687V57.0599C47.9519 61.7915 44.11 65.6228 39.3722 65.6228C36.5803 65.6228 34.1 64.2926 32.5292 62.2321C29.7241 60.8171 27.8005 57.912 27.8005 54.5572C27.8005 49.8125 31.6488 45.9655 36.3968 45.9655C37.3064 45.9655 38.1832 46.107 39.0057 46.3679V38.2817C28.8095 38.4923 20.6094 46.8191 20.6094 57.0601C20.6094 62.1723 22.6514 66.8067 25.9656 70.1929C28.9556 72.1995 32.5549 73.3698 36.4273 73.3698C46.806 73.3698 55.2197 64.9603 55.2197 54.5868L55.2195 33.8493Z" fill="white"/>
<path d="M69.3868 30.3832V28.2204C66.7275 28.2244 64.1205 27.48 61.8643 26.0724C63.8615 28.2579 66.4915 29.7649 69.3868 30.3832ZM55.374 16.4737C55.3063 16.087 55.2543 15.6978 55.2182 15.307V14H44.9917V54.5876C44.9754 59.3186 41.1337 63.1499 36.3955 63.1499C35.0044 63.1499 33.691 62.8198 32.5279 62.2334C34.0987 64.2937 36.5791 65.6236 39.371 65.6236C44.1083 65.6236 47.9508 61.7928 47.9674 57.0611V16.4737H55.374ZM39.0048 38.2828V35.9803C38.1503 35.8636 37.2888 35.805 36.4262 35.8054C26.0467 35.8054 17.6328 44.2147 17.6328 54.5876C17.6328 61.0909 20.9396 66.8222 25.9646 70.1935C22.6503 66.8075 20.6083 62.1729 20.6083 57.0609C20.6083 46.8202 28.8083 38.4933 39.0048 38.2828Z" fill="#00F2EA"/>
</g>
<defs>
<clipPath id="clip0_3898_34115">
<rect width="54.731" height="62" fill="white" transform="translate(17.6328 14)"/>
</clipPath>
</defs>
</svg>
