<svg width="90" height="90" viewBox="0 0 90 90" fill="none" xmlns="http://www.w3.org/2000/svg">
<rect width="90" height="90" rx="20" fill="#181818"/>
<g clip-path="url(#clip0_4045_32384)">
<path d="M46.7064 41.0568V65.3235H42.1797V39.3535L46.7064 41.0568Z" fill="white"/>
<path d="M28.6172 38.7931C28.6172 32.5865 32.0005 29.2031 35.9672 29.2031C39.9339 29.2031 40.4939 29.7631 44.9972 32.0265C49.5005 34.2898 50.6439 34.8498 52.9072 34.8498C55.1705 34.8498 56.2905 33.1465 56.2905 29.7631H60.2339C60.7939 36.5298 56.8505 39.3531 52.8839 39.3531C48.9172 39.3531 47.7972 38.7931 43.8539 36.5298C39.9105 34.2665 38.7672 33.7065 36.5039 33.7065C34.2405 33.7065 33.1205 35.4098 32.5605 39.3531L28.6172 38.7931Z" fill="white"/>
<path d="M45 80C25.7033 80 10 64.2967 10 45C10 25.7033 25.7033 10 45 10C64.2967 10 80 25.7033 80 45C80 64.2967 64.2967 80 45 80ZM45 12.2633C26.94 12.2633 12.2633 26.94 12.2633 45C12.2633 63.06 26.94 77.7367 45 77.7367C63.06 77.7367 77.7367 63.06 77.7367 45C77.7367 26.94 63.06 12.2633 45 12.2633Z" fill="white"/>
</g>
<defs>
<clipPath id="clip0_4045_32384">
<rect width="70" height="70" fill="white" transform="translate(10 10)"/>
</clipPath>
</defs>
</svg>
