<svg width="90" height="90" viewBox="0 0 90 90" fill="none" xmlns="http://www.w3.org/2000/svg">
<rect width="90" height="90" rx="20" fill="#32B8E8"/>
<path d="M71.9739 32.8779C71.7336 38.1446 68.0621 45.3563 60.9611 54.5094C53.6192 64.0707 47.4075 68.8508 42.3261 68.8508C39.1795 68.8508 36.5146 65.9402 34.3394 60.1168C32.8857 54.7788 31.4337 49.4414 29.9805 44.1035C28.3643 38.2833 26.6314 35.3695 24.7787 35.3695C24.3747 35.3695 22.961 36.2211 20.5407 37.9178L18 34.6383C20.6649 32.292 23.2942 29.9462 25.8808 27.5972C29.4351 24.5197 32.1033 22.9013 33.8815 22.7377C38.0843 22.3333 40.671 25.2115 41.6419 31.3729C42.6911 38.0204 43.4169 42.1552 43.8251 43.7736C45.0364 49.2886 46.3691 52.0426 47.8255 52.0426C48.9557 52.0426 50.6535 50.2541 52.9172 46.6772C55.1787 43.0991 56.3899 40.3769 56.5536 38.5069C56.8754 35.4192 55.6636 33.8715 52.9172 33.8715C51.6244 33.8715 50.2917 34.1696 48.9206 34.7587C51.5742 26.049 56.6448 21.8192 64.1293 22.0606C69.6778 22.2236 72.2936 25.8292 71.9739 32.8779Z" fill="white"/>
</svg>
