<svg width="90" height="90" viewBox="0 0 90 90" fill="none" xmlns="http://www.w3.org/2000/svg">
<rect width="90" height="90" rx="20" fill="#0079FF"/>
<path d="M72.656 64.2056H66.119C63.644 64.2056 62.879 62.2376 58.433 57.7316C54.56 53.9816 52.847 53.4776 51.896 53.4776C50.561 53.4776 50.18 53.8586 50.18 55.7006V61.6046C50.18 63.1946 49.673 64.1456 45.482 64.1456C37.028 63.5786 29.762 58.9676 25.544 52.2476L25.481 52.1426C20.585 46.0616 16.976 38.7326 15.191 30.7166L15.125 30.3656C15.125 29.4146 15.506 28.5236 17.348 28.5236H23.885C25.535 28.5236 26.171 29.2856 26.81 31.0616C30.044 40.3976 35.444 48.5876 37.667 48.5876C38.492 48.5876 38.873 48.2066 38.873 46.1126V36.4556C38.618 32.0096 36.269 31.6316 36.269 30.0446C36.296 29.1956 36.992 28.5176 37.844 28.5176C37.871 28.5176 37.895 28.5176 37.922 28.5206H37.919H48.206C49.604 28.5206 50.111 29.2826 50.111 30.9326V43.9526C50.111 45.3476 50.747 45.8576 51.128 45.8576C51.953 45.8576 52.655 45.3476 54.176 43.8266C57.338 39.9656 60.041 35.5496 62.102 30.7886L62.24 30.4286C62.675 29.3396 63.719 28.5836 64.94 28.5836C64.997 28.5836 65.051 28.5866 65.108 28.5896H65.099H71.636C73.604 28.5896 74.051 29.6006 73.604 31.0016C70.982 36.7766 68.036 41.7386 64.622 46.3346L64.778 46.1126C64.082 47.2556 63.827 47.7626 64.778 49.0376C65.474 49.9886 67.763 51.9566 69.287 53.7356C71.492 55.9166 73.34 58.4546 74.735 61.2566L74.81 61.4216C75.446 63.2576 74.492 64.2116 72.65 64.2116L72.656 64.2056Z" fill="white"/>
</svg>
