<svg width="90" height="90" viewBox="0 0 90 90" fill="none" xmlns="http://www.w3.org/2000/svg">
<rect width="90" height="90" rx="20" fill="white"/>
<g clip-path="url(#clip0_3898_34091)">
<path d="M73.6749 30.4863C72.9746 27.8981 70.9528 25.8764 68.3647 25.1761C63.7087 23.9062 44.9691 23.9062 44.9691 23.9062C44.9691 23.9062 26.2296 23.9447 21.5736 25.2146C18.9854 25.9149 16.9637 27.9366 16.2634 30.5247C14.855 38.7978 14.3086 51.4037 16.3019 59.3459C17.0022 61.934 19.0239 63.9558 21.612 64.6561C26.2681 65.9259 45.0076 65.9259 45.0076 65.9259C45.0076 65.9259 63.7472 65.9259 68.4032 64.6561C70.9913 63.9558 73.013 61.934 73.7134 59.3459C75.1987 51.0613 75.6566 38.4631 73.6749 30.4863Z" fill="#FF0000"/>
<path d="M39.0078 53.9205L54.5536 44.9163L39.0078 35.9121V53.9205Z" fill="white"/>
</g>
<defs>
<clipPath id="clip0_3898_34091">
<rect width="60" height="42.1875" fill="white" transform="translate(15 23.9062)"/>
</clipPath>
</defs>
</svg>
