<svg width="24" height="24" viewBox="0 0 24 24" fill="none" xmlns="http://www.w3.org/2000/svg">
<path d="M4.13672 23.2605C1.44727 23.2605 0.0527344 21.8784 0.0527344 19.2139V4.06079C0.0527344 1.39624 1.44727 0.0141602 4.13672 0.0141602H19.2151C21.9045 0.0141602 23.2991 1.39624 23.2991 4.06079V19.2139C23.2991 21.866 21.9045 23.2605 19.2151 23.2605H4.13672ZM7.99658 18.4419C8.35767 18.4419 8.56934 18.2551 9.11719 17.7073L11.6572 15.2046C11.6821 15.1797 11.7319 15.1797 11.7693 15.2046L14.2969 17.7073C14.8572 18.2551 15.0688 18.4419 15.4175 18.4419C15.9031 18.4419 16.2268 18.0808 16.2268 17.5081V6.8125C16.2268 5.54248 15.5544 4.84521 14.2844 4.84521H9.12964C7.85962 4.84521 7.18726 5.54248 7.18726 6.8125V17.5081C7.18726 18.0808 7.51099 18.4419 7.99658 18.4419Z" fill="#7D919E"/>
</svg>
