<svg width="33" height="25" viewBox="0 0 33 25" fill="none" xmlns="http://www.w3.org/2000/svg">
<path d="M0.0195312 18.4376C0.0195312 17.5211 0.170201 16.6296 0.647321 15.487L5.78265 3.39579C6.53599 1.61286 8.09291 0.608398 10.0767 0.608398C12.5879 0.608398 14.2201 2.21554 14.2201 4.65137V5.76883C14.873 5.5805 15.5762 5.48005 16.2919 5.48005C17.0452 5.48005 17.7358 5.55539 18.351 5.71861V4.65137C18.351 2.2281 19.9833 0.608398 22.4944 0.608398C24.4657 0.608398 26.0226 1.62542 26.7759 3.40834L31.9113 15.4996C32.401 16.6296 32.5516 17.5336 32.5516 18.4376C32.5516 22.016 29.3624 24.6904 25.445 24.6904C21.5151 24.6904 18.351 22.016 18.351 18.4376V15.3489C17.786 15.1606 17.0954 15.0852 16.2919 15.0852C15.5511 15.0852 14.8228 15.2108 14.2201 15.4242V18.4376C14.2201 22.0035 11.0435 24.6779 7.12612 24.6779C3.20871 24.6779 0.0195312 22.0035 0.0195312 18.4376ZM14.2076 11.5696C14.8228 11.3562 15.5511 11.2306 16.2919 11.2306C17.108 11.2306 17.786 11.3185 18.351 11.5068V9.57324C17.7358 9.41002 17.0452 9.33468 16.2919 9.33468C15.5762 9.33468 14.873 9.43513 14.2076 9.63602V11.5696ZM2.39258 18.4376C2.39258 20.7981 4.42662 22.3927 7.12612 22.3927C9.82561 22.3927 11.9224 20.7981 11.9224 18.4376C11.9224 16.0646 9.82561 14.47 7.12612 14.47C4.42662 14.47 2.39258 16.0646 2.39258 18.4376ZM20.6487 18.4376C20.6487 20.8107 22.7455 22.4053 25.445 22.4053C28.1445 22.4053 30.166 20.7981 30.166 18.4376C30.166 16.0771 28.1445 14.47 25.445 14.47C22.7455 14.47 20.6487 16.0771 20.6487 18.4376Z" fill="#7D919E"/>
</svg>
