<svg width="30" height="23" viewBox="0 0 30 23" fill="none" xmlns="http://www.w3.org/2000/svg">
<path d="M4.29688 22.7794H25.7799C28.5045 22.7794 29.9233 21.3732 29.9233 18.6862V11.655C29.9233 10.2487 29.7224 9.64606 29.0695 8.79227L24.9512 3.30538C23.4821 1.35924 22.7162 0.819336 20.4562 0.819336H9.63309C7.36049 0.819336 6.59459 1.35924 5.13811 3.30538L1.00725 8.79227C0.366908 9.64606 0.166016 10.2487 0.166016 11.655V18.6862C0.166016 21.3732 1.58482 22.7794 4.29688 22.7794ZM15.0446 15.0576C13.1362 15.0576 11.9434 13.5384 11.9434 11.9689V11.8684C11.9434 11.2909 11.5918 10.7384 10.8761 10.7384H3.31752C2.85296 10.7384 2.77762 10.3617 2.99107 10.0604L7.57394 3.90806C8.10128 3.17983 8.76674 2.9036 9.62054 2.9036H20.4687C21.31 2.9036 21.9754 3.17983 22.5153 3.90806L27.0857 10.0604C27.2991 10.3617 27.2238 10.7384 26.7592 10.7384H19.2006C18.4849 10.7384 18.1459 11.2909 18.1459 11.8684V11.9689C18.1459 13.5384 16.9531 15.0576 15.0446 15.0576Z" fill="#7D919E"/>
</svg>
