<svg width="26" height="27" viewBox="0 0 26 27" fill="none" xmlns="http://www.w3.org/2000/svg">
<path d="M12.9827 26.7642C20.1018 26.7642 25.978 20.8881 25.978 13.7815C25.978 6.67494 20.0893 0.798828 12.9701 0.798828C5.86356 0.798828 0 6.67494 0 13.7815C0 20.8881 5.87612 26.7642 12.9827 26.7642ZM12.9827 24.1777C7.21959 24.1777 2.61161 19.5446 2.61161 13.7815C2.61161 8.01841 7.21959 3.39788 12.9701 3.39788C18.7333 3.39788 23.3664 8.01841 23.3789 13.7815C23.3915 19.5446 18.7458 24.1777 12.9827 24.1777ZM8.34961 14.9743H11.7899V18.4272C11.7899 19.1177 12.2796 19.6074 12.9576 19.6074C13.6607 19.6074 14.1629 19.1177 14.1629 18.4272V14.9743H17.6158C18.3064 14.9743 18.8086 14.4847 18.8086 13.7941C18.8086 13.1035 18.3189 12.6013 17.6158 12.6013H14.1629V9.14844C14.1629 8.44531 13.6607 7.95564 12.9576 7.95564C12.2796 7.95564 11.7899 8.44531 11.7899 9.14844V12.6013H8.34961C7.63393 12.6013 7.14425 13.1035 7.14425 13.7941C7.14425 14.4847 7.64648 14.9743 8.34961 14.9743Z" fill="#7D919E"/>
</svg>
