<svg width="90" height="90" viewBox="0 0 90 90" fill="none" xmlns="http://www.w3.org/2000/svg">
<rect width="90" height="90" rx="20" fill="#2EA5FF"/>
<path d="M66.6603 23.0723H23.3397C17.8644 23.0723 15 25.8513 15 31.1611V33.3943H75V31.1611C75 25.8513 72.161 23.0723 66.6603 23.0723ZM25.5957 58.1323C24.1001 58.1323 23.0862 57.1646 23.0862 55.7503V51.16C23.0862 49.7705 24.1001 48.778 25.5957 48.778H31.8061C33.2763 48.778 34.2902 49.7705 34.2902 51.16V55.7503C34.2902 57.1646 33.2763 58.1323 31.8061 58.1323H25.5957ZM23.3397 66.0723H66.6603C72.161 66.0723 75 63.2685 75 57.9586V39.2252H15V57.9586C15 63.2933 17.8644 66.0723 23.3397 66.0723Z" fill="white"/>
</svg>
