<svg width="90" height="91" viewBox="0 0 90 91" fill="none" xmlns="http://www.w3.org/2000/svg">
<rect y="0.5" width="90" height="90" rx="20" fill="#FF453A"/>
<path d="M24.0129 63.1529H65.9874C68.6912 63.1529 70.3449 61.6856 70.3449 59.4847C70.3449 56.7073 67.8249 54.3229 65.4623 52.0696C63.7823 50.3927 63.2573 47.0126 63.021 44.078C62.9423 42.3749 62.811 40.7504 62.601 39.2045C61.2098 39.781 59.6872 40.1216 58.086 40.1216C51.1033 40.1216 45.3545 34.3834 45.3545 27.3875C45.3545 24.1647 46.5883 21.2039 48.5833 18.9768C47.5595 18.4266 46.3258 18.0859 44.987 18.0859C41.1282 18.0859 38.2669 20.7585 37.1643 24.2171C30.3917 26.6539 27.5567 33.4139 27.1629 43.0038C26.8217 46.4886 26.3754 50.2617 24.5379 52.0696C22.1753 54.3229 19.6553 56.7073 19.6553 59.4847C19.6553 61.6856 21.3091 63.1529 24.0129 63.1529ZM58.1122 36.4271C63.0473 36.4271 67.1686 32.3397 67.1686 27.3875C67.1686 22.4354 63.0473 18.348 58.1122 18.348C53.1509 18.348 49.0558 22.4354 49.0558 27.3875C49.0558 32.3397 53.1509 36.4271 58.1122 36.4271ZM45.0132 73.948C49.6596 73.948 53.0459 70.6204 53.3871 66.8211H36.6131C36.9543 70.6204 40.3406 73.948 45.0132 73.948Z" fill="white"/>
</svg>
