<svg width="90" height="90" viewBox="0 0 90 90" fill="none" xmlns="http://www.w3.org/2000/svg">
<rect width="90" height="90" rx="20" fill="#8E8E93"/>
<path d="M22.5842 69H67.4158C73.0688 69 76 66.1447 76 60.6656V29.3344C76 23.8553 73.0688 21 67.4158 21H22.5842C16.9312 21 14 23.8296 14 29.3344V60.6656C14 66.1447 16.9312 69 22.5842 69ZM34.2566 45C31.1161 45 28.5513 42.3762 28.5513 38.8778C28.5513 35.5595 31.1161 32.8328 34.2566 32.8328C37.4496 32.8328 39.9882 35.5595 39.9882 38.8778C39.9882 42.3762 37.4496 45.0257 34.2566 45ZM51.4251 36.6141C50.4306 36.6141 49.6978 35.8682 49.6978 34.9164C49.6978 34.0161 50.4306 33.2958 51.4251 33.2958H65.165C66.1334 33.2958 66.8662 34.0161 66.8662 34.9164C66.8662 35.8682 66.1334 36.6141 65.165 36.6141H51.4251ZM51.4251 46.672C50.4306 46.672 49.6978 45.926 49.6978 45C49.6978 44.074 50.4306 43.3537 51.4251 43.3537H65.165C66.1334 43.3537 66.8662 44.074 66.8662 45C66.8662 45.926 66.1334 46.672 65.165 46.672H51.4251ZM24.2854 56.8842C23.317 56.8842 22.8198 56.2154 22.8198 55.3666C22.8198 52.9486 26.4314 46.7492 34.2566 46.7492C42.1081 46.7492 45.7459 52.9486 45.7459 55.3666C45.7459 56.2154 45.2486 56.8842 44.2803 56.8842H24.2854ZM51.4251 56.7299C50.4306 56.7299 49.6978 56.0096 49.6978 55.1093C49.6978 54.1576 50.4306 53.4116 51.4251 53.4116H65.165C66.1334 53.4116 66.8662 54.1576 66.8662 55.1093C66.8662 56.0096 66.1334 56.7299 65.165 56.7299H51.4251Z" fill="white"/>
<rect width="90" height="90" rx="20" fill="#8E8E93"/>
<path d="M23.3073 69H66.6927C72.1634 69 75 66.2042 75 60.8392V30.1608C75 24.7958 72.1634 22 66.6927 22H23.3073C17.8366 22 15 24.7706 15 30.1608V60.8392C15 66.2042 17.8366 69 23.3073 69ZM26.8278 35.8532C25.4854 35.8532 24.3457 34.7197 24.3457 33.3848C24.3457 32.0247 25.4854 30.8912 26.8278 30.8912C28.2208 30.8912 29.3098 31.9995 29.3098 33.3848C29.3098 34.7449 28.2208 35.8532 26.8278 35.8532ZM34.6539 35.0975C33.6661 35.0975 32.9063 34.3167 32.9063 33.3848C32.9063 32.4025 33.6914 31.6217 34.6539 31.6217H64.008C64.9451 31.6217 65.7556 32.4025 65.7556 33.3848C65.7556 34.3167 64.9705 35.0975 64.008 35.0975H34.6539ZM26.8278 43.8124C25.4854 43.8124 24.3457 42.679 24.3457 41.3441C24.3457 39.9839 25.4854 38.8505 26.8278 38.8505C28.2208 38.8505 29.3098 39.9587 29.3098 41.3441C29.3098 42.7042 28.2208 43.8124 26.8278 43.8124ZM34.6539 43.082C33.6914 43.082 32.9063 42.276 32.9063 41.3441C32.9063 40.3869 33.6914 39.5809 34.6539 39.5809H50.9899C51.9523 39.5809 52.7374 40.3869 52.7374 41.3441C52.7374 42.276 51.9523 43.082 50.9899 43.082H34.6539ZM26.8278 51.7213C25.4601 51.7213 24.3457 50.6383 24.3457 49.2529C24.3457 47.918 25.4601 46.8098 26.8278 46.8098C28.2208 46.8098 29.3098 47.8928 29.3098 49.2529C29.3098 50.6383 28.2208 51.7213 26.8278 51.7213ZM34.6539 51.0161C33.6661 51.0161 32.9063 50.2605 32.9063 49.2529C32.9063 48.2958 33.6661 47.5654 34.6539 47.5654H64.008C64.9705 47.5654 65.7556 48.2958 65.7556 49.2529C65.7556 50.2605 64.9705 51.0161 64.008 51.0161H34.6539ZM26.8278 60.0836C25.4854 60.0836 24.3457 58.9502 24.3457 57.59C24.3457 56.2551 25.4854 55.1217 26.8278 55.1217C28.2208 55.1217 29.3098 56.2299 29.3098 57.59C29.3098 58.9753 28.2208 60.0836 26.8278 60.0836ZM34.6539 59.3532C33.6914 59.3532 32.9063 58.5723 32.9063 57.59C32.9063 56.6581 33.6661 55.8773 34.6539 55.8773H50.9899C51.9776 55.8773 52.7374 56.6581 52.7374 57.59C52.7374 58.5723 51.9523 59.3532 50.9899 59.3532H34.6539Z" fill="white"/>
</svg>
