<svg width="90" height="90" viewBox="0 0 90 90" fill="none" xmlns="http://www.w3.org/2000/svg">
<rect width="90" height="90" rx="20" fill="#5E5CE6"/>
<path d="M22.5842 69H67.4158C73.0688 69 76 66.1447 76 60.6656V29.3344C76 23.8553 73.0688 21 67.4158 21H22.5842C16.9312 21 14 23.8296 14 29.3344V60.6656C14 66.1447 16.9312 69 22.5842 69ZM34.2566 45C31.1161 45 28.5513 42.3762 28.5513 38.8778C28.5513 35.5595 31.1161 32.8328 34.2566 32.8328C37.4496 32.8328 39.9882 35.5595 39.9882 38.8778C39.9882 42.3762 37.4496 45.0257 34.2566 45ZM51.4251 36.6141C50.4306 36.6141 49.6978 35.8682 49.6978 34.9164C49.6978 34.0161 50.4306 33.2958 51.4251 33.2958H65.165C66.1334 33.2958 66.8662 34.0161 66.8662 34.9164C66.8662 35.8682 66.1334 36.6141 65.165 36.6141H51.4251ZM51.4251 46.672C50.4306 46.672 49.6978 45.926 49.6978 45C49.6978 44.074 50.4306 43.3537 51.4251 43.3537H65.165C66.1334 43.3537 66.8662 44.074 66.8662 45C66.8662 45.926 66.1334 46.672 65.165 46.672H51.4251ZM24.2854 56.8842C23.317 56.8842 22.8198 56.2154 22.8198 55.3666C22.8198 52.9486 26.4314 46.7492 34.2566 46.7492C42.1081 46.7492 45.7459 52.9486 45.7459 55.3666C45.7459 56.2154 45.2486 56.8842 44.2803 56.8842H24.2854ZM51.4251 56.7299C50.4306 56.7299 49.6978 56.0096 49.6978 55.1093C49.6978 54.1576 50.4306 53.4116 51.4251 53.4116H65.165C66.1334 53.4116 66.8662 54.1576 66.8662 55.1093C66.8662 56.0096 66.1334 56.7299 65.165 56.7299H51.4251Z" fill="white"/>
<rect width="90" height="90" rx="20" fill="#5E5CE6"/>
<path d="M61.5847 61.3047C61.5847 64.3215 63.7428 66.4402 66.7924 66.4402C69.8653 66.4402 72 64.3215 72 61.3047V24.1355C72 21.1187 69.8653 19 66.7924 19C63.7428 19 61.5847 21.1187 61.5847 24.1355V61.3047ZM37.0009 54.442C44.0851 55.271 51.404 57.3897 58.1833 60.8441C58.1599 60.6368 58.1599 60.4296 58.1599 60.2223V25.1949C58.1599 25.0567 58.1599 24.9185 58.1599 24.7803C51.4978 28.2117 43.4987 30.4916 37.0009 31.1825V54.442ZM28.4387 31.1825C21.6594 31.1825 18 34.6829 18 41.1081V44.5164C18 50.9185 21.6594 54.419 28.4387 54.419H33.5526V31.1825H28.4387ZM38.4318 71C41.5752 71 43.8975 68.7201 43.0295 64.9894L41.4579 58.1036C40.0269 57.5509 36.3206 57.2515 33.9044 57.2285H28.04L32.6612 66.7396C33.9983 69.457 35.4761 71 38.4318 71Z" fill="white"/>
</svg>
