<svg width="90" height="90" viewBox="0 0 90 90" fill="none" xmlns="http://www.w3.org/2000/svg">
<rect width="90" height="90" rx="20" fill="#2EA5FF"/>
<path d="M77 45C77 35.9268 71.3282 30 62.9407 30C58.5426 30 54.7694 31.878 50.7319 35.8537L44.988 41.4634L39.2681 35.8537C35.2306 31.878 31.4574 30 27.0593 30C18.6718 30 13 35.9268 13 45C13 54.0732 18.6718 60 27.0593 60C31.4574 60 35.2306 58.0976 39.2681 54.1463L44.988 48.5122L50.7319 54.1463C54.7694 58.0976 58.5426 60 62.9407 60C71.3282 60 77 54.0732 77 45ZM41.4071 45L35.6632 50.4634C32.635 53.3659 29.9914 54.8049 27.0593 54.8049C21.748 54.8049 18.119 50.9512 18.119 45C18.119 39.0244 21.748 35.1951 27.0593 35.1951C29.9914 35.1951 32.635 36.6341 35.6872 39.5366L41.4071 45ZM48.5929 45L54.3128 39.5366C57.365 36.6341 59.9846 35.1951 62.9407 35.1951C68.252 35.1951 71.881 39.0244 71.881 45C71.881 50.9512 68.252 54.8049 62.9407 54.8049C60.0086 54.8049 57.365 53.3659 54.3368 50.4634L48.5929 45Z" fill="white"/>
</svg>
